<mxfile modified="2023-07-30T18:24:14.783Z" host="app.diagrams.net" agent="Mozilla/5.0 (Macintosh; Intel Mac OS X 10_15_7) AppleWebKit/537.36 (KHTML, like Gecko) Chrome/115.0.0.0 Safari/537.36" etag="HZv3qirI5Kgz5i8zrZTs" version="21.6.5" type="device">
  <diagram id="Ht1M8jgEwFfnCIfOTk4-" name="Page-1">
    <mxGraphModel dx="1242" dy="1489" grid="1" gridSize="10" guides="1" tooltips="1" connect="1" arrows="1" fold="1" page="1" pageScale="1" pageWidth="1169" pageHeight="827" math="0" shadow="0">
      <root>
        <mxCell id="0" />
        <mxCell id="1" parent="0" />
        <mxCell id="wKkd2Ftk299Nv-PwKDOf-36" value="&lt;font color=&quot;#232f3e&quot;&gt;&lt;b&gt;AWS Cloud&lt;/b&gt;&lt;/font&gt;" style="sketch=0;outlineConnect=0;gradientColor=none;html=1;whiteSpace=wrap;fontSize=12;fontStyle=0;shape=mxgraph.aws4.group;grIcon=mxgraph.aws4.group_aws_cloud;strokeColor=#232F3E;fillColor=default;verticalAlign=top;align=left;spacingLeft=30;fontColor=#AAB7B8;dashed=0;" parent="1" vertex="1">
          <mxGeometry x="60" y="-827" width="910" height="500" as="geometry" />
        </mxCell>
        <mxCell id="0Fs1EqQwWm2RgDKxZV1P-9" style="edgeStyle=orthogonalEdgeStyle;rounded=0;orthogonalLoop=1;jettySize=auto;html=1;exitX=1;exitY=0.5;exitDx=0;exitDy=0;" edge="1" parent="1" source="wKkd2Ftk299Nv-PwKDOf-14" target="wKkd2Ftk299Nv-PwKDOf-13">
          <mxGeometry relative="1" as="geometry" />
        </mxCell>
        <mxCell id="wKkd2Ftk299Nv-PwKDOf-14" value="AWS DataSync" style="shape=image;verticalLabelPosition=bottom;labelBackgroundColor=default;verticalAlign=top;aspect=fixed;imageAspect=0;image=data:image/png,iVBORw0KGgoAAAANSUhEUgAAAUAAAAFACAYAAADNkKWqAAABdWlDQ1BrQ0dDb2xvclNwYWNlRGlzcGxheVAzAAAokXWQvUvDUBTFT6tS0DqIDh0cMolD1NIKdnFoKxRFMFQFq1OafgltfCQpUnETVyn4H1jBWXCwiFRwcXAQRAcR3Zw6KbhoeN6XVNoi3sfl/Ticc7lcwBtQGSv2AijplpFMxKS11Lrke4OHnlOqZrKooiwK/v276/PR9d5PiFlNu3YQ2U9cl84ul3aeAlN//V3Vn8maGv3f1EGNGRbgkYmVbYsJ3iUeMWgp4qrgvMvHgtMunzuelWSc+JZY0gpqhrhJLKc79HwHl4plrbWD2N6f1VeXxRzqUcxhEyYYilBRgQQF4X/8044/ji1yV2BQLo8CLMpESRETssTz0KFhEjJxCEHqkLhz634PrfvJbW3vFZhtcM4v2tpCAzidoZPV29p4BBgaAG7qTDVUR+qh9uZywPsJMJgChu8os2HmwiF3e38M6Hvh/GMM8B0CdpXzryPO7RqFn4Er/QcXKWq8UwZBywAAADhlWElmTU0AKgAAAAgAAYdpAAQAAAABAAAAGgAAAAAAAqACAAQAAAABAAABQKADAAQAAAABAAABQAAAAABBlwXOAAAvJ0lEQVR4Ae2dB3xX1fn/HzLJJMwwwt6bsPcQJCxRi1i1WrVat5X6c0+0Yv+OUrVatVprq+Koiou9954hQoCwIQQSIJuQBP7PicaG8P2ee+53ne+99/O8Xnkl+Z5zz3ifm0/uPeN5aoz/ZPoFgoEACICAAwmEOLDP6DIIgAAIVBCAAOJGAAEQcCwBCKBjhx4dBwEQgADiHgABEHAsAQigY4ceHQcBEIAA4h4AARBwLAEIoGOHHh0HARCAAOIeAAEQcCwBCKBjhx4dBwEQgADiHgABEHAsAQigY4ceHQcBEIAA4h4AARBwLAEIoGOHHh0HARCAAOIeAAEQcCwBCKBjhx4dBwEQgADiHgABEHAsAQigY4ceHQcBEIAA4h4AARBwLAEIoGOHHh0HARCAAOIeAAEQcCwBCKBjhx4dBwEQgADiHgABEHAsAQigY4ceHQcBEIAA4h4AARBwLAEIoGOHHh0HARCAAOIeAAEQcCwBCKBjhx4dBwEQgADiHgABEHAsAQigY4ceHQcBEIAA4h4AARBwLAEIoGOHHh0HARCAAOIeAAEQcCwBCKBjhx4dBwEQgADiHgABEHAsAQigY4ceHQcBEIAA4h4AARBwLAEIoGOHHh0HARCAAOIeAAEQcCwBCKBjhx4dBwEQgADiHgABEHAsAQigY4ceHQcBEIAA4h4AARBwLAEIoGOHHh0HARCAAOIeAAEQcCwBCKBjhx4dBwEQgADiHgABEHAsAQigY4ceHQcBEIAA4h4AARBwLAEIoGOHHh0HARCAAOIeAAEQcCwBCKBjhx4dBwEQgADiHgABEHAsAQigY4ceHQcBEIAA4h4AARBwLAEIoGOHHh0HARCAAOIeAAEQcCwBCKBjhx4dBwEQgADiHgABEHAsAQigY4ceHQcBEIAA4h4AARBwLAEIoGOHHh0HARCAAOIeAAEQcCwBCKBjhx4dBwEQgADiHgABEHAsAQigY4ceHQcBEIAA4h4AARBwLAEIoGOHHh0HARAIAwLnEqhRowZFR8dTg1q1KSmuNjXnr3rRsZQQUZNqR0ZR7ZpRFBV68S1Ser6cTpec5a/iiq+c4iI6mH+aDueeoqy8U1RQmEsXLlxwLlT03FIELr67LdV0NNYsgXAWtub1GlHn+o0puX4T6lo3kSKrCZxRmVEUTvGinLgEl1lLy8tpW85x2nzyKKXy1+GTx6is9JzLvPgQBHQTgADqHgE/118noT71TWpFw5u0pi4seP628NBQ6t2gScWXqKv8/HnawEK46NAe2nIkg84WF/i7CSgfBJQJ1Bj/yXS8ryjjskbGhFr1aFSrTpTSrB01iokLmkaLV+Mt2Zn07b4dtOVAOp0vLwuatqEhziQAAbTJuIeFR1Kv5u3oqtZd+NW2YdD3Kv9cCc3cl0Zz92ynPJ5DhIGADgIQQB3UfVhnVFQsTejYi65t05WiwsJ9WHJgihJPhfP49fjjHevoTG52YCpFLSDwMwHMAVr0VoiNTaDJnfvSlS07UFhIqEV7QSRWosfwk2tKs7Y0Vwhh6lrKzcuxbH/QcGsRgABaa7xIvOpe2aUf3dS+h6WFrzp2IYRjWQhHN21Dn+7ZRl9uX8OrxyXVs+F3EPApAbwC+xSnfwvry6+593UfRHV4j56vrKislDJyc2h/3mk6yF9HCk5THu/tK+Q5umLe61daVrmFpUZFleH8mh3F9cdG1qRaUTHUlPcOtoyvQ634qzXvJ/TV02jO2SL665bltHX/Tl91FeWAwCUEIICXIAm+D2Ji4unB/qOpX2JTrxsnhGVN5iHannOM0k9m0qkzJ322cTmE9xQ25gWYzrzHsHdiEvXh7TDeCuLarMP0lzXzqLgo3+u+owAQqE4AAlidSJD93oef+h5KHkox4REetyyDT2ksPrKX1h7ZR1k5mR6XY/ZC8bremfcgjmjaloY2ak4RJjddV9YnVoynbVhEOw6mV36E7yDgEwIQQJ9g9H0hofyqeW//FBrNiwOeWN65s/QD77Wbn7GDsk+f8KQIn14jTqEMbt2ZJrfpRs3cnCIxqvD7/bvofRbC8l9ey42uQDoIyAlAAOV8tKTG87zan4ZO5Dm1OqbrTz+dTf/ZtZFSD+6m83xuNxitVeMW9Lsu/akHH8sza3t5vvKpZd9RQcEZs5ciPwhcQgACeAkSvR+0btySpg0aR7EmX3m38gmLf/Feuoxj+/V2wETtLVkIf99lAHWrZ27jdi4/3T6xYhYdzDpkojZkBYFLCUAAL2Wi7ZNkPr42te/lFBqi7qUsszCfXtu6nNL4ic+q1rVFe/pjj6HUgD3RqJo4Y/wKrxKvTN+iegnygcAlBELbTUqZesmn+CDgBEbwaY4n+4ykEN4Pp2JlLADv8BPfa6tm04nTJ1UuCdo8J87k0A97d1AJb+juwqvIKgxEnsH8BJlXI4R280oxDAQ8IQAB9ISaj6+Z0G0g/YH396naHhaMh5Z+Q9t5VfTChfOqlwV1vgs8X/nj8YO06NgB6tEgiRIU9zr25rwXIqJoR+aBoO4fGhecBCCAmsdlVKc+dB8LoKr9Z9dmem3lLCqyqVupouJCmscr1yEsgKruu8QcojgauPlohipG5AOBCgIQQI03wqB2PejhnsOUWnCWT2w8vXYeLdm5yWcbl5Uq1pBJPNVu58WcLbziO4QXhcIVzjq3r12f4lgEN/F+RxgIqBJQn21XLRH5lAiIif/Heg1XyisWOu6Y/zml8r4+J9lOdo5wJ/f7aEGeUrevYMcQt/AiEgwEVAlAAFVJ+TBfA57of67f6ApPKEbFin1vf5j/WcWRNaO8dkwXR/XunzeDNp44qtS9a9p0oWsVn6qVCkQmWxOAAAZ4eIX/vpd4k7PKsbDt2cfp4QVfULFN5/tU0Z9jpwzPL/malhzdp3TJbzv0pBEdeyvlRSZnE4AABnD8Q3gu61kWv/rsRcXIhPg9vfhLKuVNvzCqcJ8/ffn3JI7DqdiDPQaTmGaAgYCMAARQRsfHaZP4j1JlZVMcZ3t26Uw+81rq4xZYuzixOPLumjn0372phh0R/gXFNEOiBcIDGHYGGfxGAALoN7QXF9yiYXP6bfvkiz908duh/DP0xJKv8OTngk3lR/9ev5C+U/ATKKYZXho2kcS0AwwEXBGAALqi4uPPIiKj6bmBYwwXPQrYA/Ljy76lEvbZB5MTeI+3BM3nVWIjq1czhp4ecgXVMHG80KhMpNuHAAQwAGN5G293qVszWlrTeQ4O9AQfa8vNOyXNh8SfCIhgSn9bPZuEw1QjExulf52stt/SqCyk24sABNDP49m8YTMarzAZ/8a2VbSPj4HB1Alc4PPQ/48XRsRWISO7kWOodPTQt6JR2Ui3LgEIoB/HTriIf5QdHBjZmuOHaOGPG4yyId0FARE46Ykl31D22UIXqRd/9FTfUVQT84EXQ3H4bxBAP94AKZ16G3o/PsN73ETMC5jnBIqK8ujx5T9QmYED2FrslfqPHFsFBgKVBCCAlSR8/D2CD/Pf0qGXYakvsov3sw7f6GwISSFDZvYxennzMsOcgzg2Se/WXQzzIYMzCCAusJ/G+erO/QwDGS3jA/8/Kqxk+qmJtit29e5t9F3dRjSxZUdp3x5MHkK3Ht3Pq+3Gr82uCoqOjqO6sbUokuO2hIf99CeUy6FE89mTTSH/MztfXubqMnwWhAQggH4YlOjoeLqubTdpycW8yfnvGxZL8yDRPIF/MtOe9RtTEguUO4vnV+Hb+Lzw33kVWcUa1EmknuyVRjhgbZ9Qj6JY+NyZcFS7k4NQbTl5jDbx3O5+/grW2Czu+uCkzyGAfhjtq3juLzw0VFryP9LWU2GhmpcTaUFIvIiAiBg3dfVcenfUZGlogXG8Mv/Nnm107KRrJwsipOcADlFwPbssMxPFLoz3G3bl0yfiS5xJFiE9Z+5Lo9n8dIpAThcNVVD8An+APh4GEf7xqQEpUh92J/lV6XXe82cXb84+Ruh1cQUcRL2IV+B7cWB2mbViH4ILqx2rE+e1hZPaF/nM9oik1lQrsqasCMO0SG5Hd45+d3Xb7hQVU4vST2VRGcJ6GnILVAYsgviY9DAOZC57RRLVvbtjLZVjnsjH5C8u7geOl3KQjxXKrHOdBtSl+f8cJohwnW9PuIUe4PAE0ZLXXFmZ7tJEoKtJHBf5wwk30xCFI5HuysHnviUAAfQhzxocoOcGfmWS2ZGCXFrHAYBg/iUgFiJeXr/IsJK7ug4gsV/zmuSh9Mbwq6lJbLzhNd5kiOFwp4/yyaAnL5tEkXxMD6aXAATQh/xb8xYLo9COH3MYR7z6+hC6pCgRN3iuQbjQFvG16b0rbqVbOCpfIG0AnxB6K+V6qlu7QSCrRV3VCEAAqwHx5teUlp2kl4sJ8TUc8AcWOAIf8hFDow3SiSbiEfuy5Q1j4ujty6+lJI5sB9NDAALoI+5i1XBkUitpaZ/v3Q4ff1JCvk8UK6+f7TH2H2im5iLewpTOsZgXHcmgmRlpFU5axXHGE0UFZoqpyCvmGl8bfhU1hQiaZueLC7ANxhcUuYxuTdsYurlfzH8ssMATmJm2jq7lWCEqYQjctS6XPXMLsVvLbvmP8h4/d9MYYg9oMv8jnMBvA13rJror7qLPa7IIvjLsSrqHwx+IGCiwwBGAAPqI9ZDG8qe/bdmZlJd/2ke1oRgzBIR/xa9ZvK5r193MZRV5hfC9yyvKq3i7jIqHbnEuedXurRVfTeo3obvYC3gyb8w2slheHHmFnwTvnvMxiRgosMAQwCuwDziL1d8BjZpJS/p+/4/SdCT6l8BMjqdczqc0zNhCfsX93Q//puUcjF5F/KqXfZQ3WT+94HN6bt0CEid/jEzMRT40aJxRNqT7kAAE0AcwG/FGV/Ef3J0J551bDme4S8bnASBQWJhLS/nstYqJ8Xp183J6bfl3PvHOvYEXvm6fO4PEFigjG8irw8P4BAksMAQggD7g3JO3v8jsR54w9/TgvaxcpJkj8H21Ux+urhZneZ/gwEtLd21ylezxZ8LT9wMc33nPGWPnrfd3G0ixsQke14UL1QlAANVZuc3ZjZ8AZbZC8clDVgbSvCeQkXmAsgxWaqdtXEypB9K9r8xFCWIu8rHFX9HhfPmToFgUubMXXPi7QOjzjyCAPkDahY9UyWxz5kFZMtICREC82n4g8bz9L54n3KDwlOhNc8WbwBP8am00JziiSSvsD/QGtOK1EEBFUO6yiVcV4V7JnYlgR1nsHgkWHATECu0n6VsvaYz47Kstyy/53B8fnM7Nppc2LTUs+g4+kwzzLwFsg/GSb9M69aUliDkfT1YQpYUi0SsCn25aQvN4YaJz4k8nMNKyjgR8/91Grn9ls3Y0WDJ/LPwaNqrXmIS3a5h/COAJ0EuuDdnFkcx2sPsjWPAREBuOV/C5bPGla/Px3zcu5WN68q05v+4U2DPKwTdS/m0RBNBLvo1j5N5DDmHzs5eE7Xt5Xv6pig3ash4O5w32kQYxpWXXI01OAAIo52OY2tjAfdJx3n8GAwF3BL7iRRnZBm3hYbp/iw7uLsfnXhKAAHoJsGFUnLSEkwVwey8F5PBEsUF7icE2qTHNIYD+uk0ggF6SlZ0AEUUX8t4vGAjICHzHXoJkJrZZwXmqjJDnaRBAz9lVXBkV7j5CmMhQqnAG1Msm4HKLE9jP+0TPSBwg1KhRg7o1aWnxXgZn8yGAXo5LFLtTl1kZBFCGB2lMQGzQXnRkn5RFMvwFSvl4mggB9JTcz9fVNBBABMn2ErBDLl+XKXfU0Jtda8F8TwAC6CVT8XoCAwFvCezlzdjiSdCdid0GmAd0R8fzzyGAnrPDlSDgMwLCCapRGM+GCXV9Vh8K+okABBB3AggECYG0U/Iz481qQQB9PVQQQF8TRXkg4CGBPQbxQPrzueHEug0pIjLKwxpwWXUC8iXM6rnx+y8EwtgDdFcOhAQDAV8ROMoR7GQ2rHFLEl/CCkpLKDUni3bkHKed2cdp34nDVFZ6TnY50lwQgAC6gOLuI7Hg0ZbPZo7liF/DmrTwKsqYuzrwuXMJnDRwlFqVTCyHYRXB1cWXMOFUYQt7jVl+dD+t42DwIjgTzJgABNCYEYWzv7/BrbvQ9W27k9HZX4XikAUEXBLILy50+bnKh+LMcB/eKyi+LnAkuvUnjtAsDsS1lcUQW7HcE4QAumdDItj5mI696Kb2yRQjCXrkrgjZIXd31+Bz5xI4V1JEwoFuiJdbq8SbSr/EphVfp5KH0gx29rqIHcGWcohP2MUEIIAX86j4TYS5HMaid0eXvlJvzy4uveij/XCFdREP/CInIPYBZuSeorY+3O5ShxdM7us2gG7v1Jv+w74PZ6Wx95kyzBVWjgRWgStJ/Py9IXvgfXXMb+ihnkO9Ej9R3IeS+BPVqsWvIFBBYMbuLX4hIQIt3dG5L30w8Vbq37YbYQP/T5hD201KmeoX4hYrVDz1XZM8hJ7uN4rqRcV41XrxGvNW6hpaya8dMBAwQ+AY7wUsCAmlHhxp0NtXYVf1RrMQDuWAS514S83GE0epxOGvxTXGfzLd/fkbVwRt+FkMe3V+ctB46lavoce9KztfThv4hlrJvt02chB04ecNBgKeEhD3ZHuOWRIfEUXi6a0ee4VuxMfhWsfXoaRYeRgG1TpLysvo9W2raPmuzaqX2C6f4wVQBJ15ZdhESvBgc6nYerAi8wDNPbCTdvH2AwQ/st3fR1B2KDQsghqzj8CuvNDRl79E8CRvnhYXHNpLb66d68j719EC2J43Mr84cCxFGnh0qf5XcLwwn2bw6+3KfWkkznDCQEAnAXEypFtSaxrLrvPF6q8ntvtMNj2z/HsqMNiM7UnZwXyNYwWwS/P2FeJn5j/nofwz9A7P7aXy3qoLF+TRvIJ50NE2+xKIi6tNKW260mT+Mrt1K4e9l09Z9BWJuMVOMUcKYBs+zfHq0CtIbB5VMeGt963ta2jt3lQInwow5NFOQGzeT+nQk27k7VxGYRuqNlbc6w8s/ppyTssdM1S9xso/O04AxWHyt0dNVj7GNoef9t7buIRfdRHbw8o3ulPbLl6Pf8uboa9q1UkZQR6vDN+38Ett8ZKVG+qDjGqPQD6oKBiKEPFVXxxyhZL4FbMr+8dXz6a3Vs2C+AXD4KENHhEQc9Tvr51Hdyz4gg7knVYqI56fHl8adqUj4hE7RgDFxs/HBo+nxOhYw5vgMB9Kv2PeZ5R6IN0wLzKAgBUIHDt5lB6YO4NmK97TjWLi6OmhEymE9yTa2RwjgEN5LkQcFDeyPWdyaMqCzx01EWzEBOn2ICCOwP2d32pe3Li44syxUa/EZuyb+4w0ymbpdEcIYGxsAt3fbaDhQKWfzqZHFn5BJWc998phWAkygIBmAqt3b6NHeWpHbN43skmtO1Prn30QGuW1YrojBPCe3iMqdtPLBuhEUQE9tXQmPGbIICHNNgR2HtpDU5Z+S+I0iJE92XdUhUs4o3xWTLe9ACbxa+/Qxi2kY1NaXk6PLPuWiosLpPmQCAJ2InDg+EF6hhdIjKwBz5vfxCvJdjTbC+Dd7BzSyF7btpKyHbLvyYgF0p1FII23eb3Je1yNTGyjSahVzyib5dJtLYDi6a87T+TKbD3HY13m4MPgMjZIcwaBuTvW0sIje6WdFSembuluPI8uLSQIE20tgJPaJUuRC7dVb25aKs2DRBBwAoG31y8msQFaZqP4vHGDOomyLJZLs60ARkfH0cimraUD8nVGmiN2u0shIBEEmIDY+fDq5uWGLK7t2Nswj5Uy2FYA+7GzA5mjA/H09yU8NlvpXkVb/UxgM3s3Ek5SZTaKHyrsFJfYtgI4ulk72TjSInZa6jTXP1IgSAQBJvAPdpAqszA+GdK/ZUdZFkul2VIAhTfdrnXlcxXf7N1mqYFCY0EgEATEkTmjp8BfcYhYu5gtBbDTz8Gi3Q2S8Ht2KOuwu2R8DgKOJvC5QWCmNrXqUi12zW8Hs6UAJhuc+V3Au+BFCEIYCIDApQR2HcmgXIMV4WSbHI+zpQD2NRDADVmHLh11fAICIFBB4ALHupl3cI+URl+DtyzpxUGUaDsBjIiMpobsysediSe/fbz5GQYCIOCewJpj+9wnckrP+o1sEVvYdgLYoJZ8bmIfO4UsNXi8l448EkHAAQT28Rx5OT8JurPY8EiK5/gjVjfbCWCzhLrSMRHRr2AgAAJyAiLEq9HfSlJt658Ntp8AGvxXynBQxCv5LY5UEJAT2J5zXJqhebz8YUN6cZAk2k4A69WMkaI9wqEtYSAAAsYEDuSdkmZqwvttrW62E8D6BjE/zhTD27PVb1q0PzAEjubLgyg1jrW+AIYFBmXgaqnPkd9klgcBlOHxW1rHZm2pd2KzivI38jYk4ZEYFtwEcovloWBrc8hNq5vtBDAmPEI6JmexAizl4+tEEVXsEQ6xOLhR81+K/nXbbiT8ML7EcSlK+FQOLDgJFBqMjR0E0HavwJGh8jB+5ez+HhY4AmM7971I/Cpr7puYRG+l3ED1beZfrrJ/dvheWloi7UZUWLg03QqJ9hPAEPlD7fnzxkFgrDBwVmnjxJad3DZVbFh/9/JrqYeNvIu47awFE84bRI2LCLG+fMjVwoKD9sjKH6StFsd8YIEj0FhyKke0IiI0jF4YMIb+XbsBfbllOc5oB25oDGsy+lsJqQEBNIQY6Ax7jsqP8AS6PU6vrwbHklCxmzv0pHYJ9ejllbNwUkcFWADyiPlbmZUaPCHKrg2WNOtLeLCQRDu8JjCAD9j/bcwNVCehvtdloQDvCYQYzKerxBT2vhX+LQEC6F++KN0kgaTYWvTu6F9T5+Zyj94mi0V2DwiE8vSEzM7hCVCGB2kg4BkBsbr40qDxdGX3QZ4VgKt8QiDKYJ9fYWmpT+rRWQieAHXSR91SAr/nLTQPD7+KwtjzCCzwBGINBFB4Vre6QQCtPoI2b/8w9jz8Wsr17ILd+gfvrTZUtaLkp6pyDE6KWKG/EEArjJLD29givja9m3IdtW3SyuEkAtv9JrEJ0gpzOJaw1Q0CaPURtHj7jWJPVHYvlo84Th86kcZ06V/5Eb77mUAzA9dyxwrz/NwC/xcPAfQ/Y9QgIXDHnBmGjjcrLxd7Cu/rNoCmDL2CQm1wDKuyX8H6vbWBd/XDBu6ygrVfVdsFAaxKAz8HnEBhYS49PP8zmm/CO8yopDb0F54XjDV4RQt4Z2xUodgE3cFgP2ZWnvV9a0IAbXTTWrUrwv36G3yE8Y1tq5SPwonYtP8Ycz21aPg/LzNW7X8wtrte7foULtkIfa68jPILrC+A8p2OwTgyBm16bMSvDHJYJ/kQe6+esXGxtMGPDL+aQhSPm32ZvpX2GkT7euKySaR2eE3aLI8S56etp32nT9ILg8aSCLpjZPERNemNEVfTa1tX0uKdG42yI90EgS4GoWV3nDrB/6ysf67edgJY1e+cifEOyqw7+A98hkHLBvHxsVBFrxzLj2bQXoPy+ic2VRZUg6I8St57bD/dMfdTmsY+BFvy6q+RCfF/MHkIdWBnCu+sm0/n+ckE5j2BQY1bSAvZlp0pTbdKIl6BrTJSbtqp6mzAzeWXfKzr6a9qQ/LYFfsf582gpSYcW4xr0Z5eHn0dxdggTkVVFjp+FhvPe9VvIq069cRRabpVEiGAVhkpN+0Ugd59ab4tzfOWlZWeo1eXfUvv7linXEgHnrd6h50pJBm8vikX6NCMyRy+IEzyVlHGLuX2nThsCzoQQIsPo5WfAMVEupF9v301PcwLJEW8UKJiwk37WzyPObh9skp25HFBYLzEia3IvuHEERL/oOxgEEA7jKJF+5DKE+kqJgIo3TnvMzqcn6uSvWJO9LFew+m2fqPJyKedUoEOyiRckfVuIH/9XWZiaiLY0UEAg32EbNq+8/zq/k9+ulO10xzQ/g88L7j6+CHVS+jq1p1pGrvcj4qKVb7G6RmvNnhyFq+/Gw6m2wYTBNA2Q2mdjmQVFVS81h7KMjePVMoR/f685Gv6cOcm5c52rduQ3h57AzWq11j5GqdmFBvLrzCIz7I884CtIvnVGP/J9GCZ9/bJfWenG72E571OnTkp5WKmv6cKcvnmlR9gT6zbSFqft4klZecol49Qebt4061FB3q23+UUaeC0s7K9Zey888WNS2j93tTKj/C9GoF7Bo4jsZousylLvzXcSyq7PtjSbCeAwQYY7fEfgXq89+/P7CChkUHgpaot+HzPdvp40xIyCvhT9Ron/CxWzt8ZNVna1f15p+n+Hz6U5rFaIl6BrTZiaO8vBLJPn6B7535SsSr5y4cGP4ig7FNHTqbImnJfdwbF2Co5hJ+iH+s7yrBPH+7cYJjHahkggFYbMbT3IgLnSorp+UVf0Yzd2y76XPZLr/qNEZS9CqDf9BxGwueizA7ysczN+3fKslgyLbTdpJSplmx5EDda/Ecd1K47Te7SjwbyXFUYP20c4TOu3s57BXGXNTftAqXyEbrdvLgyqFELpaOBsRGRNI4n/NOL8un4mWzN7ddXfXdm8AeF2CsvrF9A2bk5+hrqp5ohgD4GK+alXuKNuBP4xhJnWcXXYD5X2Z1duy8+kM5zT+U+rhHFVRI4xq/ES3mbzMAmLSmGHagamThDfVnTNnSivJz2nTxmlN126WIB7ZUh7FtRcupDdHp91hH6ih1O2NHwCuzDUR3Ce6je4/Oorl4nOtVpQNd0G+jD2lCUKwJZOZl015xPaKuJw/riCSihVj1Xxdn2M/GPejoHnJK5vBKdF7F//7pugW05QAB9MLQRfPxKRC97lE8fyG6o0XzGEuZ/AmKrzzML/0tf7t2hVJnwKNO/aWulvHbIJLY6vT5yEsXxNICRvc4+Gu3g989dPyGA7sgoft5UbB8YeyOJ6GVGlhiNEwlGjHyVfp6nGuZkpCqfIY5R8D/oq7bpLKcDv/K/xeJXi12tGdliPvK2fNdmo2yWTredP8BAjYZwQjCh6wASsWtVHZIGqm2oh6gXH4N7qvdI6RN5VU67Th2v+qvtfq5RI4Qm8hTM7zv3UeqbOHf9xuq5SnmtnAkC6MHoRUfH02Pstbgnb6eABRcB8Yd+PU9F3MCr8KqWxk4Zfjxk5CpWtbTgy5fA4QMe7Z9CXesmKjXuDG8temTpTPb4UqKU38qZIIAmR68jz+M90/dypfkTk0Uju5cExFzs40MmUB8T/gA38ervtOXf2cK9e3V8wrHpFfyGcnOHnlL/flWvE27H/o+Pu+WzU1onGARQcZTF3j6xYVScJIAFHwEci/vfmISGRdBwfgK+tWMvSuB/CqpWyD7+piyZSWIl3SkGAVQYabFF4tlB46htQl2F3MgSaAJdebP5VJOOEf7MjhHW2cwxgvDlN65N14o9qCKQvBnLOVtEDy/9hk6cyjJzmeXzQgANhrAf31CP8JySqtcRg+KQ7EMCYiHqVz2GVDzpqBYr/tAfW/49ZWbbY+OzEL2+Sa1pJH915L2mnthePuHxJItfYWGeJ5db+hoIoJvhE/Mn9/BTBfbuuQGk+eNw3sbxED+VD2qkHhc4Nec4Pc/iV1xcoLn1nlUfHR1H9flkUSuOfdKdF+B6cuCiOiZecV3V+v3+XfT+hoUkYjM70SCALkZdHBF6nv+4zLhZKuXjVH/ZuoKEK3aZvcp7Bp1sBTzPtJaPqy1M3+xxXAkxJSHcYDWNq6WM8pt9P9IH6xeS2B/oS/P3eIbyqnY8b1iuy+fJZYGKzPYp/1wJvbx5KW1hLk42CGC10R/Nq2b38v4+o/ORVS8TftKeXTnrJ+elBgIoIpc53UTMifE8b/fg/M9IeHk2Y2IV/jne0hEdFq50WTm7cH91y3Jakb5FKb/ZTFYcz/kcY+W9TUst+yRsdoxk+SGAP9OpyXEjHh44hvpxYHAz9nVGGv2bHWw69RXCDKuqeYWTiOu7D6b/8OuXqk3gjbx3sYcdVTvN+9meWPEDHeYoZjCinbzf8c0tK+hg1iHg+JkABJBBtOZjbFMHpJAIqahq4lVuGv/xprKHF5hnBEY1a6MkgGG8ovnAwLE0okkr5Yp2sfuxZ3l/nxMn9qtDSmcWH/y4ntIO7q6e5PjfHS2AImTiZF5FvKlDsqkbQUymv7ByNv9x5V5ynfCegRXjS7C4/EBlAj8+rjZNG3ZlhVsxl4W4+HA2/1N6d918KleIO+ziclt8JKLuLWUfiV+nb6UDxw/aok/+6IRjBTCO/7Ce5oUO4aZK1YRD039xRLKZ7CHjwoXzLi/bzCcLBjRs5jINH5ojIJ7Mp/GRw1hFRwXij154L1n0o/1ct6uS25GTRfMO7aa1B3Zhjk8BmiMFMLlVJ3q892XKE+mCo9g/9iwfDjf6b/r+ttV8FKsJr9iFKuBHFncExGLU/TznJ/b6qZhY1Xxi9Wzaf+yASnbb5MnlRaQNJ47SKvbcksp9P2vRLT66BsRRAiiOCN3eZyTHPu1giveqzIM0fc1cpXio4hjRfYu/pv9jgcXJEVOYKzKH8uruPbzKm2LCd6LYyPvUsu+ooOCM+QotcoXYZnWM3feL2Bz7uL97OVzq/pwTHGLUfm7qAzkkjgmLWb9OIj3Hr7zN4hKU+ZbxFoo3+JVq8c6NytdUzSgij0Ww6DrZPp14q7T7E2b89Zf0mJha9KdhE6ldgrp35oVHMuhvq+doW4WP42Di/rTzPNVSwk+3TvDM4k+O7sp2xBPg8A69aEqPQaZeS4U/tGdXzfLqbGQJvzaXUJE79vi8CoHmic3oxSHjlRx1isvEfOzbO9bR7NQ1VUoJ/I929pYceJqBr9HWAhgRGU1TeHvLUA5KZMZm8Srie7zFpYy3usD8T2AYu2t6kFfjVTefC68lT/N87O6jGf5vHGqwNQHbCqB4onhu0BiqVzNGeQCL+Tyk8BKyeV+a8jXI6B2BOweMNTUne4BP3TzJ53kx9+Udd1z9EwHbCWCl6+/bO/VWXkEUKMTG2ed5b19e/incGwEkYGZBajmvck5fNRvzYQEcH7tXZSsBFJPoT/C+se71Gpkat495s+gXfF7U1wflTTUCmaUE3ue9fd/YNDattONI9CsB2whg5+bt6Om+o5Q3zQqqIvbB1DXzae+xfX6FjMI9JyCmJabyqQ4c4/KcIa50T8AWAngde2C5kYOSmzER7f4V3j5hVd9wZvpq1bxHC/LocT7Pe4r3vMFAwB8ELC+AA9p2NyV+wj3S2zvW0ry09RVbKfwBFWV6T2Bt1mF6iT25mHWX5X3NKMFJBCwvgNe166E8XpmF+fQMT6LbxR26csctlvGjXVt4TnYZ/kFZbNys2FzLC2DT2Hgl7mXsCVi8TmWfPqGUH5kCT+Ace295nr02b92/M/CVo0ZHEgixeq8P8zyRignnBG+OmkzdW3ZUyY48ASZwnJ/O71zwBcQvwNydXp3lBfDT3equzkWowGkDxtA9A8eRCHoE8z+BgtISw0pEcPJ7582gkw4LyWgIBhn8TsDyArh2z3YSc0ZmbFyL9vT2uJuoCUfVgvmXgHDVJLPPefymLvqvkqcdWTlIAwFPCIS2m5Qy1ZMLg+matMwDtOlMNvVjR6Q1FYPlxHGkrfHsF7AoNJR2V/yRXgimLtmmLem5pyiFpx3Cq/lHFHOyL2xYTHN4RZ5XO2zTX3TEWgRsIYACeU7eKZrNXnCTOOpa09haSqMgnG32Yuel3djz8HoOnFNiMkKZUiUOz1TMHnGW8BG2xvF1KsKMCqnbePIoPcPHDvewE08YCOgkYEt/gMK7yBSOOBbOT3eqJk4cvLx5GW3Ym6p6CfKZJCBisPABbTrv4FgdJpEhu58J2OYJsCqng9mZtICfLrrwHJ8IKK1i4hVtOEcdS6zdgDZz4G4nB9RR4eVJHuHDz10sFU/KwzUg4C0BWwqggCJevRawW6tyXu3tVq+hMqdW/Kp2Gc9ZbeM5xTMFl0Z9Uy4IGUEABIKegG0FUJAXTxs7Mg/QGg5j2ZcXSKIV3dPH8HaZcSyC5eE1aScfyRJPLjAQAAH7EbDlHKCrYYrgoOf39R9Nl5kIri3K2c1Pgn9aNYdO52a7KtblZ+ERNWk8+yMc0LA5e6fxb0yQe7//l8s2VH740aS7Kn9U+n7TV+8o5avMZLb8yuuC5bvZ/gZLu9EO3xCw/FE4VQzn2PXV9GXf0uq23eih5KHK22VEgJ5/jrme/sq+6FakG+83FIGQXh99HSUprkSrtt/TfLVZ+P1p/i7fn21H2SBg+Y3QZodQbJz+3ZwZlHZK/UxwRGgYPcoutx4f8SuKNHCx/xtefQ4W8TPLBvlBwGkEHCeAYoCF2/vH5n9Kwsuwmfm9QY2a0/vjb6J2TVq7vU8uS2rlNg0JIAACwUXAkQIohuAC+wUULtbvXvQlCTdZqiZe+aZz7Nqb2ft0KD8ZVrcEP79yVq8Pv4MACHhOwLECWInsCJ8AuXv2RzTn4O7Kj5S+T27TlV4feyOJgOswEAABaxJwvACKYStjjyVvcRD0p9bMpQITsYBbxNem93jBY1SnPqYi0FnzVkGrQcB+BCCAVcZUOOK8bfbHtIXdM6laWEgITekxmJ4dOZmio+NUL0M+EACBICDgmH2AZlgLJwkpnfvR3V36USgLnKrlnysh4WVGZtfMfE+WbDrtbHGB9BpX85SyC8weATRbvqxuHWlm+6ujjajTfwQuncX3X12WKVmsDM9lN01bMg/QVHae2jROzbuMkfgJAEaC5WtI/v4D93f5vuaB8kCgKgH1x5uqVznk5yw+QnffnI9oZkaaQ3qMboKAswhAAA3Gu5zdZP2TA3M/vPIHyoW/QANaSAYBaxGAACqO185De+j2WR+RiFcLAwEQsAcBCKCJcSzmBYcXeOP0X7asIOHSHQYCIGBtAhBAD8Zvyc6NdNu8zyiD413AQAAErEsAAujh2OVwgPU/zv2EPt29zcMScBkIgIBuAhBAL0ZAxLb4ZONiemDpN5TDHqiNDIsoRoSQDgKBJQAB9AHvjGP76fe8QLKMv8tsTeYhWTLSQAAEAkwAAugj4OdKiugVfhJ8kZ8IS1xEPRNPfx9uW+Wj2lAMCICALwjgJIgvKFYpYzXPCe7gJ70buw6gAY2aUViNEFrNUeY+4JXjwkIEWaqCCj+CgHYCOAusfQjQABAAAV0E8AqsizzqBQEQ0E4AAqh9CNAAEAABXQQggLrIo14QAAHtBCCA2ocADQABENBFAAKoizzqBQEQ0E4AAqh9CNAAEAABXQQggLrIo14QAAHtBCCA2ocADQABENBFAAKoizzqBQEQ0E4AAqh9CNAAEAABXQQggLrIo14QAAHtBCCA2ocADQABENBFAAKoizzqBQEQ0E4AAqh9CNAAEAABXQQggLrIo14QAAHtBCCA2ocADQABENBFAAKoizzqBQEQ0E4AAqh9CNAAEAABXQQggLrIo14QAAHtBCCA2ocADQABENBFAAKoizzqBQEQ0E4AAqh9CNAAEAABXQQggLrIo14QAAHtBCCA2ocADQABENBFAAKoizzqBQEQ0E4AAqh9CNAAEAABXQQggLrIo14QAAHtBCCA2ocADQABENBFAAKoizzqBQEQ0E4AAqh9CNAAEAABXQQggLrIo14QAAHtBCCA2ocADQABENBFAAKoizzqBQEQ0E4AAqh9CNAAEAABXQQggLrIo14QAAHtBCCA2ocADQABENBFAAKoizzqBQEQ0E4AAqh9CNAAEAABXQQggLrIo14QAAHtBCCA2ocADQABENBFAAKoizzqBQEQ0E4AAqh9CNAAEAABXQQggLrIo14QAAHtBCCA2ocADQABENBFAAKoizzqBQEQ0E4AAqh9CNAAEAABXQQggLrIo14QAAHtBCCA2ocADQABENBFAAKoizzqBQEQ0E4AAqh9CNAAEAABXQQggLrIo14QAAHtBCCA2ocADQABENBFAAKoizzqBQEQ0E4AAqh9CNAAEAABXQQggLrIo14QAAHtBCCA2ocADQABENBFAAKoizzqBQEQ0E4AAqh9CNAAEAABXQQggLrIo14QAAHtBCCA2ocADQABENBFAAKoizzqBQEQ0E4AAqh9CNAAEAABXQQggLrIo14QAAHtBCCA2ocADQABENBFAAKoizzqBQEQ0E4AAqh9CNAAEAABXQQggLrIo14QAAHtBP4/+npYd1TuRSAAAAAASUVORK5CYII=;fontStyle=1" parent="1" vertex="1">
          <mxGeometry x="760" y="-547.5" width="70" height="70" as="geometry" />
        </mxCell>
        <mxCell id="wKkd2Ftk299Nv-PwKDOf-13" value="S3 Bucket" style="shape=image;verticalLabelPosition=bottom;labelBackgroundColor=default;verticalAlign=top;aspect=fixed;imageAspect=0;image=data:image/png,iVBORw0KGgoAAAANSUhEUgAAAMAAAADACAYAAABS3GwHAAABdWlDQ1BrQ0dDb2xvclNwYWNlRGlzcGxheVAzAAAokXWQvUvDUBTFT6tS0DqIDh0cMolD1NIKdnFoKxRFMFQFq1OafgltfCQpUnETVyn4H1jBWXCwiFRwcXAQRAcR3Zw6KbhoeN6XVNoi3sfl/Ticc7lcwBtQGSv2AijplpFMxKS11Lrke4OHnlOqZrKooiwK/v276/PR9d5PiFlNu3YQ2U9cl84ul3aeAlN//V3Vn8maGv3f1EGNGRbgkYmVbYsJ3iUeMWgp4qrgvMvHgtMunzuelWSc+JZY0gpqhrhJLKc79HwHl4plrbWD2N6f1VeXxRzqUcxhEyYYilBRgQQF4X/8044/ji1yV2BQLo8CLMpESRETssTz0KFhEjJxCEHqkLhz634PrfvJbW3vFZhtcM4v2tpCAzidoZPV29p4BBgaAG7qTDVUR+qh9uZywPsJMJgChu8os2HmwiF3e38M6Hvh/GMM8B0CdpXzryPO7RqFn4Er/QcXKWq8UwZBywAAADhlWElmTU0AKgAAAAgAAYdpAAQAAAABAAAAGgAAAAAAAqACAAQAAAABAAAAwKADAAQAAAABAAAAwAAAAABu8xvwAAArA0lEQVR4Ae19CZxVxZV3Vd33Xi+szb7a3bgiiEIviho1iTOKyZgV45hEmkbFZXS+JG6DCpcmOC6JcfSLDgo0mMxMlETNJEH93EDjQi9AQFCJQLPIvkM3dL97q75/Pbqh6X637lvufe91d9WP5r1XdWv733OqTp06dYoQHTQCGgGNgEZAI6AR0AhoBDQCGgGNgEZAI6AR0AhoBDQCGgGNgEZAI6AR6KwI0M7aMa/6dcucomD/7NCALMEHcWEPRLmDGKcDeID0Ypz05JT0ZIL0EoT0JPhOCO1BhcjC9wC+B4UQQYAcRHpQxuG7LQgNEyEsfA+jvLCgJEwRh2eP4PchKsghxMnPg5zh0+aHCGV7ELeTCLLDYnznsd3hHb+4Z1W9V/3squV0eQZ4eGFpX0vQAk7tQmqRQspoAYisEMSWD3AG4TMPxJmROIGp6sFsO/C5FQRcR5jYKATbSIioC3Oycfbm6i+JSXhXJe5Y+p2RLzaWhsf5DDUrL8gnJHAu5WQUiPxcEM25IOtzMEpj1O6cATOKnGHW4yWvEYytpdxeyxlfu/fgoc+fvuuLxs7Z6/h61ekYYOJEYoz65rhRhLNiRkgJxI0iDODnoqPd4oOm8z4tiLDRu/WY6VYwSqoFJzVHRGj5Y1M+ONx5ex29Zx2eAczKkkGQlS/HiD6eGrQEL3UsOpUTvbs61hEBATag4nMITNWUkSrbIkvNm2rW4HlA23lDh2OAaXOKBmeH6OWQda+ghriCCHp25309ae/ZHizWl2INtLSJ2EtmTa79BC3qVAyR8Qxw51NnZPXr0fsyQdkELPgmUEoht+uQJgT2gPrfpFQsDtjWG9PKV+xOUzs8qzYjGeC+OUW9uoXINyhj3xaCTkBvu3vWY12QNwhAZAIzfATx89Umxl/5eVntem8KTm0pGcMA0LfnDgvRawlh12ORdjVG+qzUQhG9NrzkowBpB9Sh2ykROyAj74B2ZT+YE7p6fhBapYPQMx7CYvIgt8hBKyCOBhpJuAn6/RD+juJvP/5Qevi5qbXWFeYVxtieXwStwNDg4F4iKJoaAmHCghb2CQKBYBZhtCfK7CUY6YW6ehrYY+CC4bfohbQB2BMYDBl9EBb3gyCa5EVvdepjMTsv51z8ronS380ur96S+hYkVmPaGcCcV3Qp1JJlUEdeB6LvkVg3Es8FAt8LOXcDPtcTTjdQg2yA1mhD2LK3hS2x49GptQcTL93fnFI87JnbY1DQoIMZYQWEkRFYyo4AY5wuKB0BohyGvkAZlsJwfGZ4F5t+lQf2bX/5Vz/dijEgc0NaGODeeZf06GE03sgFvQ1EPyoV8IDAN2MEX4Wd20+wcP6U2GTt3nq67um7lh1KRf3pqGOiOSp09vCcwgATI5nc++D0XLRjDP7OAe5Bv9uEmXw/RNhKYlvPmjct/8Lv+hIpP6UM8MDC8UNDxP5XjExT/dyAgoiyAWBUQz6t4VTUHDva+LdHbl8NSUQHiYBkjFH5udgIpEVU8GLMFsXQ7ZzvF1OAEQQV9H8J5Y9PL6v5IJPeQkoY4IH5JcOzqJgGe5ZydB6isZdBWEKQ5ZCPl9o2/4A1Nn1k3rZql5c1dIWyfvLEsJy8vCHFWHtcDKK4DDR7qR+DFAan98AQM8zJNUsyAVdfGeD+Z87Ly87NeQhC6B3orGeED3HmE/y9SQR/a1fD0feeuWONNCLTwUMEIjvqV5eOZURcCaa4EkVfihnCM8UEGOFti9OfzZpS9TcPmx13UX4xAMXidipjbDYWYX3iblXbDEIcw6LqLWhb/gQjr9c6kpahbVc66u+7Hx/TrXv/0NdhCfsNaMSuBTMMSrovkd1nMp9bDfeZN63Zl3R5CRTgOQM8OK/47GCAzYf8fXEC7TmZRYgG6C/+YhPx0pFdTa9p09+T0GTAN1oxb+xF3AhOhGIBf3RYMm3CbL6LcHHXjPLqF5MpJ5G8njLAzIXFUymnT2DUz02kMZA75ebK2yD8Fw7tanxFE31CKKY6EzUXlHwFYu6PUfF1yawbMLP8pt4K3pFKozxPGOC4uULeHEyLkxJCX4gvQfnzSJjPM6fWbk6oDJ0p7QjIzcyhBplIAsZUENb4xBrEP+UWvzZVatOkGeDOpy7s2a+n+AsKgtYgvgDtzTKM+r96d3O3Pywxl1jx5dZPZzICFQsuLILuU6q8/xmzAk7HxR7k/gHlfML08tplsedK7MmkGCBC/D34Oxj5i+KqnpJ3OOezMkUVFlfb9cNxISBV4EFG7wUj3BynFgmaPX613/sGCTOAPCs7LNt4HRsoX4sVEai+qsHd92rCjxWxzvOc+fyYYSyUPROL3bJYzTPkTIBl4cXm5NrP/EIiYQbAwudxRujdsTQsssq37Htn3FT7Ap7HTx26KgIPzSs9PxAgz8SqJcSgufbA/u3FftkUJcQAFQuKL4E14vtQf7nmRwdexBR4x7RJVXu76kvX/W6HAJ21sOQuGO49AhLKbpfaJgIKkifMyVU/axPtyU9XAo5Wy8zK0o9B+hdGS2uJA+FLdx//YpZVP9cSpz81Aq0RMBeOG0O58QrWBiNax7f9HqElQc4xy6uljZengcVbmjm/5GI34odmpwE7txM08ceLbtd63py0fFVQWBdB1l+h6jkYBD6VqDSn8TzEzQAwOoNaSxHkZhYT359RVv224imdpBGIICCPVYpG/o/4sVEFCXacb1ClJ5oWNwPgPOhXVJVxSp+ZManmNdUzOk0j0BoBbH7ugXZocuu4tt8xCwx6cEHR6W3jk/0dPwNwkq+qFF7WnlKl6zSNQDQEppdXL4XwsCpaWktcUJ568zjEzQDQYXZTtSHcZGlbfBVAOs0RAUoNJe1graCkPceCFQlxMwDO725TlEdyg+y7qnSdphGIhoD57JgBON+htCBmxPgyWt5k4uJmACxxv1BWyEjF7OdHD1Q+oxM1Am0QoDnZT0LTo7QibmhoSL8aFDt4Sv8v0jacB3Jel16X2/RR/9QIREXArCz9JTak3LSLB/w41x33DAA1qJIBZA9xyPoCS5Dqh+YWj43aYx2pEQAC0piyYn7Jy/Cp9FM3QLD2dKU7tzKipcfNAJzyWKehwoBBP0IHH5TnBaJVruO6LgI4PDWhf0+xEgPqd2JBgTH4a/IhxM0Adjh2ToyYvzI6q3+PvNXT5xd/y4f26yI7GALyyGxFZemrVLDFaHphrM23fZoB4jqoIBtrGBZ27OJ08EDpmQFKX51VWbIcHZltTq5+BUVhVtOhqyBgzi0eTQNsGl47jk0SI95+w12kLzNAYsZwC0r3IGPii1z4oUf+Z+vrj73gx8ImXnD18/4gIF2rjLym5BqMsrfDMPKqWKyHnVrCufV1s3z5O07picbHPQNEKpKe1yhNnAHg0x/D/5O5OdmPVMwvfokTvtDcvHwJ0fdZJfoeMyqf+VzpWSQgfojF7WTQyXDZuIRG2ta9in3t2TqX6/fEGIBEpqMS19LdHpC24JTeCMeuN87ML9lBFopFULO+OL2u5iPNDG7gZVY67mArYDR0HXZrrwexQ/uXNMmf6KA0h16zeOWWExEefkmIAeBkdT28KHsapLET9Kd3otA7ZxaU7qLz+es4dLNY0PAb5uSVBzytTBeWNAJw8x742mn1l3AiroGr+GtA7qNloRBzki67XQGUblq0CO6MfQgJMUDEhbgPjWkpEhAOIIzdiE/8Ba2ZC0urhEWWUMaXfNkkPoCf/YaWZ/VnihAwCTPzS8YYDPexcfpVQeqvwOzdC8difW8AHPj6sgCWDU+IAWC1t17pdp6STTjG9ifpBTpymCEpiGgAYtHFYDrYibBpQ0MiPHNBaQ2m2g9wqduycNiunn3Tik1JVaEzt0MAIk1vnEMpwiUdpXBUdjF0dpeC4HvDlU1EuvFqpId48x5YaDfK/l67RjRHYGN1vVNasvEJMQBpwiJYsbUFkPqZZVV3wn77yZBgD2KQ+BFQS6yuNj1sZqjxeAHjITKRrAAjMytLdsNIDx4naK0g9irLIqs/f73mC7+mzTZN6vA/zXljh1BmjGKUjrEpHce4KAG0ZwBjiks3jgePB3oQ/sfgpZlQib9eUVlSqQLRLxWorDOxbmE6rCgoPYr8jhsCRrhh0AM3f7JTVhLxDWOQ2+Ej/mZUmLj2SBYWe2jCTPUZLoj+BDPIWpwo+jt8EX1BqL2hK64p5G583x69CmFyfDquWToThH02Lh4cjVl6tBzZY4c18Scxa9tgqlcwmzw1fXLV+y0lYQB7DwPbV1p+t/0EM353xqQquXfkeUhsVIa6UiwQdejMWU4tsllwBNIiDNDszfnf4IO+olffIT+kXNyKDhc55fUoPgQxbQyIX96IgoDBjMmVu0Ew4uzD6LMeM9VGRGxhQmwlBt3Gbb6NMHvrmk3hbYvMNU0yVwcJFBa4A+xgt2GW4EMMJobgSoph6PtwDDj56AOuTCLDIiO67BAEeRkiox8Geb8DRvsdqKyyiZNnZ5dXtdPmoAWSVhwDZvTMWgPIlgJc7AUQRwYggcDpeOyj1r067ttl61zEzX2osug8g7EbML1dD2YoaP2c79/hsh2g98G7b1blHicCZhxnkNEFQXFeZclByJ64J5fshQy8FwyzFwwjNwD3MkEO2YTXQ2Q4ArGrHjNNPW6mP2Jxq54Q65gwsiwR5lb3ILcOHbOseivXbsyyrKzGg3bAOsaCvfIDuazeIE1GgIRYgFiNgTA1DGqEQtS2uwcN1h3alW44ftpNENYNTga6o67uMEXvA+D7oQ19UW8f4NQX3/vhPfS1IyKmINhxl9aIzcR9EknEpjocQR9eRR/++9267m86ub4sqyzIRnOHqNrXSIKZxwByBFU1GoSj5OpZk2tX4438G/6mwdPEeHzikjzyT2AGZb5UvMXISElJb/SvNyjpDPQlQlAt/cULgwRxchSNKATAOyHQ8wm9QpZBLMw2ublBkisLkLv/WZJmZZCXRkJ6bFlHBbObv+I5rGlkOK5daSHk4zVjnYOU5u+RpzLrP4z0B2G09v8wUPx+/77tf4rFmdUwq08hDTpPQyhzt5/eohMTgeQLEmI9RkjHNwAQYiVkAX8vH6Ig+fd/pLFUFiXXCGZcg6HsMsSBUnTIVARAoKvx9xoYdjGcHH/gNNI7tT8YDLjRiW8aINmmhBkAY9gGZWZKpQgUd/j5lJrPkUn+/UreStKjX+hiMNplELm+Ana7EAs2V09icVeqM8SEABax+BdRKLyPb+8JYS81p6zYFlNmh4egnACdKAZSRn0Tf2STlDTs0OZINFxfqxsmhBtnq4qPpDVfkPEmfsi/47cbnpZbjDXceGB2IVzrjYM4MuLE4i6SS//nFQIQyOQdysux8VXNmfiY2Q0feH2VEce9xhCbnMPxGz+d05NMSZgBju4Jbwj2h1zrFCgZLBc4CybXHXN6JN54qZlZdFxUkuJSJNw3p6hXbnZgHBN8HDbfcKkbGQXfRGdjTMlpeUZ/uiCAVTyIvQ4S7VpOyEqsw5Y3hcPLU7HBCOJXSwp27OdPXHoZNTlhBpCjM9SJOyGSRD0AL0flApGHWaBubdSaPYpsvsn9XRQn/1oCxU5mPmWBkVC5jiSCnQ015xl4zSMwc0A16LUlU0u1mf0JIt8FEWYjbn2EAoOvw77Mp5zan9WJfeu8HKjiQUGuFRVLSak7UEsa8VQW5dmEGUCWJXA+GLJ5VAaQ6ZxGVKG+MoCsJ0oQ2OyqQ7z8ew1/J4I04rp06L7hwVBOAbF5AVScw7HdPxSMMRji1GA8CKM8MhCjoO83qZ9oVJJfmmXzPShmB2Tq7VCRbkd/toG4tqIfmwQPb9wWZnUZaUNFaaGq+2EayMxFsGw0Vv8bMJo6+nIJspg1QSoMPE2TWoolx/1QblQUTM05RX1ZFhuIzbE8zlieYXPsG9A8iFd51BB5uAywBya57iC0XMws0mGTdOkh/3IQF8LAIB26GgApgJHXgEhmNH+CPiku9xZQ3VMLz+MiTJj6ESI33o5BhGtAHQ0wAGuAPr+eM1KPvIfBnAeRa58IsP1I2y8434+JbB/2EPZs48GdIG6pW+1QIWKCoRJVcT3u7LKPklpkuwGS1AxAbRgpKZYBtp15DOAGSHO6iPirJESOqjr4hgCDiKwIVMhBCuOGfwEDTuJBuMhnjEoVlw4agegIYJZU04e0NvA5JMUAjHC1fAYVpc/t18V3YARgqKikDyzWM5sBjjWq9wJgx1KA9wMRVgeNQBQEXNaI2F1WD7BRiow3KqkZ4OGptTsgoB11qhSUn/PAwvFDnNJ1fNdGAAoUpQgU9skVSmvUk2IAFCQ1cMppClfgKDvZujH6e9dCAGcRlCIQE1ZmzwDydWGUVzIAlHzKTnatV65724KAtPOCGthxD0mOrAcP7JZaIF9DsjMA9pBctqoNl5W+r93ThWcqAjn9IgemnJsnyPZYzKmdC4gtJWkGMIiLtV4G2PfHBoV+KpUIGDilpqyPutCVMnPsiUkzAE5GKeU02OJoESj299FlngThqekC501SAUZSO8HHG6heBOMZNaenopdprkPaH321oP5yrJguIpQPxHndg1g7fSashte8Ni9Oc1fjqJ4p6QIGcuq1ZRw1qR5NmgHqyN66QtIfpirRbfpgP9P/9l+P6v7MHWuOqBrSWdPMhaU3MVFfAeKXhnbSgvDkxoiRG4af/P8U3JreBT1VqGeAFDEAZqLkQrMZrfLysr7Z3ZTcnlwLMjP3RHNUCO4+focD9M+fIP42TZUWp/CTfycjwaoHKy88s01yZ/+ppgnLfxWoBDhpBoi8JRebjUDARd7rhK/6vMJuz4LAfxBT13B/Qojw18y5o1pOzceUrcM+ZMoz/zRf1X6Dh1MiAnnDAFStCqV21zKKmz6/9CpsEZarXnC7NJyhpqzbw+3iO2GEObhoGLoVcuoarAvqW5yqOT3jVbwnDEBdtqwh9o7wqsEdoRyDiocSaicTN5mVJYMSytuBMtHsyEEp5xa7WBc4Z4w/xRMGwK6dUmUFs9cuwwCRC5+pdOQbf4AiQR6c+af4c3awHC4mEDjVpqQnL3vrCQOgwUp5DW5N1AseL3uU5rJYVtZIJ41YLE3DMcZRsTzXsZ9Ri8ScMCU9edl3TxggQFz8twuRT+TCpwsEXCObl0w3oUz+h4p5Y8cnU0bG53WRCAzqQk8edtATopxWvmI3zrgedmqXVPeZ+Rec5pTeqeIF25VMf4DVucQIfggV6lKzshje8U5uGyRTbkblperNUVv4fw6gBY+kN8JaCsL4vgGaj/NP/G77RURO/9S1je5svxtEaHV3EpYH3B21HLH0GYxwGUSpy3AZyCdE8MdwM87vOuLB92h9jawJsdhxDOHU2AHJ+j2ZAWRB6I9y4SL90svnOnuIOHIVfLFX/QSuo+F894VhIba+orLop/fOu6SHV2WnoxzpyAx7AM77HXDStWZbfV2q2uYZA8C1mHLh0pVUoZzxGTBn556+RHndKDV+2Y01bTHnFz+Kk3ZDPS0/RYXlBNXiDxQmW1N5N4NnDAAnU8oZwOhCRnHmpOWrsJi91w+agmjUizF2b4hbG3HH8sKH5pU6i51+NCDZMg06QlkEV9ORMm8Cid4xgBFQzgAcTlATaF+HzfJQWfUv0fj7PJ8JmhGRigV5k2bQICuxYH4LRnUTkKSSrDMCS9zToxaFU2QE1wKGdwxgudhudEEXKdPLqh7jnF4IJngDm4V2C+gtn9CcraWc/xSfb7fEJfIJZvg6jOoWgxHWghGm4iqqjHUMDLMY9UCYQg2QxNqzEeOWOUXBoVnsqNzNdHqJDQ1H+zxy++r9TumdOR6uFvvhOqRiXFA3kBhGQ5jzVc13IUS6bc4rLWZM3I8f38EiMamBCbY0e2F3/VwTDfx69qSPlJa6qcZczlaSYZ3qhZvJ62eUV7/olO51vGcMIBuGzm1E5wrk9+iBFk8vW1YbPU3HSgSkWTR8qt5DOL8RWLZcopQgOMKCcuL3cD/6H+bk5R8nWIin2SoWlEpRudCpUBwsuR83Qj6GdPCx/8FrBlByN/r0g+ll1S/5362OX4M0isNC+i7ozG/DjJD0NaYQs6oxrzy1emPDS6nUsrR+E80n446ppAT5PNr6MS7luNOcUlXTOr8f35Oaats1iLnYcGgXKe0gc4rABdI7ZpRVT9vR0DAcGrafQFjd5PRsLPGYTUrgbfo35+XnbjYXlMySdzfHks/LZy4tOJzvRvyyPrT1IoiDyyoqi5+VN9Z72Ya2ZXnLAG5WfNpFSlv8XX/Lo6TTp9Q8+c7GXFzwwW/A6JicCAlfPDiN8mCIEahRS17GDZ1XohGeSgJOnQoKFxVo64xyHUTZrTgt91nFgpLrWid5+d3Tjs+sLJ2IadtZxKHknemTqhwXQF52rDOXBcK9HCT7M8jL38SImvQ7hIZqHW5gfcbm4YV+nk025xXdiruYn03o3VDxMm9ovM28bdWuhPI7ZPJ0BsCdD8rNsMgVRQ4N0dGxIzC9vHrp9MnV14omeg6I91kIzQ2x527/JJjoLHiqeBKj7ZczK4vnmguLS9s/lXwMDRgjEi5F0O/SnOzV5vxx30y4jCgZkx49Wpcp5TVGQ45qTqkL/7KR53QWo67WfU/nd3mWmNHcW2DZ9S+YEDwxkYAlxyqYrzxPuPVbr2aFioUlf8A65LvJYgXN1hPbmuz7vaAjTxlAdmzmgpJ9GFEcbeK5ZZ1p3rT8i2RB0PnbIyC1LF/LP/J93MH0r3Ih2f6J+GOgizyKzbpFXIjnzSm1f42/hJM5ZlWWrICtzwUnYxL/hrXQe3C8/H1pip94KT4sfsAA1WCAYqdGWZxcXVFe9YZTuo73BgEpxuAes7vACBNRYlKm2SdbxD+FAfECbod/m8gF2VjMHgTJ9TxZXnLfwAQbRJhOMG+pWpdoSZ6uAWQjYAOptAnCrXGJy4GJ9rIL5jMn1VTNmFz9IyPccBreygz8bU8eBjYSZTzKWGALrsh9HebZN8RqdhHZCVcQP4gZl/yJH+BzW6ztBHOPoCHyvjm3eHSsedo+5zkDQHmlXgh3IavQtmCn47d0L4LNx4qtjTxfEhgWzEuSbkdERUmvgtXLf/XOG7yzYmHpPOwtXIZynUXqbLUKFBk3y03SPYfZSAyic2JtI/INYAZ968EFRWojO4cCPWcAyHjKGQAV6hnA4WX4GS0XjJLAoD36KufhUZyQ/wuGOJRsnRiFe0gfSFDaLwUjbJRnFbCL3U7Op7b6HADaEhk4n75r2aEZ5VW3ci7+AUqTrTG1D3sbQcH+nMhhIc8ZAPK/egbQN0fG9E79fMgsX7HWLKu689DuxiGciKmCir95Up8g+fKsAqN0BTQ+n8kd5xPnFdwuxKOn0o1ZXv0WnAefD+b6YyxtAyOe0501PRXLs62fcZ6yWj8Vx/cH5o7NzwoE65yyQMY7DNnUs4WQUz06Pj4EpCcKYQRuhhRzHYhCXvztXZCuzhmxoAI927FQLu7B/sYvoqXDgO5eiG7/DhWv64CNmeMSMM+H0cqJFudaYLRMqrh1b6zYenxBE/0pOWU+PH9s/+ipOjZdCEyfsuIj2B6V19vBwZFZAcZznrVF+oVSET8q4oqDMJFzFcL+ViwbftjRliblMQfPGWDRImJjBKlTtaCpCznKUuGQiWnyUL9ZVv0cZulSTq3zBeVPQxZ33Nz0rA9MDLn/mfMc94/M8uV/xux0NfYl6pV1UjIhnrWA5yKQbJxUkWG6usqxocL+4fTJtf/tmK4TMgqBssqC7ELR7zuwOioDEV4ZiyiSSAfAaPhHPkfeWpiBrxSMfhq2+RfH9jVt/cU9qyKEf9wwjqoPzHD7ounltctiaYN3foFOrU29EOZuGoFTC9O/0ovA8Tsg6v4Hrfgf6Y0iROwfES5+DHHWUzeOUKDgHzkH9ZyDzx/K0TlkMBLqn02wDmjC6B8Gh+S6jdrCULhdaQOlLwyAbmxAYx0DddEIOGbUCWlHoPmI5aNoyHF1JwgVl4D8M2jXExskRQdDIHzsaLuRPxSqttipKOeUJF8YwBZ8PXM+GizPuiW0aXFKy/WPtCOAQzsr0YiVxCT3mQUll4IR5IUg3wMzDExX46SW8eCBnTDZiC34wgCEwVu0YgoAD4+IrXn6qQ6BgEm4SarfQ1vfmziR3DX6mxdehjPN38N7/nYKZoZTIaLkt/HcL+w+n5xafEy/5KV4g7p1c3SWKxc7G8Xu3Ob7xWIqUz/UIRGgMMorwS7xC25qUE96J8TOAKOjpk2qgleM2ILnalBZrTzGhwnA8eSOXOwMs/oUxtZE/VQHRkBIozyMd7C88DdIeuOCXxMP8csW+cIAka66XHMTDAa0GOQvTWRK6bg/haoHOyFeB5PEvHBt2zGclX43TOyLzfLa5W3T3H77swY4XqtUhToeygAqeiHs9nY6QTrUpkOglsl26gpG7qPYdLsG6UKa0YSCwXHwHjcKO8OjICkUgk6G4ZkBULkGW8rAbynirIMo/QGhYpFZjlkmweAfA0gXKdjXcApdzVeoEw6dPT6L2yOUmsvjkkKEUGbftGIT8JB/r7TFRXoe7HkoHKqp79O4xFxitU1P9Ld/DBDGRccBw7FdjGlVqCM4nSgBxmmnw17fsUdIUZrPt2RsPv+LQzPeBt/WANQwlB3D5KDXAN6+y4wsjQYiNwM5ts3tXgnHjB4l+MYAOHShNIeAIqgQfXAeGjzqoC4mvQhATleu9Yw25wBS3VrfGACHprdjDXDMqUOg/Bxz3tjBTuk6vnMgQLn6DLjKDDoVCPjGAGi8XAIrxSBoYbUYlIq3nN46lDOAmzM1v5vuJwNAylEzAExeleD43Xldvr8ISIsAqC8dDz9Ji4A6srfO31aoS/eVAaDqVM4AQluFqt9OB08d0D3LbYb/Mt3mML4yAFSdyoUwZgg9A3RwIlc1n5KA+v263CyqKturNF8ZgHNbOQNARnIbIbzqpy4nDQgwoV4Ax7oH4GfTfWUAy1bPAOiYeoTws+e6bN8R4G7vV7jSh+9t9JUB6g/vqpMLHadeYAQYcPfjY7x1weFUmY5POQJQcqhneMrVEkIKWuwrA8iDCQBB6esxp19QDVIKQNBV+IMAvASqZ/jOPgNIWN32Agy3adKfd6NL9RsBE6b2QuSrqgmQTj4DyM5DzFFqgjAF6RlARSUdNO2BYWOHtzZhjtKNI8n69o9SZtxRvopAsjU4rOAi5zH1NBl3l3SGTEAgyNTiD/yRKgfGVPXBdwYghsvVqXoGSNW7Tm09hvrEn5tkkKrG+s4AMdh66BkgVW87pfWorUDTbQbdAoXvDECOWWoRiNJ8IhdMOnQuBFwuRacuZjKpAsN3wmu+1/WIokMhuWBSpOukDoiAm5kL7MC6yBoALw9eMZSzQCgYGtEB37FusgoB6qLds8JKmlAV7WWa7zOAbCwVp97+0a4DLjYj7Z7XERmNgLwvGh4dHF2dwzrA3mbTTZnQiZQwAHc9GKNeMGUCULoNsSPAaJZasSHIFi8uuY69Rc5PpoQBsBumnu7cbEac269TMhABOKh1E2kzQv6X0KWEAbibCKTPBWQgGSfeJJwDVs8A0mdUhoTUMIDL1amuVoMZApZuRmwICBdXKNRSK0Viq8Wbp1LCALuarDqpCnJsMqV97ptT1MsxXSd0KATc3F7i6qOuJQJFFjyMblG9xZygPhyjwqcjpQkXVygwkutaIlDzy1NzvaGPR3YkIndqq/ThCaXHcKd0Gc9Fo5oWVJk9TkuJCBRps4u7dEq0VajH7zYtxQ0xRD72AAynyrEHsN+cvPKAU3qq41PHAC7ng+ESe0SqO6/r8wGBgOsJv4wZ/WXvU8cAhnovQGhVqA/UmPoiKedKFShUIRkj/6eUAbitXvhgYaRngNTTq+c1Cqa2AaIuvqI8b5BLgSmbAY41HlVOfZANT7vCvMK/+wpcgNDJ3iDAXC5Bx0H5rjkDPHL76v3YC3Bc/MiF06UFh5WHqL15RboUPxEQhnoGILbL+RA/Gxel7JTNALJueIhQzgIBN1d6UTqgozIMAa5mgDDPjLPALaillAHgK1Q9/dmWXge0vJkO+Pnw/LH9sZbr4dR0GMmF172xYqtTejriU8oAtssMQAOGZoB0UIFHdTa5OMLCQfi6RYsIyCBzQkoZgLqowNxsSDIHNt2SaAjgRni3AUwtAUQr1Oe4lDKA27kAMIgbgD7DoYtPCgHheuOPcg2YVN0JZk4pA0AEVAKAzTDNAAm+yIzI5rKZ6XZjUDr6kFIGWLN45Ra5EHLuKO1pzinq55yuUzIZAWj5lAMYz7A9AIllShkgsgCi6sPQTJtFZzKNK9uGRa7aDILg8vQMCyllANl36uIiRbgvpDIMQt0ciUBZZUE2RNghKjR2HWns4otgoIOtcPUooC/OU9FQxqYNs/oUYjcfk0D0APFo1zN3rFE5SIue0efY1M8ALqpQsIhyGvUZD118gggEg2pnuDCDybjRX3Y15QwgDJcZQLtISZAE05uNub839cyfpuannAEsy8UcwkWVliacdLUuCNjCZebOIFcorbuScgZoJEG3qXDonU+dkdW6kfp75iPA3PZwwpmnAZKoppwBHpvywWHsBex2eqVyIdU3t+dwp3Qdn5kIYJFboGoZNQy3gU+V3be0lDNAc082KnsUCFysTNeJGYWA+VzpWWjQOapG8SZ7kyo9XWlpYQCMFsrRAEZxT1YsuLAoXaDoemNHAJ6gC2iI/EV1IR5m/MYl23sor8uNvUZvn0wLAxBG31Z1A2JQHo5Ivm9WltyO5xx1y6oydJr/CJgLiq+lNFSDF3SGS21/XWIusVyeSUtyWhhg70H6EvT9h1Q9Bqg5jNJfz6ws+bhifsnlqmd1WmoReHBB0ekVlSW/Z4T9Ee+pr1vtlPD5bs+kKz1to2vFvJL7iUH/PdaOYxpdivXx4zPKqhYjD6QoHVKNwIPPjxsZCgXuhuvDH6tEntbtgkvYVZ8srhmXaQdhWtqYNgaQHiC+ml+/BEBe0tKYmD4FzpRyMrcxEPjN7EkffRlTHv1QwghIlXS/Hn2uxZhzM4TRK1XmDu0qEaKBE3KJObl6Zbu0DIlIGwPI/pvPjhlAc7LeB6hSixBfwNASmRUM8mKg6dirD9z8yc74CtBPOyEg/XsOChpfMwz6PTi6moiZt7fTs07x8hokwe1vm+XL/+z0TCbEp5UBJADT5hQNzspmr+EesfMTBkQyAyFVuGfgL3C9+ubq12prMnXKTbiPPmeEwmEQZtarsTN0FRaGVydC9CeaiJEfN8HfOKOs5g8n4jL0S9oZQOJy9+NjunXvlzUXi97rvcEJC2xBllIh3sVI9OHqzcdWLDLXNHlTduco5YG5Y/OzDGM8enM5RBsoGdhIT3omxBZC2Xemly2r9aQ8nwvJCAZo6WNFZdENgrAnsS7o3xLnxafUQ6OcFZglPqY2XykM9rc1mxrWdhGmoNDV5xMaGAMHxOdTg5XizEUpXvwAL7BtKQMDjcCZ7ud3H2H3PH3XMqWGryVPJnxmFANIQO5/5ry87OxskzF6K36G/ANJWCCEz/De1hDG1hFu/x0zxrqGY03rIl7s/KvYl5LlLJrTLzjCIOxMuCc8iwTomUKQkejfaAwojr56vGgMBpiPsY67d/rkqve9KC+VZWQcA7R0PjJFs8A0nDKahBeYYuM4cQjEswXgbMGN5luIZW0RAWM7t/luuP7YTSy655h1dDcYRbp69FMlS3F1VM+AwXsHabA/vO4PRH2Q1cUAYojBlLPTIGufhr3C09BWV318C7ZefYLwa2EFOquivOaPXpWZ6nIylgFagJj9/OiBdjBnKsjsFizMhrbEZ8Kn1HRg4X0YTHoE7ZOnnQ5jxD1CGa3HgjIMgrVwQ6YFGdtCPD6ZhZkGhpPUwD1ZBvIEGBUBLOFzMQvlRD6JyKWU9UDZvVF2L/Q5LZuVTvhG+kzoK9y2/8OcUvtXp+c6SnzGM0ALkBMnEmPUNcVXgXhuBFFci4bntKTpT/8RkBtaUFK8YAvyX9Dr7/C/xtTU0GEYoDUcUt7t2T/rG3Cz8S2cRPpHpGlXKq0B8uC7XNRihlpOmXiZc/GyObn2Mw+KzbgiOiQDnIKiSZhZWFyMjkwggl2F91aMNUPwlGf0j5gQgEy/AwuaJdCUvQ5N2RudaaR3AqDjM0Cbnv3kiWE5eb0Hl0LGvhQ3ll8C+Xt8Ups6bcrvLD+bR/jPofmqgk//D8MWWfLzKTWfd5b+xdqPTscA0Tr+4PNjCgOBrLGUsQvgl2gspvbzsXAdhvVEl+g/MGmCDA8Rhq7G7LgKIs3yo2Fe/ejU2oPR8OpKcV2FANq904jePC90VoDhJJNgZwsmzgZDFEKriU0jMrDDMcdxc5Ad4OkNYOt1EGXWQav0d6icPt/ayNdFLitvh4KO6LIMoHr10gKyV4++p0E/mQ9jsKEkaAwCMQ1CnkHQSQ6Cc69+WGv0AbHlAUBftVEg5HqIKQfwuQ/174JotxMq1h0g7J2g+e2wodrcZDdu3sWDWzWRq95q9DTNANFxiTlWMkvfHnl50Pr3tBnvFgyQXE6MbkRYuVSwLBiXBbDjDJ0/D2BWMcA0HHaSNrQrNkSxyN4AvhwzKGmgttUQJsEGEHlDrmg6UBdmBzRRx/wq9IMaAY2ARkAjoBHQCGgENAIaAY2ARkAjoBHQCGgENAIaAY2ARkAj0B6B/w+5DwUfvccQ6wAAAABJRU5ErkJggg==;fontStyle=1" parent="1" vertex="1">
          <mxGeometry x="883" y="-549.25" width="73.5" height="73.5" as="geometry" />
        </mxCell>
        <mxCell id="wKkd2Ftk299Nv-PwKDOf-33" value="&lt;font color=&quot;#232f3e&quot;&gt;&lt;b&gt;VPC&lt;/b&gt;&lt;/font&gt;" style="points=[[0,0],[0.25,0],[0.5,0],[0.75,0],[1,0],[1,0.25],[1,0.5],[1,0.75],[1,1],[0.75,1],[0.5,1],[0.25,1],[0,1],[0,0.75],[0,0.5],[0,0.25]];outlineConnect=0;html=1;whiteSpace=wrap;fontSize=12;fontStyle=0;container=1;pointerEvents=0;collapsible=0;recursiveResize=0;shape=mxgraph.aws4.group;grIcon=mxgraph.aws4.group_vpc;strokeColor=#82b366;fillColor=#d5e8d4;verticalAlign=top;align=left;spacingLeft=30;dashed=0;" parent="1" vertex="1">
          <mxGeometry x="90" y="-792" width="620" height="430" as="geometry" />
        </mxCell>
        <mxCell id="wKkd2Ftk299Nv-PwKDOf-34" value="&lt;font color=&quot;#232f3e&quot;&gt;&lt;b&gt;Subnet&lt;/b&gt;&lt;/font&gt;" style="sketch=0;outlineConnect=0;gradientColor=none;html=1;whiteSpace=wrap;fontSize=12;fontStyle=0;shape=mxgraph.aws4.group;grIcon=mxgraph.aws4.group_subnet;strokeColor=#879196;fillColor=#F0F0F0;verticalAlign=top;align=left;spacingLeft=30;fontColor=#879196;dashed=0;fillStyle=auto;" parent="wKkd2Ftk299Nv-PwKDOf-33" vertex="1">
          <mxGeometry x="30" y="32" width="560" height="371" as="geometry" />
        </mxCell>
        <mxCell id="wKkd2Ftk299Nv-PwKDOf-28" style="edgeStyle=orthogonalEdgeStyle;rounded=0;orthogonalLoop=1;jettySize=auto;html=1;entryX=1;entryY=0.5;entryDx=0;entryDy=0;" parent="wKkd2Ftk299Nv-PwKDOf-33" source="wKkd2Ftk299Nv-PwKDOf-7" target="wKkd2Ftk299Nv-PwKDOf-12" edge="1">
          <mxGeometry relative="1" as="geometry">
            <mxPoint x="160" y="193.29999999999995" as="targetPoint" />
          </mxGeometry>
        </mxCell>
        <mxCell id="wKkd2Ftk299Nv-PwKDOf-48" style="edgeStyle=orthogonalEdgeStyle;rounded=0;orthogonalLoop=1;jettySize=auto;html=1;entryX=0;entryY=0.5;entryDx=0;entryDy=0;" parent="wKkd2Ftk299Nv-PwKDOf-33" source="wKkd2Ftk299Nv-PwKDOf-7" edge="1" target="wKkd2Ftk299Nv-PwKDOf-52">
          <mxGeometry relative="1" as="geometry">
            <mxPoint x="410" y="110" as="targetPoint" />
            <Array as="points">
              <mxPoint x="305" y="110" />
            </Array>
          </mxGeometry>
        </mxCell>
        <mxCell id="wKkd2Ftk299Nv-PwKDOf-7" value="DataSync Agent" style="shape=image;verticalLabelPosition=bottom;labelBackgroundColor=none;verticalAlign=top;aspect=fixed;imageAspect=0;image=data:image/png,iVBORw0KGgoAAAANSUhEUgAAAMAAAADACAYAAABS3GwHAAABdWlDQ1BrQ0dDb2xvclNwYWNlRGlzcGxheVAzAAAokXWQvUvDUBTFT6tS0DqIDh0cMolD1NIKdnFoKxRFMFQFq1OafgltfCQpUnETVyn4H1jBWXCwiFRwcXAQRAcR3Zw6KbhoeN6XVNoi3sfl/Ticc7lcwBtQGSv2AijplpFMxKS11Lrke4OHnlOqZrKooiwK/v276/PR9d5PiFlNu3YQ2U9cl84ul3aeAlN//V3Vn8maGv3f1EGNGRbgkYmVbYsJ3iUeMWgp4qrgvMvHgtMunzuelWSc+JZY0gpqhrhJLKc79HwHl4plrbWD2N6f1VeXxRzqUcxhEyYYilBRgQQF4X/8044/ji1yV2BQLo8CLMpESRETssTz0KFhEjJxCEHqkLhz634PrfvJbW3vFZhtcM4v2tpCAzidoZPV29p4BBgaAG7qTDVUR+qh9uZywPsJMJgChu8os2HmwiF3e38M6Hvh/GMM8B0CdpXzryPO7RqFn4Er/QcXKWq8UwZBywAAADhlWElmTU0AKgAAAAgAAYdpAAQAAAABAAAAGgAAAAAAAqACAAQAAAABAAAAwKADAAQAAAABAAAAwAAAAABu8xvwAAAWnElEQVR4Ae1dC5RUxZmuqtszwPCIAQ+ciGuID0z0xEQTjS6CnrMJ4/QAErMkC/MAji4muu4uzANcXNP4yA70AK6aE1FQYWbc7BkVBeZF3ARhEzVCfGSNQTdRo6yiUXSG18z0rdq/munQ9nRXVfft23Pvnb/Pgdtdz///6v/m/n897iUEP4gAIoAIIAKIACKACCACiAAigAggAogAIoAIIAKIACKACCACiAAiEFQEaCEUu2zd0lHjJpw2LRQiM4iwvkQoOVcIMpFSMhb6LymEDNiHZxE4CrbQA7bwPhFkP6H2q4LTPYc+OPDfzyxbf8xtqV0jwPmRSPGUc8bMEoJVUyrKCKHFbiuD7QcJAdEnBO0gItb01h+Obn8lEulzQ7u8E0D+tZ8wafISQVkdMHqyG0Jjm8MMAUoOUMGjHx48cH++7wp5JUBZU+Ncxti/w/CcMcyGCNUtDAJ/4pz/U0dV7RP56i4vBPjmhobPjBhdvBF8+7/Nl2DYDiKQEQFBHu090nfdU9ev+CRjGcMMxwS4anP0AmZZWyGIOdOwTyyGCDhGAALnP3Lb/nbnwrqXnTTmiADhhxtn0CK6DQLczzgRAusiArkhID4R/WJO+6La3bnVB8vNtaI0fhKiXZTSkbm2gfUQAacICCGOk5gozZUEORFAuj1WiAHrsvrLbxMhdhHKf8Zt8jxh/LXQkWMfbb8+ctQpCFjfvwjM3hApiY0eNZ5wNpVZ5GIi2LcIpVeCRpa5VuITO8Zn5OIOZU0AGfAWjy7+TRY+/8fc5ndz2ntfV9XKd82VwpLDFYHSpjs/x8SI7zOL/SNgcIoZDuKN3sP9F2YbGGdNgPLmda3Gsz2CPBA73r2i67rIR2ZKYClE4CQCpRsj40MjxzWAvf39yVTFN5gdaqtcNk9RYlBWVgQYmOffOqiVQQkQnBC+sL2i7slBWZiACGSJQLglejUlbLOJy02Ffc2OyjoDGz0hBDOVRa7wDixyKavA9NTB2PH+K9D4lTBhZhYISFuSNiVtS1dNUOsuaau6col8YwJ8dtJp8jakXOEFAbvt3r7SrmtXvJToAK+IQD4QkDYlbYsQoVv8OkNuxTHt04gAcmMb7OKs0zZK7Wo0fi1KWCBHBKRtSddaV13uQ4vbrK4g5BsRQO7qhFmf01XtUSI2otujQgjz8oFA3MZgckXZFmzC/PxZJbOVZQYyjQggtzRrGvu4/1jPck0ZzEYE8oKAnFmEBbBDqsYgFtDZbLy6lgAyoDixn1/VnX0PTnWq8MG8fCIgbU1wcY+qTUbJVXKRTVVG5mkJIE9ywfST6jALLML1/UTXEeYjAvlEQC6sQnt25jZpsV0yBmxX/dESIH6MUdUGbG/AFV4VQJjnBgInbI7/QtU2ZWK6Kl/maQkQP8OragX29qiyMQ8RcAsB2FOmtD1KrPN0fesJAAfYVY3EN7apCmAeIuASAkzYz6uaFlQobVfW1RIAFrcmqjqxi9jrqnzMQwTcQoBbRGl7gqttV8qlJQDM/8tHl2T8jOju+TBjJmYgAi4iILfTq5qHsypjVPkyT0sAKKOcSoL9/K4/u0WnBOYPTwQMzpIobVeiZkIAHbpCVwDzEQGvIpAPAnhVN5QLEdAigATQQoQFgowAEiDIo4u6aRFAAmghwgJBRgAJEOTRRd20CCABtBBhgSAjgAQI8uiibloEkABaiLBAkBFAAgR5dFE3LQJIAC1EWCDICCABgjy6qJsWASSAFiIsEGQEkABBHl3UTYsAEkALERYIMgJIgCCPLuqmRQAJoIUICwQZgVCQlUPd9AiUN0XLCWP1cPb7PEroQcHszQd7Xr9r3/X39+tr+78E3gH8P4Y5a1De0riEMGsHPPhsBpyfPRVeRHE+FdaaiaOnPi3f0pJzwz6qiATw0WDlU1T5qis4Ebs2XZuMssssOmrfrM3Ry9LlBykNCRCk0cxCl+ISJo0741MT4GkgnxMhtqusOWr2eqIs+vZSUSSAl0ajgLIIwibou6PFjFr3lzWt22D6vH19m94qgQTw1nh4UhrGyJIzzh6zK4hxARLAkybnPaGCGhcgAbxna56VKIhxARLAs+bmVcGCFRcgAbxqZx6XKyhxARLA44bmZfGCEBcgAbxsYT6Qze9xARLAB0Y2RCL+Ft7E+Gezvv0bF3iJABTA9su/dHaRq+zp2kqk5dqmth5luieDi5cJFV+HtzG+kBBGd/VjXOCJ3aDhh9Z8lRaHjIHWDYTb+aIvdmH74voXk/sJN6/rBHdgZnKa/jttbatY+t1M5cqb1u4mjF6eKd/t9PaK2rfgNbnTxk86/QH421Rh0p+MCyiJ7yP6zo6Fdc+Y1BnKMl66AwwlDth3BgSeWbb+WFtFTaUgfBkUUbyW9GQDibggvtv0ZLInvyEBPDks3hMK7gbruW3PzCYugN2mG7y+jwgJkC9bo0L63YH+dFTX/TxocQESINAm60A5zrvT1ZZxwaEP3plGiGhJl58uzcvrBUiAdCOGaQT8+J9lgiFIcQESINMoD+N0OB/cuaOy7gkdBEGIC7xEAPm2Sb/8G2QbEADwbOUXwla/YZNl32a2MiSVt8Hw34SJntvf+t/uqwfS4aL++D0u0AZu5S3rlIPUVrFM24YaQswNAgKwXjAqm/UCqTMQ7l1m247WC5zap5fuAEGwg2GrQyIuoFTUAAi+WS9AAgxbk3VH8R0Latb5ab0g8ASYs2n12NnNa2bKB0CVt/zbZ90Zdmw1GQE/xQWBJoBcirdHFv2J01DXiQdAFb8X3hK9OXmw8Ls7CDhZLyh9cM1F7kg1uNVAEqDs7ptGhFsaH5RL8aDyKSfVpsXUsn4U9GfdnNR3aL/lGhdYxVbX7EcaTy2E9IEjQFnz6tPphCl7KGGLMwFIibUiUx6m5x+BbOMC+ZhGm4iM45dPCQNFgPKmNdMpKdoLD3m9WAUSrHKeOXNLdLSqDOblFwEZF4iQfSlMfvaYtCw4Pd+knNMygSFAefO6GwQN/RcY9yQTUGjfkREm5bBMfhD4m80/msBiFrikdKxJi5TRgyblnJbxxIEYJ0pIf59O+PxPoI3FuCLnBEn36soDT8QKbYXzflMMe7F5PzfebGfYZtpiviZA3N8nRY+B4V+SVjtMHHIEwk2N8yljG0GQEkNhYF+5/c+dC+teNizvqJhvCSD9fUFCraYujyOUsHL2CMybZ5XNuaQBjL/WtDJsjeimQlTtqKrbZlrHaTlfEiDu7xNyFxh/kVMAsH7+EZD+/shQ8U9hGvqbpq1TwvfDofq52xfU/t60Tj7K+YoA6O/nY8jdbaN0U8NXLKtYbqWeYtoTFwL+4h+u6qiIdJvWyVc53xAA/f18Dbl77eTi7wtu39ZRVbcKpFLuOnZLal8QAP19t4Y/T+068PfbC+jvp9PW8wQIN6+/URCx3tzfFzF4hEcNrPb+EBQen05pmRYaNW5VWVP0eKb84ZZOLcaZ4G/3877HuqpWvmuqfy7+PjxZ4ve8Nza389rl+037caucZwmQ8PdpdkviH8BW3Hkd1fVPw0EJSQDV5x8Ys1T5wysPHBBBLBJio1aHm9ZUt1fVP6YDIHd/v6eq89rC+/vp9PHkSrDJfp7Byoh9/Ux8TRr/4DxMyQKBEspCLbB1/ExVHenvh0YW/wruzFNU5ZLyBPj7qzoqa+Z2VHrD+KVsniOA6X6eJGDhLxfdcqSv5/Kd82veTk7H7zkjMELwUHXa2tLfb4pGYX7/Ecg3WtyS8/twZ74a/P0I1BmSYDetLpDoKRcoF38fDpYua6+svSdVQfAzY7CrMDUZf5siwEJfSC2ai78v5/ftXvtqL/j7qfrI354gQC7+Phj4+3BL/W4ml4cK8hrsPZmYTmlM0yMAhvupACl3f/+wZ/z9dFoPOQHi/j4NPa7bwpwsPNxD98Yscs3OyvrMLg8jd0OdIXuycrK8fv+e0/w+oeDvL7sNdPeUy5M6FkMaA5zw90P7sjF+Lvjmo33d03X+PjzRuBWeY3kL4B9LVRp/GyKQo79PuJjbXrF0FfTiaeOXKAzZHSBXf78jjb+faTjbFtTcCUcjm2FAvkWZlXQ0MlON4ZMOUzIXQYw0P5PGQtDx5XO/0ZnNfh4vze9n0is1veAEyNXfJzExr31R7e5UBXS/5eFsKCO34+InCYGypsYKFQFg/qAsm0nCE/t5vDO/n6Sq8mtBCeDM36/N7O8rVcRMlxGQ8/tDup/HiX4FI8Bf9vMQsyOLUinp7x/rP/z9XYsjuGXBySi7VDexf3+o9/M4Ua8gBCiEv+8EBKybPQJ+9PfTaekqAQrt76dTENPyj4Bf/f10SLhGAPm0YDr+r7pgLXZ6uo7Tpcn5fUFi3+5YtPyddPmYNuQIgNfjj/l9U6RcI8App05eATMJ5sYvxMNH+3t+gP6+6dAVtpz09yHYrYTn+2wvbM/u9uYaASyLfM9sFQT27BC+tK2y7l53VcXWc0UgKP5+Ov1dWwnmgho9iRlWgffa4siWdMJhmnsIWFQcNWld+vuC9HzDq5vZTHRQlXGNAPAEsBdVHSfy4C5xqUXH/BoehvrFRBpe3UegjxM5PqqbtPT3I17bv59vZFwjABWxO0BYozeFCMLOtTl7LtwSle+mwk8BENhZXfcGuDab03Ul/f34/n2f7OdJp4NpmmsEaKuq3yN47HsgiNGtFgLmcXCOd2u4KRqBOjB5hB+3EZCTDrCMe1/yhkEw/j28t/+SoAW7mbDUGprTl5BdtTl6gRVi8JwY+oVMQqSmw6H27UIcrvTS0blUGYP0u3RjZDyzRk21LXZQ3hn8pJtT+3TtDpAAUT7jMXas5+vwZIeML15OlE1c4dn+szEuSKDh/rXrushHHYuXP+s3488HMq4TQAopAW5/4tkyzu1GU6ExLjBFCss5QcC1dYBBQrW22h2trXVlzWv3Mkrh9UX6A9UyLiAn4oLbYMPVKqijmrUY1KVMmNWy5hxwv0o5Kdx5APt43/aua1e8lE6gsubG80CLC9PlKdNC9Hcd82teSFdmVlP0SpvQyenyfJlGSS+c+3i0ELIXjgAD2sC02n9CXPBqFnEBhcMsP4SDLRdlGxeUt0Rv44KthH3vTBvs5BFteMfVAWguLQEYFbMJtRqy7Q5mbNZAnbQE4JTVwB+VWdm26dXyoOufQbaCEKAgLlAq0IWIC8LN0QVw9/hXafyp/eNvRCCBwJAZRyIuEJxHE8LorjIugBXmX5utF7Abde1hPiIwZASIQw9xQXtVbT0st/8d/DZaLwB/fqxcLyjb0ihjApVnczYOLyKgQ2BoCTAgnYwL7Jh9GcS4pnPQEBawWyEueLKsOQKB8uAPuD4Fj28GS4EpXkfAEwSQIBUiLvD6YKB8hUfAMwSQqrsfFxQeYOzR2wh4z02QcUFraz2sF+wzXS9Iigtu76iujQDk+vUCytcKTo65MTx2v0g7BSr7EoK9QqnI+hWgPMbTToHG2yR0FzxG/hM3dBmaNs1epp0P2VRBZLx9p3stnAjpZB8Ro+NkPJHxBRmxY90T5B3HiXxYd+gRcGqfnnKBUuF0EhdAW6NS28PfiEAqAp4mgBQ217gAqiIBUkcbfw9CwPMEiEuc03rBIF0xAREYhIA/CDAgdg7rBYMUxgREIBkBXxFACp5LXJCsMH5HBJIR8B0BpPC5xAXJSuN3RCCBgC8JEBce44LEGOLVAQL+JcCA0om4AA5z/9EBDlh1mCLgewLIcZNxgX28+2Igwc5hOo6odo4IBIIAUvd4XPDkM2FB4yenNHCIvq53yMeaQpg9DBAIDAHiYyXjggU1y3XnC2CjUDuJRPgwGF9UUYNAsAgwoKwyLhDiPc76lmpwwexhgkAgCSDHTsYFfUf6LhI2aYBzYy/BK1P/Bw5b/9hix7/aOf/mN4fJ+KKaGgS8tx1aI3A22U9dv0JuEb554F82VbHsMEEgsHeAYTJ+qKZDBJAADgHE6v5GAAng7/FD6R0igARwCCBW9zcCSAB/jx9K7xABJIBDALG6vxFAAvh7/FB6hwggARwCiNX9jQASwN/jh9I7RAAJ4BBArO5vBJAA/h4/lN4hAkgAhwBidX8jgATw9/ih9A4RQAI4BBCr+xsBJIC/xw+ld4gAEsAhgFjd3wggAfw9fii9QwSQAA4BxOr+RgAJ4O/xQ+kdIoAEcAggVvc3AkgAf48fSu8QASSAQwCxur8RQAL4e/xQeocIaAkAD5NSP0IwEtG24VBGrI4IZEJA95ZT7etyDYyXHs7Uu0wvO5uMUeVjHiLgFgJzNq3W2J5Q2q6US0sAykiPSgGLlkxS5WMeIuAWAr3FXGl7XKhtV8qlJQA4QO+oFLBt+kVVPuYhAm4hYNFipe1RQpW2K+XSEoBQul+pAA1NU+ZjJiLgFgKc6mxPbbsgl5YAEGX8ViU/JaJMlY95iIBbCNAQUdses5W2K+XSEoD0279QKQAxwgWlmxq+oiqDeYhAvhEIP9TwZSKI0u54L92l61dLgLY3D78AjXykasgaOWKZKh/zEIG8I1BUpLQ5mL4/1Nn+3G90/WoJEH+VkKCtqoYo4QtKH244X1UG8xCBfCFQ/tPVX6KUVKraE9Jm4ZVZqjIyT08AWUrwLfKS+UNDIavoPiCLWXuZG8IcRECNgLQxO3QfIRABqD52TGOzJyobGWxbVc2vBBHPq/ojjF4ePmv0rcoymIkIOESgfOq4W8D4Z6iageXfvR2L6n+pKpPIMyKALEw5uSNRKdOVMuvWcEtjVaZ8TEcEnCAQbo4ugMA3omtDcH6nrkwiX7eXIlFOXmm4ed3T4HtNT05M893mgi7pqFz6YJo8TEIEckIg3LJ2ERjrA1rXh5BftlUskzaq3QckBVH7UZ8WVcS4fUORxWBWSOl/WYyKTeGmdRe89Yfu+lcikb5PN4O/EAFzBL62YUnRpJJzGmBVVznrc6JFEbNj/Ab4bmT8sk42d4B4H+WPrF1JBNW6Q/HCRPyO2/ymjuq6n5/4jf8jAuYIzGqKXimodS9YqdEMI+f01o6qpbeb95ADAaBx6Qp1gis007QjIcgeIux7j8aObNu1OHLctB6WG34IlN190wg2YcocwemNsMh6hTkC/Km21w+XxqftzStlfweQbV/5UOSU0cXjdsPXL2fRF4HFiSPAnz2U2s8TwV7jRHxIOD+aTRtYNmAIMFYCDst4+DeVMnbxQIyp2eacgoEgrxDaO72t4uZDKTnan1m7QIkW5/zH6tNisdBuyuhZiTS8IgKFR0C8QWPHpu9YeMuBXPo2ngZNbXzb/OX/F7KOTxNcyK0S+EEECo8AJS+JPvuvczV+KXDOBJCVty1YeTDUF7sCbl+Pyt/4QQQKhQDElY9z3j2jfXH9e076zNkFSu20vGXtD8C/XwPp2flvqQ3hb0RAgYCMIxnlK3ZU1N2rKGaclTcCyB5nbb5jsgiNXg/TsPOMJcCCiIAhAmCsj/UxsXTn/Jq3Datoi+WVAIne5PkAa0ToXyil18BdIZvFtkQTeEUEEgjY4GJvFf2xO8HdeTGRmK+rKwRICDdzS3RiESMLBLGACORSmOIqSuThFRHIhAD49/1UiOcEE4+HaO8jMtbMVNZpuqsESBZu9oZISWzU6Esti5wHhDgXHjc0EWLwscDukuRy+H2YIUAJrAPxHkrZ+5TY+2OCvco5f3ZndR2sGeEHEUAEEAFEABFABBABRAARQAQQAUQAEUAEEAFEABFABBABRAARQAQQgdwR+H948u1qmnC24AAAAABJRU5ErkJggg==;fontStyle=1" parent="wKkd2Ftk299Nv-PwKDOf-33" vertex="1">
          <mxGeometry x="276.36" y="244.5" width="70" height="70" as="geometry" />
        </mxCell>
        <mxCell id="wKkd2Ftk299Nv-PwKDOf-15" value="VPC Endpoint" style="shape=image;verticalLabelPosition=bottom;labelBackgroundColor=none;verticalAlign=top;aspect=fixed;imageAspect=0;image=data:image/png,iVBORw0KGgoAAAANSUhEUgAAAMAAAADACAYAAABS3GwHAAABdWlDQ1BrQ0dDb2xvclNwYWNlRGlzcGxheVAzAAAokXWQvUvDUBTFT6tS0DqIDh0cMolD1NIKdnFoKxRFMFQFq1OafgltfCQpUnETVyn4H1jBWXCwiFRwcXAQRAcR3Zw6KbhoeN6XVNoi3sfl/Ticc7lcwBtQGSv2AijplpFMxKS11Lrke4OHnlOqZrKooiwK/v276/PR9d5PiFlNu3YQ2U9cl84ul3aeAlN//V3Vn8maGv3f1EGNGRbgkYmVbYsJ3iUeMWgp4qrgvMvHgtMunzuelWSc+JZY0gpqhrhJLKc79HwHl4plrbWD2N6f1VeXxRzqUcxhEyYYilBRgQQF4X/8044/ji1yV2BQLo8CLMpESRETssTz0KFhEjJxCEHqkLhz634PrfvJbW3vFZhtcM4v2tpCAzidoZPV29p4BBgaAG7qTDVUR+qh9uZywPsJMJgChu8os2HmwiF3e38M6Hvh/GMM8B0CdpXzryPO7RqFn4Er/QcXKWq8UwZBywAAADhlWElmTU0AKgAAAAgAAYdpAAQAAAABAAAAGgAAAAAAAqACAAQAAAABAAAAwKADAAQAAAABAAAAwAAAAABu8xvwAAA4ZklEQVR4Ae1dCXxUxf2fmbfZ7NsECIeWeiBYxVortl7VeqEgAgokQdR6tKKIbW2rtN6QsCaAVqy2tYeA55/aepEEEEJRK9Z61GqrqD2wFRRv5RJ23ybZ9+b/nU0WNsm+ebO77+1ukn2fT7Lvze83M7/5zfzm+M1vfkNI8SlyoMiBIgeKHChyoMiBIgeKHChyoMiBIgeKHChyoMiBIgeKHChyoMiBIgeKHChyoMiB3soB2lsLlutyTSNcO2JidD/uJyMIJSO4ZQ1nGhvKOR8CWgZTQvHLK/Beil8/J9QP5pdyQkyEteKvBd+tnJIIscgWQulnlPAtCPsM6W22ONloUr4p2tK28ZZVFduAX3xc4EBRADJg4g1jPh8c7M+O4ZyNYpSMIoyOIpx/GUmVZJBc+lE4hIKQ11F5601C11vUepVsDa4PraOx9BPr2zGKAqBQ//WTjBHER0YTap1AOT0BPbJo7AX1YCQJE07+CkF8jhDtL1s/Ln32jheoUVBEFiAxRQFIUSk/nMBL9y5tOYUTawKlRPwdkgKtoIM4J1FC6DoIxBqzlTWHVgc2FDTBeSKuKAAdjA8dxv2+gyJncEbPQdAUNPp+eaoTb7Ll9E2sLx42o/ThojDsYXGfF4BQdeQ4jfAZWKROBVvEIrX3P5y8hunS/eGdsaU3P9V/S+8vsH0J+6QAXH/m9oHlfv9FnNLLoGn5qj17ejmEkxaUsMGkdMncBv3pXl7alMXrUwIQOjN6oK/UmoUF43QUvCwlR/poINSyb3CL/Mx6K/D70JtUqGX7xNMnBKCuMnwUpfR6zOurUKuaZzXL+edYQ7yNhrQRQrYJGW2yCPmEMvZZKzG3aK1sy07SFukX69eKeUfLnc2kNTQa9PQj/qi1o5RpPr8/5hvASq3BzOJDLMoGM0L248waTjgdgcoaDg3UAV6WAYvnD7AP8Us/139z3Qq60zNeFUjCvVoA5k/dNcq0WB109VPc5jcaykdYVD4HwfoHjVnrSRtbP2e1/o7b+XRNb9bxXB+wT+QwZrFRWLuMsig5FjhHoSL9XXGz+YYAb4Eg32qZ+q9CK2kkm7QKOW6vFIDQ5OhBmmbNR+Gmocd0q4wfYld3DeXs6VgbfS60KvB2oVRsaDQPsAHRY7BXcQJGjnEo8YmgzZ1NOU4+RloL3n1X/+3iV2hboZTZLTrcahxu0ZNVOqEJvD8LGjWUkx+hYG70iC9ZlDYSy2yubSx/LSvichj5p5N5P4NFxvgYOxP7AJUQCGGOkdWDEe8/xOI/rlletjqrhAosci8RAE7rK6OXEMYXoEB7Z8NjTGteJTHyELHoIzUr9Y3ZpFUIcTE6+Ojg8BjNwv4GpdWgKStVL+d0jdlCr+wtewk9XgDqJ0cPIZq1BAvckzJucGLxStmDrdRaUr+s7B8Zp1PgEcX6YeDQ6DRG+GUd06TMKIb6FIv9+s2bArf29GlRjxWAmUfxkv2HR6+lFq9BZcLCMoOHk39zwm83Y8EHe/NCLxVn6qtaDoVt05XYB/k24HoqHKcwTIvWc8pn1DaU/c0Jt1DhPVIAOnr936PXPzITxqLinoFJ8m01jcFVsJeBwqPvPjdM2LlXUGdXwMjvigzXCia3+AJze7CuJ1qj9jgBmF8ZnomF6R1o/MF0my0a/rPY8KmpbdQhAMUnmQNYK5RrFdEfoj+4BrwdmAxTeUcv8ldisAtqmgP/U8EvFJweIwDXjd06oH//wP1gdGW6zEOFvmKZ7MaapsDadOP2NXzB5/L+pbMwMl6NxpHWbjk6mJ0Wod+b26g/2FP41iMEIHTmzq/6SrVGMPWgdBiLCvkIFXljTWPg/r4+1UmHbwI3NDm8j+ajt2CCeCGmRmm1EyDf+c47+k96wgI5rYKly0Q38OuqIuehB78bhCr3Rmj4McS5vSSmz+sL2/lu8NkujbqpkW/ApOPX4OlRdjgpwzn5S6zFmhZaXY5OqHCfAhYATudVR+aJHjwd9onpjmlZl/akjat0ypcPXHHe+fApxizKyE3gr/rai5P3IQRnQQhezQfdKnkWpACIE1lfCBj3YeD9lkohBA56qChsV2peX67f8Sih4qB58XGZA3FrWr91N+rl1DSS3gVV9Tmzm8qa04iTM9SCE4BZZ+wYNChY0oSeRn1ji9LXY9HY+aFV/d7IGef6bEbYda8yroYQzEPjUTU3MbnJr4AZxaJCY1tBCcCNk3d9IViiPYHu/HBVRlkm+eWnrfq1dzZTcbij+OSIAzVTw1/3W/QP6KiUz0tzCwqJJv3mHJGolE3BCMDscZH99XLyJKgeqUI5pjw74Stn+tym4DIV/ELCEdabdKAxiTEsLE26g2nmqtnLytcXEo0qtMT3DgYa90EIzlbBb8fhC+Y0lM1Wx/cWsyAEQMwttVLrTyDmAKXiwoQhxrSq0LLSfyvhFwhSaGrLl6lpztAYmQ6SBiWTFd9I4nSRGQs83NPMMuqmRK5mGrkF5VE6bATV6i9mNwavSi5/vt7zLgCi5w+Uk2dVGz92clf7Y4Hzeop6U3iboAcZVejtv4ee8hSnikb5dsA+Z2msxVzUk9Y09VOjYzF1fQy0D3Aqo4CbOH6J0ftqFVwvcfIqAPE5v4/9GQVUmvZYnN71emPgBz1By1N/VvRg6rdmwPvCJVgwZmqP/zzMsu+KbQ88Cjsb+Pkp7Kdu0s7DqKathrp0mAqlMES8qaahLKSC6xVO3gRAaHsGl/uF4ybnBS84hSnCdTBeW+gVI9xIV1io7jvMqGScz8RRyTFo+K7wF4Xfhr8HKNUW1zSW/ssNWr1KIzRx11CtlK3CaKdkqAglxjW1y4O3eUWPU7quVJBTJl3hcc9rAeMJMMlR1YmGb6EXnAntwT1d0ymU7/Y1jDkDm3aXgqFZHchxKhME4c/Qpiz6tDWwrFA1X+Jkni9grIL4i6OZ8gedm8nJBZgO/UGO6A00DwKAHd4q40Ewx3GTC5UdgwBcVNsYfMib4meeKjQgPt8gYxIa/eUYn8Q53JzyEnzZYlnkft7KFhfi6azQJB70+SJNOIV2uiOXccDGsujptcv1Zx1xXUbIaaUJ2udVh+ermDeIxm9yPi3UVNbkcpmzSi403hgOjdUMeIS+FCPY0KwScysyJ09jUbmI/1dvLCSfPmKk3ysQbWSUT1Ao6tZYlB2fa2HOqQAIwza4KHEc6sS0BwJwQaH0/HHf/1WRs3BsciaMLsaDaXDX48qzCeUcCkEKuJEa0voUad3HDba4UOzyxZ6Hb6CxGuPjqQpl3BAz9GNCzfRzBVxXUHImAMKkWSvVXkSGcqtOseDl9LJCmPO3q2j5pTgtNQMVuK8rHCekDQ11OWFsUc2y0qdmnfH5wMHBkouRtjin+2VX8ojzkD+FUWrR5nf05fk2SxYbZhCCJ1C+45zKh/bRNLtBr8YsAf2g909OBEAcsujXP/AyiuNoz4/GcW0+tT0hwllJdWQChPC7qDAxdCtt7jhVFWpzIxbzS8xI7J7Q2n6fpMKvqzJOgR79u6iUKuRdmgon3TDw8yNK+b28jd2dTy8XodHbKrRB/uexVDrUqQy5NJnIiQDMr440ogE4nuQSen4cV/yeE4O8gM8+K7JvwE8vQQO8DOnv70YeaHxiEb8SzrTuqmkqfUK1V/vJpM+HDGC+i6FPhzqVHOwKLUKbxulaHOBdRLYHH8/H+V2xfvLp/EUI9xdkZQLPsL6nY3PhsNdzARBneOFCw9EKUOzwrm8ITM7lJpfo7bWq8DhG2eVgOjQ6rvX271CL3h0xrHsW/LHsQ1lly2Gc3lQZPU2j/HI0GtGBlMjx1aAQzA8w0bzHNNndoZX6u2qx3MGqqw4fgynlOgi29FwB6uO9cEvrKK/vQ/NUADq8N/zdqbDYLf13iakfmyvzBrFZw0q0S6iGDStV+yPn+scddmSVZfFF5vLgmhB8jjhHUccIjdu5N+vnuwSuD8Va4UD1mPaYoqfFVK+ZWdai15YHV+eq86mrjJwD05CH7Slrh0BQH8N0eJoTXjZwzwQg7rdnmPEiGr90RxCF3Gky7VjvDduE97iW0+FpeSYaqrgBxpcN45Libsac9Z5ojN89//Hg+0nhHr16Uw7R42KNcneuygGN4M+gEfyxE5MgoJfUNOr3OeFlCvdMAOqnGrMp5zjSKH+gvz7bS5Nm0XNqujZdzKd7es/ZlZNxswNdg5aKYxeaDO8Kz/Db05EsQZPYSNSgGUJHNDoRlupXGAcaYevQ7KaSqVJuD/NEAMTUh2rWa2hwUk2GOMwCO5Ar7cnLFCJOLUVPhc7+cjBY3Ang6tw5GqFL5q8Nbs6UOrfjxTVXlZEzcNPL5ehVz0L6bmmu3sFO7hJjl3WvFw2ww25oPepoLxlPcO6jEXtCUI26/3ggAPEjc8+gUHI7Hxxj/DgSOMZNe5YOG6Pvg03C9LjXaE/SqfZ2dyYMNknuarNAwwrOyK21y4J/TYceJ9x5U8KTiEZXOOFhqjwV64EGJ7x04a4LQN2U8Aym0SUyQlCYqNlqHuOmvXv88uoBJetQ8V+V5a0KA41x/XkswpaE1uibVOOp4oUmRkfiJpgjNc53+CPBP1+zloZV46rgJfYzcJH25di2nog42Y8K2GBDb3x9bVPwVhUaVHHqq43foN6c1N8fxrbqI6G+3aWargqeqwIgrAA13XgLiUotIr0wga2viixFr3+hSqFtcVDBmDY9aeJkFt+uL3dbV57wzoyNKbHZdXyCDqEIwFTj9/BOvcgL79RiR7tU5zMY7JcwLc16RztG+FGhhrK/J+jP9lfwZfAXjfVIR7pRinZzC6bMN2SbX3J8VwUATpQWMk6kp3zQSF95dZn+DTdVbsJWZ1S1EUFh/MmFU31Hq/8EDeM+gt7eCxuaBdNavsJj5kzoRb+N8kv9bkIY/oaF311WLPCQ20cjEzZNFmFYG/EzwC8MDuk/uJbpNkyFrkk/pn2Mm6qNU3Hl05/sMQARbtlj9FA3d7RdEwBxAor4rTdkjRCVi51R62i3nVaJea/PR9NTQQp7GUKexr9F723WG922lxHrkSGB6NmsfSEuXw+lqnXcWQCzgaWEWYu9ODA/b6JxAC+xLqMavQTZfzEVCZKwh+c0BM+TwDMC1VeH4QEQo5TkQX01YC0g7nR25XFPAKoiD6N3O8eBqlvBuOsccNIGhyZE9vPpRE0rw8lnFiP30xZYTD4eeCvtzBwiCA0Y17DXQMl3wNzBDuhKYAjqC9g9XbTlo8Ajd7xADaVIikgd6sjJ6F4vR+M7HSOhc5vg5NE5jUGnulakYA9a3F5oYOkG8E6qFYph+hhqCL64J2bmb86FVUhb3MbILfaqjHmQ3I/8pj7Si91eFQFA/s9gAbfosxa9wU3Nk2CPOPjORhrVYKZQu45WYFmmKNsxD/4/n19bdOOjpf/MNBG7eOJkG/NZl2GXdjrq0t5exyMBEHSpmM5gJf5kTVPZ6XblSCfcFQHArl4T9M9TZBl7uaMnDNl0P3Yy7R74qESPtZ8dONNwcRulDw0GwjXdqdfKNA/beHA+C+PBRdb2wGNYrLt6YP6mqsg0jZJHJHl7MgKI/IT2yldl/B0CeIRt/gCg7KPduOfBJ8tEBSYuoXZq/Ggcr8xpCNyvkl4mOCXQ9WUSL5M4cROPA4wpqAH09tYYpIHz75mklGUcnLfFSasT2SDjF2iwD8Csb7H35iRZ0qwQXdhQ1XPjKizSn5ahQ21aB/gpMhwVWEZagOSEUfvXJ3+neo9ZDKorWOD04Kd+kjECi7QFw4YZm9HeH6WMjpVN+VSKCoa4YTA3CL31LB83/wVV8LqbKiPfElMylfwLFQeHodZhxrBGRh86nZNDUyLflOGowLIaAcScEb2gMDWwfTA9eHZuYwC28N49bdCfZVUQG9LEArHTwXd09i6NNRswl1+yw4rd34/5RmpMjCZ0GsjQbUhRCgZ1p0AYTiEjjc/qR0buw+31S7xY6CsRkyWSyawaH6fjZclgrSJU7lmZSGTVbnylFq7Ske8wQqddIytEIcJCk4xhDCpCRgyhkoOKEH11ltMcpNCKZHDAny6CdWOyvvsz5PH89Wduv6qsxP9t3Lo4k1H6laz4AkdcIPcaUmJdPa8q8ieTkEXvv6s3ua3qzYpGh8ihZWUvY225XDa9hsBPEeuw0IrAfx2SswVnLACosIGo1OmydiE0L24sVGyp7wC4sQYQm0SHVUfO1LBJhAaPg++wH3XhAY/+h3sLFhst5n03N/f71C7JjoMfvwD8F3VTjJMYRgW8nw3BkxoU2qUXD28fr8ZohIzZ/wDjk7r9IvdaMZh2rAq8LY1XIECL8jpGqK1yBW2PQQkhOuErMiU540ou9/svAgHyA+64ijRTwnIZD3Pnauwk/89H6HIsriYKxmaZvzj4/hi8SJxe06AfLGxnZI2/a17CPw60VhduibTtg1HjJ0jrP11x0v1GmfaGA9vrfX7rvxgVHhGWmOmmkWt8YW6BsiePlt1J4PzCheO4QzvsHi0RknFFc0ovSySS8henvLBjtyolrIACsWicisYBp66KnqkltKO33ygOdEdi1v7iJFPNssCT2Sz+7/jjgK0QhNuR1peR7qloDA/Fp1ISGhxBYlSgZBorpU8J51WO+PlGsPjPpCRQ2t8oi54rxZEAM5oChaojxzlZXcLS4PZsKl9Cs6sgLBpvjTeJDFNFo2w/+E4s+O0s+6NXZRaaEZC4Ln6xdUC7GO+XYQ6cscl3fJ2hGZcgnV/hr2CfmuXBZqwF/ilbF8HcRHTG92ZSiIxGAChdZkgzgx2LGQs+KMUpAKDwTo3Gf2AmpGBe/y6OENaYJj9AHNaoaSyH2s57Va+YSmFEWIiF9CGmBVUsdmVBf1smZcACM2s1Yib5phcHRiDwFiKNA39DwjO1FMcGmPYIEPd3TwypMRLmvg+6bcloQ388OFM1qD/mG0B8lizprjCc4CSr0QEsijUFm0MuH3zvmpn8m/K5TeQp4DwlBDlQok1P98A8XI/0l+dRGFBze8tSbWDprRjxAnYUsRJ2PmCz7eB24WkLgO+gyBno6SrsEhThsGtfIoP3NBjm3e9BM3SPadC7Q81BvBfWs2BF+ceg6BbQ+FNx8B9yKTRIk9Fg0q7fwipZOzWhdQO311dHxEh3kT19VBjnpS0A6U+BGJUuODglr3pxqMO+4Djw65EpBOb323D4Y8r6Bn24uMihEBt/Z75QXtMUWIsp0lQjwocJR2Od4T34y6JOc/yDQtXhI9MtYVoCIGzc0RvCdFbyxMhDEmiPAqEH/RSquBVuHt7JFQPEIXaNWo/nKj+v8zGbAn9GHh/K8tFofBSQoXSDpSUAe5e2nIJG0a9bKskBFrW3IkzGc/FdrAFcTK6YVAFyQKy3YD4ipkG2D8ykhXe/tJ60BACnuSY4pP6Sm8fVHPIqgvsaBzSJiTZ4IVSlwowlHbakJQDo/aUCYFHamE7mbuF6tQZwi75iOu5woLZBfx5jvVjw2z4lmjXeFpgCoCwAwrMvBOCQFGnsCbLM5j0fxbciB9zmAHzgEY7NRsnDqLST7hpTWQA0nZzaNXKX7w/dPuzeJX3bz+IawJY1vQ4A62JpJ4tjr6dAHQzLFrVHWQCwBjlBliSudcFOaH6eQp0CCYvZuqpd0qN9+eFYz811W6RtLTQetruXmKUMrJu0S9mcXFkAsB0tFQBcAvF0vthaiCOAaPxlfv+TuHtgXWhq+Oh88aa35SsMBGG+Ipxo2T6axqRtNTmikgAIt4PI9MvJEbu+x9roc13D+up3ovGjNxIbMxU42fREUQjcaw3MItK2Bsdd7gpAsD87RkY+ViYf5fOQRSFNgbo0/gTbikKQ4IQLvzC/lQoA7L2PVc1GaQTgnI2SJYglh5QgWdzeBLNp/IkiFoUgwYksf7npMNuAmTjOcwdUslESAJjNSgUAB7r/oZKZVziFsAYQjb9fwC8ufJDZoxSFwIVGIO41w0J4iyQpjVVElMyjlQQAW2xyAYhZ0kWJhFBXQIUwBQoESr6Eqw1HKhSoKAQKTHJE4eR1GQ6l8llLIq6jAIjD4nAjK10Aw/1GXgUgUZh8/govBjgsMB7roZ0KdBSFQIFJMhQcSJK2Odz+584IcNj46P4gpMSOGFHhc1br79jB+1J4aHnw+aIQ5KrGucMIoHbSz3EE0AJkuLRIjPxPCs8BsBDWAIliFoUgwQlvfzHFkfoCglObESoUOJ8YovKEMBRtVMnIS5ySXfqW2KDIFLs8KNGMVLCyWOn7YWIfT+NsV6p4TmFCCOC2b7zGyBosiuXm43v2CU4X0yintIvwdg6YUbLJJ/FpgdPZw1V45SgA3LKG4xIF27SwGt9kC8wRoMM78op0s+u4lyvteCr5FIVAhUuZ47y5JrB5VJURQwdj14YrxH0D4jilLBfHKRDT2FBZAvA6tkkG78uw4nTIu9oXp/TQ+N+T5jA4KG27Iq6jAMDIbYgsE1glfSKD93VYJkIgXM73db4pll/a9hg3Bzul4ygASECaCGVMOHctPhIOpCsEuM3xyaIQSBjaAcKhf9lmGGEOnbdIxlEAYFchHQFaiSklwrkYfQOjKATu1zMu0ZB2vrgNU9p5C4rsFhBJ1HKpDyCtlTkKQAjX3pBqQ9lAKSnz3vaK+/nITdg7WajgjrGiYyQYW9tU9kpvY4Qb5YEGcgvUnbYPXCZK266IqCAAcvfcO0lbxJaCDsCO40kpRPEFJ7y+AIfWDH7FlEtaFAIJqyjjUG/bMxO3zJRKosdBEvlJRJVft9Mv1q81gVn89YQDFTA2bO4J7sw9Kb0sUYu1yMC4Y9kNAZBLEeY/ciKkFBaBKhyAum8vLUB/pILbx3CcOl/Hu9IURgAiTeTOZlz9U3w85wB2NovHKrtwGbfoSNueZVFp2xXJOQoA5qxml3w7fYZGy+8I64Rc/MiYA/CGsCPjyL00IjxASNsvzrHYHp5PsESaQAeSVMpg6eIoZYnMir+ZcwBnDR7LPHbvjAlHDdI5Pi4WcJyeqwiANJGotUNKRO9kfW5LBbXpQ3OX64/kNtfCzw2uOqWdLyVM3nmjiI5qUCiZpIkwzSclQrAxVoGhiJMXC5+l3lOI89PYvyHHKuwDxInBGL7M2qbDLz5iFZ9OHMBl5dLOF85ypZ23SMxRAFBhEXtNKyHxW1aI3F/jnc1UEHJ8J+r75Aen86qji9GWv6FS/Hjj36qfB2vXmAp+X8OBKUR/Ju8XHPeonKdA2G2TMrbEkppKSOP2KWBH43e6X62DJ5j2NFjFxi9tIbioUdr2MGTK2y5SdxYASqX2Fj7CHe0tpKXoE8D0G7+5TT+32PPLGwdmJtK2x4izmY6jAEDKpFLEGZNKobwIfQFabPye1TKTG2qazJR23oIuBQEg0kQwBdvXswL2+ISLjd/TKuRc3vbanE31HQUA2orNskJwZg2XwfsurNj4vaz70ATeH+kPkuRhfvBB4EMJPA5y1AJht20jbFHsH05H2ANzB6mvDi/AgDYIUzaYwNIKXKRQAdVrBUgXJrEV776r91v8Cm1Lpig0IbIfvF78Ljmsy/tm3LgIFWS6D6e41nMJ6LhUJWaHqrOo7VFhVgcOC4TR7uz7b5hKv9+1vlMl7ygAJuWbfBKTU4AKQgCgXr8cFyN09AgwHBCljf9rL/aQIRGxVuncI1AWpNQ6pR2j+39oETJw+ZLo+dUaf1zbs80bVSekXXOs4O7FxlUQtIRoKL3NA4ijft0mqmvBjNDh0sQo2SiFdwDtRagDIdrS5pTQAbOO57pKZl7ioCF9KkvfX0a+2A3OLameGPIz/KeTeb9u8WwDEj0/n2GLkgQQjd9LbY9G2eFJ2XV7xYGRlOWnzCrrhpwUAPPsaNJnXl4txg6VZ8w3yeHtUEcBuGVVxTZMJWwXwmgkbMA+ao5IVQjKFAd0fCCL6zO7L9ZDzfr7DkZmWqsWPkGW7h5Ye+PHSKQ07fG68Qu6cLHoKXvo6/6GAyNvdg8VIdThJBXPuwDgtjCpcHOLbUhdts6hjgLQgf5652idv5il5oi0cyx3vzAsvy9NkdER3eEwpyJyEw2cKx3XPV73kPqpLWMKqfEL9+AQ7pO6U5ocQl9I/kp63yvpvdsr1lc7uwXmPMDBYTNTc9isJABoJOtl5YP3XKn3aFlc12AWf0eWFspwYCo4Ll/+c6rwRBj8HindOlizLPAkRsorE/HsfnPR84u8Syoip0J5YesjH3TEzO2lz9vQ2X26mIxo0Y+TP3P9HjqM+6HsOESWrxlTc9isJAAmoVIBwJU0x8qIyQmMMemCFXcYH5ySDh9/KmV4IhBXQ9VPjkqZnUCd0xj8pUwIctX4BT2YI9u6ihRwCMdL2GneJd5TPPunCNsdBM3gR7s/8vFyiHEksrV32IyzE+IOARXSlATAotarDokdpXojh0M6GYOh9pI6S4WGKKW7bGuZ/jdMn+S73ZRPVSXMTghy2fiFS3vMkStlNGN6tMYWzuWaPU2jnbVptgl5A0DLl6/LOH9NNWclASBbg+vRSMJ2iWJ64WcDotJ7xOziuhW+w2r7lywt7FgPg5CWd8UJYamIXru5a3jyN2Pk/ORvp/euQpDLxi9o+2pVy2lQAX9BRmcrtR5PBY93ZIzslwqWCONt8s3RBJ5XvyaXCwA6Q7upXTeSlAQgbpTFyV+7xU4KwJB6YtJnzl9/trL/Z2jI9nNTrFDJwOjXUhFmcr4sVfjuMMoPg1eGlHF343R5SQiB2OTyUtXZJdv4J6PWRanCd4dx8nb9srKU11qVDA6PRIdm2y4gzFFzZUC63tqdj0cvaGvSEUDT+F9Us7YtaLcEOH+uW1hSAE55nJ70ma/XN2QZY7GeepTaHlyDipVqNrSANlOWdiqYEILahuDZubTqFHeVoQGfnYqeRBjclD2aeO/6G7M0qXoR+Bvio2bXiDn6Fh0Ryre3bXZQUX0Wjtlpt7pFUxcAosmlCiNAeptG3WjJPoCSV6SJ0NSeFdBAoxgfmmRxKbcuSDWFksXJB6ysxP9t5KvL8jYN6yE7OJxNOY10/7aLm4twza9NkOdD/xm/TFuOtBuqLABbPy59Vgx/u2N2fykxWGRM9+DchYA+6TQNBzPtp2kWvVdKKaX9fRWG0g6vNB0PgfH73JhcFYuNj1dDq8tftSMDl1AfZweLh1MqHWWlcd0AUj5elgzuBntCBu8KUxaAO16gBpRn67omkPztY+zM5O9cv+PWkJdkecKP5LDQmdEDU+HUNAWewRri7VSwRBgUAbMwCvgS34X2+9UpxtmYHoyQ0cVNco8d/IcTeClgqaeJHZFwDPFFu/heh4vpHfL4piwfHISXKjS6xlUWABERmw/yxKF6y2cDCTUH34MG4N2uhUz+Zn4+Ovl7zzsUhxZZvOe7+5sQIK0i+p3ukPyHCAfEmo/OllEiNHmRttYH7XD20o2jUclCCFI+iG9FdkaknUzKiC4FlvlLK7EAtu2AMAOIfNJS+kw62aUlALzNQbooGUIHh/M6DcIc9k8yBkCIz7CDh2Oti0UjsYPHwxkPxVWFUqTcA1ll9HxcZytdwGJ0uC9u22VDHqxAT7YBxYNhOPKvnz45KG8OutD4z5XRh72NpzscMMjQOsHSEoCaxwNvIRPpHFCz6Dmdcsjxh2Wxp2RZQgDGi630VDiicYhGkgqWCAN8P1ZhFJSfTiGQcBNYn6Ax1a/ovWMx9otUsN1hlEunsEhDWb++O02XXm4Y8/lg3Fbk1Lk2pJtdWgLQkbjUQROnbGo+zaMty5KOALAB6K8d3DLajlG8jd4OWJsdXIRjKlQbmmQMk+HkEqYNiMxBfsNleWIjcFloReC/djg/mfT5EEx/HFzXcPvdY7uEXQoP9tfOk01/kE1bpLWlMd3s0hYAM0oflmWCHnbAwKHRaTIcL2GhFWUfgFFSdShc5lXZ0VCzUt+IhZ7tQlHEwyhQxkr4r+zSyGV4fVXLoUSj1zjkCdswrVaGM0ArOQvlkrWHNr+pp6VhkeWXNoxRqQYOM5MnZNM7u/xkBU4ZJ7Q6sEGo0lICOwIZ4ZfJ4F7DuEmlOn04UzrHbhokaLNMS0wnoPWyf8C4SfWVxqX2GN5D2rU25u/QcFNO6fZQwJeGlpVK9fca41LjOSwwn71uBZVuFu7Jz923uurwMRjBpPsToE/aMdtRlLYAiISoSR6wSzAejk2xeM8kRfIOGGuLSQUAOQ+iBxuT7CgQowjMpOXzZUTGgvvOukk7UxrZ2aXtZvhQ3ViI0U5YRsoeg0RZSIYw64wdgyxCJspwIGSrZHAvYZQzpw51l7UtkPb8X9CckQCEd8aWQmcuPxdKrSu9ZIos7dCqfm+APmmPh3n8d2RpWJZej0XfOzIcwHRWojWIBZoDnuvgeVXGd0DfD50S5hatn7Nal5ZjYMB3Hhq47SiCfCwjbG8+4URDNnDBW5jZXChLAyfb/iAx7ZZFzUwAbn6q/xakKpU4rAW+fcOEnXtJc/cQaDH6gCx5SP7E0HhjuB1OaCWNYCp3hR08KXxkcIBv1cJxvCwpzNPX+ZXhCTB5udsxExx53Lw5cJsTHvOx70pxOFk3f21wsxTHI2BwQMn3kbQuS55Ta4kMLoNlNAKIBHFNt1OmerDUJ4jPy9PSwpeKnkuSucZ0Lu1BZzeUrcLcUqr1Eumj9/xGS5mxPBe2UPWV0XE43POYg0ZEkGValF/u5BpkXrVxstP+ARaY0s5EZObF077fwn8gS1usR2sbyv4mw5HBMhaAuQ3601Apvi5LHEPXD3LZMybTMv/x4PuwgJZqLdDDz+hwsJQctdO7ua3lcgRs6hSY6oOSMW2a8WxocnifVGA3wuqrjOk4vrAKjT/olB4a7U2wRH3OCQ+nu651wNmlhwPLHHA8AfsGRi5G52Jv+YlcMcW7M5vMMxaAeKYW+Zk0c+wMR4PRH0lxPATGiPUbafLCwC0YvUqGE1o3cHvMiu9Atsnw4jBKjvBp9KX6ql1Sgy3HdLogiE5kflXkV+hQ7lXo+dEqyFNmQ2B+l2S6fc6fumsUNGJndgN0CqAPXbOWhjsF5eBDaLg4dTDtwNFMa0Pgd9mQk5UAxDYE/oApwgdSAii/xqmXlcbPBtgQfBzRbTd/RNKg/8cdRla2OYWagi/hiqIf2yIkAyjZl1LWXF8VvteNxXH91OjYaLnxOoZ6lfUI2j55L2LCdFucdHN44DrEUUhiLTFHbZhDNhmBvxAwLkfvv58ssuj9Q2/SVhmOEywrAYhnbpFfyjJBjzVQ0yNqjUeWUAYw0QjQcKUVKDbuyvz+G5ySr20K/gqN8KdOeAk4nEdND/b3baybErl53kTjgES4yq8wbKufEp44ryryJM4hPIGGMEIlHhr/FhwHHrdgRfnHTvh1U4yTsHg5S4YH04O1cY2aDMkDWGgSD6Is0joBPByJtfw22+zB2+wesfDD3PdtMHOIXUqCWDPGRwr9uh2OV+Fi+hAtM4R/U5lGqo3H2OE1KwL/caIDi0Ys/tU8v+1OCyob8OcFrJn+iE26F80o30A2Bz5o7704vW7stv5l/fzD4cnwCNxseBIa3lmgd+ju+AovcR5b5DQxWjmhi3MDR1QZr4CmI2S4lklPrl2uPyvD8QIGP68hrN/mytLGPs0ttcuDUiGRxU/AshYAkVB9VeQaVNitiURT/aKCltY0BL+dCuZ1GOibBfqEjY/9g4MUcxrLxtkjtENE4xlVFbkHPfx3nHCd4Jh+xVABGhpiVvUA6dqB+U5VXDHhlCng9ZWRK7EP8nMpKidP40jnaVIcD4Czx0X218uJ6IjsVZ+cf74lEhuRzskvO1KzmgIlEjVj+q/Rx0mHXWxlX1g3NfKNRJxc/uJQ+m9B3/vSPCk9HfP2y6Q4AD6KffCaxrKL0ehqkSbkOvMHQin8DmfV+JH7Jt4WO0G58Z8VPRg5LnCiOsbJ9U44XsADZfGO1L7xI1NMa3/uRuMX9LsiAGLTCL2ZfEGFitYI+XX82J4XnJOkKc78WhYPSVDiIPTqt9udGOsat6ZBr0evez7KHe0Ky9k3bt6M7TK/Ubuy35sqec48ipcQv7UUgidVo6JMj6hMpVTyTAcHat7TQNt5DnG2hsMt8tHcIYFksCsCIBLcvFm/C4yTzqEBP+rwKcasZAJy9Y75orDwdJofl5cErEfaN2CcKattDD6k+bSjsN32D2dsVzFMrEMW4M6Dk0Nr+32imvKwA4zbMdxIR2EMaeFomFytmqZbeHETesqlJ/JEXlgf1bp5KMc1ARA7joxzx8aNuedNqr2sW8xtTwf6FIt/HxUsVQ8KIdUGioWu2nPjo6X/jG3Xj0Wqs8RcXC1WFlic/CUWtY6e01A222mXNzmX+CYaIdJd1Tg+Jzflw+xh8BeNEITzS8k0d3uHacf6xuBd3cKzCHBNAAQNs5vKmmFL3yyjRwy/Pr8FOxYoFXP81DaVvYJD4Y52/KDxQpg6z1UlT/j9mdMU/PnWcOuBcDM3D/G2q8ZVxsN0Byrbs7AwPUnm1SFVekKlCn479q6I+9L6Rt216UUqWlKFCXNnhP8kFSw5DD5qZ4k1WHJYtu+uN8LQxOhIXylcU0sOVwui0dNei+uHFmZbgHTji6F24NDIy4zSrzjFxSH5q2qagtJ9hFRptOcRnUaJdQFUn6PBZH8qPMcwLNwRtynK+D12ntyc0rip0hiD3d4VTvN+pGPEqHak07kBp/zShQs1dUu58SriHSSLi/bSgPYyVYaTCcx1ARBEYJPlRqZx6aIYU5HWVsqPy7RiMylsIk7N1PDX/XDv4dgwoeUBnddlI6hinyTmi5xsmvCgzegRyHMEGqPY4eyHvxKhSUIeBsKwiUXewedb+P0bTq09X9tY/lqC5kx+51eHz8SILAznAk7xsas6o6ZJl56Ec0ojE/i8qvA96CQucYi7PRLmX1nwx7IPHfDSBnsiAELbsP8w42UwfpSUItjsx7bpx2Rqyy1N2wEIlecV0Po4TodEMiZsnniTfq2KeYFDtp3AWGz7QusIhnQoiV1+oOv/IdZbdyBZKN/kDxaWDwjVrhzLfWhdZeQcOB5+2Cll0DcT9Cmvy5zSS4Z7IgAiAzGvw0VmL+BVXgGcPIp57TnJROXqHQvDxTAwc9T9C3pQCWu3x8wL4k54c0VgBvm073xH7oRwT1eJDsl74RNDPzVddyIqactwxIlBSk2hlSuX4WF4XFfTqJ/mRSch8nV1EZxcEGGjbZnyaVAcn5JpsJfJudpN5L353cAVYPAzyXTbvaNBjaso8f3DbUtPu/wyCQ9VR44T82nVxo+p1tvmLrMy142//dyE2Ygyyhs/tGq0hV7sVeMXPPZsBBCJiyHeN9B4FrkcJ74ljwl3KuPj1wxJkLwACUtVrdR4CtOFo1XTR6+51Ixa10Ib85FqHC/xQuN27q2VM+zu0umoULVODQvsmEFPDK3RN3lJW9e0QzD0Y1VGA2yepnSFdf2GLdIFsEX6fddwN789FQBBqND5a34LvVJ80WdLu9Chiy191V1N24QyAIhD4YPL/eswzzlcNTpGjgimTz/f1dJ2WybuOFTzkeGJI6dlOrsKPfkPsJDsL8PtBEPj5yYbo2L81ymeCx91VZGfofE7Wwdz8iCmxhe6kKU0Cc8FQOQOrdD50Ao9KKUEQPSs76BnPS4fPauw3S/r73tcYbTqVAwhCBDe/7NaY7/OlekwGtHxUONeDI5dBGKkdjOdiMUHePw/M0LH5rrnF3SoKh7A07fMqH50qJl+3pV+t79zIgCCaMzzf8E08iOnAqDwf0fhT81F4bvSIuzQfT7jYQjBWV1hKt8QhDeA9wi2nFdbTcF/hBQOpaikG78V8ZDoCbjgQ5w0q8TfSJV4XXHA2+fMsFmdjvlE1zQy/Q5Vhit9jD6G+FKlCAQ0zNvU7ZsypScRL2cCIFSjw4YZf0LjOjGRue2v2O6P6WcIIztbHI8AwlgP9krzoJ67DrRmzJ8Os4jnuMnXc0bfoNTaYBm4XM7QPxI7x6nIFxtoAwa27K+V8v3QVY/ouKziSDTcr2EKGUwVRz2M3h37T+CKbE9Qqee3B1Mc5CfMWglm+veEpn7Dfsl5c5cHHVWjqWOnH5pxBaefFdYDE3cN9ZWyl9Gs9nWMD/v8j6PBSbnWUCToEptIYmqD70GJMFd+hQk1hQdqWJHCGCSKX5hEU0xjuK7SQNKlQQgiVLjfFYZ76cZ1A1+cPIMgr1ERYFy3e1vtsuA1buSrmoaaxkA1NQc8Mbe3iHUmerSdDqhQaNDT99ajDaqWmY7ppYkgXKLA6OwwWM656xGhfVQphxAMQYPfDw1jqDiW6UXjh3A9braRUXlu/EpeLFD+JlxZe12a1ZQ1OvLN/dOuS2crUfk+x9xxMgm7xZPzsVucoE3MXzVGhSnxiERYQf8K/T5sreY2Bd0V3jQKHZ/2UKtRpedHsi/F2rDuy8OUNy8CIPgI72YzMTdepMJTLIxeMLe2TBQuSlTwvcARC1F2sDETKrw56L2/4EUeLqT5IQz4bjbf0hflY66foL+jw3gYjctxzo+63YjNuOPysTAX9OZNAETmdVON63GG4Gbx7vRg6vwvM8Im5kN9l0yb0BRpLHIRZeyHMOE5LBmWt3c4KEPDv8PcEHgwnw1flL9D1SksaKXaHoGLqfAHZis7KbQq8Lb4zseTVwEQBYat+jyqyR0g7WYMzh3D3d+kbFzh7U7LhZebqo1TUcvnoyqrkZy7i2UH+tBzfsJgR2VS/kAh8CPUvsO7UGmTC2VD4/8UMnJKTWPpvxyK6ik47wIgSgevZz+HRuRKlZKCceL88XT46XlEBT8XOELFu+/w8Gm4oXAsBOJUuBv8OhjrqoIBZY4izZfRAayzCF1FGvSX3NpnyJZHwranRTOWovE7mjeIvFCWbWaLdVq6B3uypTNV/IIQAEEYPEYsRI+mbBQXN1Herl9vp1NPVdhchV03duuAsjJ9FE5fHk4YOxwHYw7EZQL7QNuzD2iwHSnQMMT+wCf4+wjS8x40UP+BGvPf2E97/b13gq+mcwQyV2VtvwfCFIvdQ1TyRBk/ReMfVwiNX9BbMAIgiBHHEKEzDol3lQfMXAdmfisfphMq9KXCERtth40m+s5+OwM4KRNotbhpkFjLAH//aGiluJXG/bMBqehwI6zDnl8copFadSbyQn19gGnP2HxPexL0iN+CEgBB0PzqyE/AqIWgTIk20aNgUL0EByYeF/GLj/cciB9jLIv8Ens1l6jmFtf2tLCx+VzwpqJVqZGliuhlGIy9zsMU4H6IQGka+fxmy4f61e032qcRq4iaFgc6Djr9HpGkZ3i7JPoS/BdNypeqswstnT4LUgAEhaEq40Qf5cvxajtn7lSS9o//wnPATFUvaSniF4NsOCDslITrEoCF9wZHFWciGTSwprY2/YJ8bHIlaJD9FqwACKKFhwmt1BIeDZQWWImCYs/gHnNr69X53DhL0NIbfoXHNixNFqOxfCmd8gjbHmHeEHLJKjadvFVxC1oARCE6VGwPQMVWpVoogdexNphtNgbvKeQKSKdMucYVjmqFr050QE7uCjuRhvl+GN6bL82lVWcnAtL4KHgBaC8Lp7AtuZ4wPg8Ep6Vfx/7Cq3D5cVVto/5MGnzp06jx3e6SyLXQQ1wLRqR34AaHWXjMrMrHyb5MKq2HCEB70aAmHQ0hWAqi90u3sLhKc43JrJrQsrKX043bV/DFtUTiZhb04Deg1x+adrlxjDEW1b+fj8NMadPaEaFHCYCgWVxnVO73L4KGaFomhcYu7XLsptaFGsr+nkn83hhHmJyLC+nEnVwZdS7izIFJvu/1AXYveN/jBCDBhLpK42LG+B34rkiEpfOLNcKfYIh32+ym4Bpsh6DT63uPOAfdfg8v/wEawt6ZcAB8XCdclzhdxp1J2rmI02MFQDDnxjPCX9SDFLcnEmGMltFjcf5Pyuld5vaWpX1FaxSaGj5as9hMqAouAO8yPWq5HSfNhH/Xu3tyB9KjBSDR4udVR6rQEwlBELY2GT2IH8W06lFi0XvNpsCfe5vmSPT2erl2LvXRyzDefS0jJnVEAq8ajAj/gRe+OrOhK5O4vUIARMExjy3XBkVuRG/+4zR3kFPx7UOo8R7Fds8jtQ368z21hxPrpTJ/aSU6hnPRW4/Br/MJvFTcSITBP79wUT63MfBEIqin//YaAUhURP0kYwQv4QuhK52aCMvqF2cQsLH2R1hlNm+LtK11626qrGiSRIbjga8xXRtPLT4BaN/MutG357UV93LNfb1J/63b/vklRckJqNcJQIJrwk+mZvF6yujYRFi2v1gpwxSfrGcWeQ6XyMHlCX0utFJ/N9t0M40vjmmSQ4wjSwg5AWeAT0BjPwEVmtFiNiUNuI1RXEgn7uRy81qilHnlKbDXCkCCn7jX92QM//VoHCcnwtz8hVAIv/7iSOJ6LCpfxy3x/zWjZNObawKb3eothf/SkmB4ODb0RuDvy5ia4awBHYXzBcJEBO3f3QdlCkOteee2aNvCQh/xsi15rxeABIOEO0EU9mr04JX4TWs3OZFGOr9YKMYgdO8hzie4pGIL/Ih+BiHZgvMOBrFYC8JbocbFcQBcm8FpKSeWH6NVKXD7o2ELlymDARkCmw7hQykdg8B0yOyEC5o/goDdKW5gz5e/004E5eCjzwhAgpehydGDSjTrKszrL4I9e/9EeF/+7TAXufPTaODBfDkiyxf/+5wAJBgdt3fxRc/FHthlYMLxifA+9LsL5iF/4NRaUgiH6vPF9z4rAMkMr5u08zC4OfkWvFOci/B0DnokJ9MT3tugzXoCU52HrW2Bhnw6GysUZhUFoEtNhKrDR2qUnkMtehZGh8Lw+9OFxnQ+0diF+/anEach0trS2Ffm9qo8KgqAhFOhScYwrBfGYzE6AYvVU7CoHShBLwwQFjfQEP0TJh5PwE1L8yctpc/0tXl9OhVRFABlbnG6YFrrobjF5kScdIK+nR4LjdLBiK58PFA5qzQQ0bvvgKboNWiYnoeG6bmtkdjzvV11mQZ7HFGLAuDIInsEYUbMKiKYJrHD0fF+FSPEgbhrbARsbYYjVkZWqja5mWjg70PgNmKvYRO32AbKrPVmjK3P50acDa09KrgoAB5VV2j0tgoyODiUcXMwzK6HWIQNZoRXQPNSissihLcLv2VRP456QvXPWzBdaeUWF/sDEcLpVtz0+Bkn5hbLZJ9+8EHgw0J0iuUR64rJFjlQ5ECRA0UOFDlQ5ECRA0UOFDlQ5ECRA0UOFDlQ5ECRA0UOFDlQ5ECRA0UOFDlQ5ECRA65w4P8Bedc2gMc/YxgAAAAASUVORK5CYII=;fontStyle=1" parent="wKkd2Ftk299Nv-PwKDOf-33" vertex="1">
          <mxGeometry x="485" y="244.5" width="70" height="70" as="geometry" />
        </mxCell>
        <mxCell id="wKkd2Ftk299Nv-PwKDOf-31" style="edgeStyle=orthogonalEdgeStyle;rounded=0;orthogonalLoop=1;jettySize=auto;html=1;exitX=1;exitY=0.5;exitDx=0;exitDy=0;entryX=0;entryY=0.5;entryDx=0;entryDy=0;" parent="wKkd2Ftk299Nv-PwKDOf-33" source="wKkd2Ftk299Nv-PwKDOf-7" target="wKkd2Ftk299Nv-PwKDOf-15" edge="1">
          <mxGeometry relative="1" as="geometry" />
        </mxCell>
        <mxCell id="wKkd2Ftk299Nv-PwKDOf-29" value="TCP/UDP 2049 (NFS)" style="text;html=1;strokeColor=none;fillColor=none;align=center;verticalAlign=middle;whiteSpace=wrap;rounded=0;" parent="wKkd2Ftk299Nv-PwKDOf-33" vertex="1">
          <mxGeometry x="140" y="244.5" width="130" height="30" as="geometry" />
        </mxCell>
        <mxCell id="wKkd2Ftk299Nv-PwKDOf-12" value="Source Server&#xa;(NFS)" style="shape=image;verticalLabelPosition=bottom;labelBackgroundColor=none;verticalAlign=top;aspect=fixed;imageAspect=0;image=data:image/png,iVBORw0KGgoAAAANSUhEUgAAAMAAAADACAYAAABS3GwHAAABdWlDQ1BrQ0dDb2xvclNwYWNlRGlzcGxheVAzAAAokXWQvUvDUBTFT6tS0DqIDh0cMolD1NIKdnFoKxRFMFQFq1OafgltfCQpUnETVyn4H1jBWXCwiFRwcXAQRAcR3Zw6KbhoeN6XVNoi3sfl/Ticc7lcwBtQGSv2AijplpFMxKS11Lrke4OHnlOqZrKooiwK/v276/PR9d5PiFlNu3YQ2U9cl84ul3aeAlN//V3Vn8maGv3f1EGNGRbgkYmVbYsJ3iUeMWgp4qrgvMvHgtMunzuelWSc+JZY0gpqhrhJLKc79HwHl4plrbWD2N6f1VeXxRzqUcxhEyYYilBRgQQF4X/8044/ji1yV2BQLo8CLMpESRETssTz0KFhEjJxCEHqkLhz634PrfvJbW3vFZhtcM4v2tpCAzidoZPV29p4BBgaAG7qTDVUR+qh9uZywPsJMJgChu8os2HmwiF3e38M6Hvh/GMM8B0CdpXzryPO7RqFn4Er/QcXKWq8UwZBywAAADhlWElmTU0AKgAAAAgAAYdpAAQAAAABAAAAGgAAAAAAAqACAAQAAAABAAAAwKADAAQAAAABAAAAwAAAAABu8xvwAAAGtElEQVR4Ae3cMY5URxSF4Z6R7cyS9zCSM8shG/CKHLEEIrbCBtiAQ+QMiT0gkYEEnoYIWcxRv6mquXX7G4nAvv2q7v1P/bzW62lOJz8IIIAAAggggAACCCCAAAIIIIAAAggggAACCCDQlcDNboO9e/7Hl4d6vnvx76Nmsv5DdE+n2Xwe3n189Xb8klZEYB8CBNgnK51OIECACVAtuQ8BAuyTlU4nECDABKiW3IcAAfbJSqcTCBBgAlRL7kOAAPtkpdMJBAgwAaol9yFAgH2y0ukEAgSYANWS+xAgwD5Z6XQCAQJMgGrJfQgQYJ+sdDqBAAEmQLXkPgQIsE9WOp1AgAAToFpyHwIE2CcrnU4gQIAJUC25D4FHfX/26Jjv/v7z99Mvn1/cX//X/Z9fj67juhYEPtxP8fr08fb53cs3b1dPtFyAr4f/58//nG5Ov60e1n6FCXw5vT99un22WoL1b4HOf/M7/IVP4hO1dj4T394VLG1gvQDf3vYsHdJm2xA4vyVe+vMUAnjPvzTirTZbfjaeQoCtEtFsbwIE6J2v6QIBAgRAyr0J/FRtvMf+257V5tHP9wTSvy36/avn/5c7wHzGdihMgACFw9HafAIEmM/YDoUJEKBwOFqbT4AA8xnboTABAhQOR2vzCRBgPmM7FCYQPweo9ty2MEutDSAw+rylz5XcAQaEZol9CRBg3+x0PoAAAQZAtMS+BAiwb3Y6H0CAAAMgWmJfAgTYNzudDyBAgAEQLbEvgfg5QHqOeunoo5/zXrq/19cmMPq8pWndARIh9dYECNA6XsMlAgRIhNRbEyBA63gNlwgQIBFSb02AAK3jNVwiQIBESL01AQK0jtdwiQABEiH11gQI0DpewyUCBEiE1FsTIEDreA2XCBAgEVJvTYAAreM1XCJAgERIvTWB+H0Av7/fOv9yw40+b+n7Be4A5Y6AhlYSIMBK2vYqR4AA5SLR0EoCBFhJ217lCBCgXCQaWkmAACtp26scAQKUi0RDKwnEzwHSc9RLmx39nPfS/b2+NoHR5y1N6w6QCKm3JkCA1vEaLhEgQCKk3poAAVrHa7hEgACJkHprAgRoHa/hEgECJELqrQkQoHW8hksECJAIqbcmQIDW8RouESBAIqTemgABWsdruESAAImQemsCBGgdr+ESAQIkQuqtCcTvA/j9/db5lxtu9HlL3y9wByh3BDS0kgABVtK2VzkCBCgXiYZWEiDAStr2KkeAAOUi0dBKAgRYSdte5QgQoFwkGlpJIH4OkJ6jXtrs6Oe8l+7v9bUJjD5vaVp3gERIvTUBArSO13CJAAESIfXWBAjQOl7DJQIESITUWxMgQOt4DZcIECARUm9NgACt4zVcIkCAREi9NQECtI7XcIkAARIh9dYECNA6XsMlAgRIhNRbEyBA63gNlwgQIBFSb00gfh/A7++3zr/ccKPPW/p+gTtAuSOgoZUECLCStr3KESBAuUg0tJIAAVbStlc5AgQoF4mGVhIgwEra9ipHgADlItHQSgLxc4D0HPXSZkc/5710f6+vTWD0eUvTugMkQuqtCRCgdbyGSwQIkAiptyZAgNbxGi4RIEAipN6aAAFax2u4RIAAiZB6awIEaB2v4RIBAiRC6q0JEKB1vIZLBAiQCKm3JkCA1vEaLhEgQCKk3poAAVrHa7hEgACJkHprAvH7AH5/v3X+5YYbfd7S9wvcAcodAQ2tJECAlbTtVY4AAcpFoqGVBAiwkra9yhEgQLlINLSSAAFW0rZXOQIEKBeJhlYSiJ8DpOeolzY7+jnvpft7fW0Co89bmtYdIBFSb02AAK3jNVwiQIBESL01AQK0jtdwiQABEiH11gQI0DpewyUCBEiE1FsTiJ8DrJ7e5wSriV/3fu4A153/1U9PgKs/AtcNgADXnf/VT/8UAny4euoA/IjA8rPxFAK8/tH0/v/VE1h+NtYL8PH2+enL6f3VRw3A9wTOZ+J8Nhb/LBfg7uWbt6dPt8/u53x1/2f5LW8xX9tlAucz8Op8Jr6ejfz6oa+4GbragsXS5wSP/X1y6z8c4mw+D+8+vrr8DjB+BCsicJwAAY6zc2UDAgRoEKIRjhMgwHF2rmxAgAANQjTCcQIEOM7OlQ0IEKBBiEY4ToAAx9m5sgEBAjQI0QjHCRDgODtXNiBAgAYhGuE4AQIcZ+fKBgQI0CBEIxwnQIDj7FzZgAABGoRohOMECHCcnSsbECBAgxCNcJwAAY6zc2UDAgRoEKIREEAAAQQQQAABBBBAAAEEEEAAAQQQQAABBBBAAAEE/k/gP2CvllqK8iYTAAAAAElFTkSuQmCC;fontStyle=1" parent="wKkd2Ftk299Nv-PwKDOf-33" vertex="1">
          <mxGeometry x="60" y="242" width="75" height="75" as="geometry" />
        </mxCell>
        <mxCell id="wKkd2Ftk299Nv-PwKDOf-30" value="TCP 1024-1064 &lt;br&gt;(control traffic)" style="text;html=1;strokeColor=none;fillColor=none;align=center;verticalAlign=middle;whiteSpace=wrap;rounded=0;" parent="wKkd2Ftk299Nv-PwKDOf-33" vertex="1">
          <mxGeometry x="349.36" y="242" width="133.64" height="30" as="geometry" />
        </mxCell>
        <mxCell id="wKkd2Ftk299Nv-PwKDOf-32" value="TCP 443 &lt;br&gt;(data transfer traffic)" style="text;html=1;strokeColor=none;fillColor=none;align=center;verticalAlign=middle;whiteSpace=wrap;rounded=0;" parent="wKkd2Ftk299Nv-PwKDOf-33" vertex="1">
          <mxGeometry x="300" y="72" width="120" height="30" as="geometry" />
        </mxCell>
        <mxCell id="wKkd2Ftk299Nv-PwKDOf-49" value="&lt;b&gt;Elastic Network Interfaces&lt;/b&gt;" style="text;html=1;strokeColor=none;fillColor=none;align=center;verticalAlign=middle;whiteSpace=wrap;rounded=0;" parent="wKkd2Ftk299Nv-PwKDOf-33" vertex="1">
          <mxGeometry x="425" y="176" width="120" height="30" as="geometry" />
        </mxCell>
        <mxCell id="0Fs1EqQwWm2RgDKxZV1P-2" value="" style="group" vertex="1" connectable="0" parent="wKkd2Ftk299Nv-PwKDOf-33">
          <mxGeometry x="425" y="52" width="130" height="118" as="geometry" />
        </mxCell>
        <mxCell id="wKkd2Ftk299Nv-PwKDOf-52" value="" style="rounded=0;whiteSpace=wrap;html=1;fillColor=none;dashed=1;dashPattern=8 8;" parent="0Fs1EqQwWm2RgDKxZV1P-2" vertex="1">
          <mxGeometry width="130" height="118" as="geometry" />
        </mxCell>
        <mxCell id="wKkd2Ftk299Nv-PwKDOf-41" value="" style="shape=image;verticalLabelPosition=bottom;labelBackgroundColor=default;verticalAlign=top;aspect=fixed;imageAspect=0;image=data:image/png,iVBORw0KGgoAAAANSUhEUgAAAMAAAADACAYAAABS3GwHAAABdWlDQ1BrQ0dDb2xvclNwYWNlRGlzcGxheVAzAAAokXWQvUvDUBTFT6tS0DqIDh0cMolD1NIKdnFoKxRFMFQFq1OafgltfCQpUnETVyn4H1jBWXCwiFRwcXAQRAcR3Zw6KbhoeN6XVNoi3sfl/Ticc7lcwBtQGSv2AijplpFMxKS11Lrke4OHnlOqZrKooiwK/v276/PR9d5PiFlNu3YQ2U9cl84ul3aeAlN//V3Vn8maGv3f1EGNGRbgkYmVbYsJ3iUeMWgp4qrgvMvHgtMunzuelWSc+JZY0gpqhrhJLKc79HwHl4plrbWD2N6f1VeXxRzqUcxhEyYYilBRgQQF4X/8044/ji1yV2BQLo8CLMpESRETssTz0KFhEjJxCEHqkLhz634PrfvJbW3vFZhtcM4v2tpCAzidoZPV29p4BBgaAG7qTDVUR+qh9uZywPsJMJgChu8os2HmwiF3e38M6Hvh/GMM8B0CdpXzryPO7RqFn4Er/QcXKWq8UwZBywAAADhlWElmTU0AKgAAAAgAAYdpAAQAAAABAAAAGgAAAAAAAqACAAQAAAABAAAAwKADAAQAAAABAAAAwAAAAABu8xvwAAAm50lEQVR4Ae19CXwcxZlvVfeMZlqSb3MuYTGHIWCcvIVswpLdcDgkNvEhCXDIbx8hG0wSsEnCkQSw5LFlcyQhEBxICM7jwW6WGGPJNocXJyZ+WRM/smsIZiEBAmh3ARPAB1iabknTXfuvkcaWJXVV9Uz3qGdUbcTM9PdV1Vf/+r46vroI0Y9GQCOgEdAIaAQ0AhoBjYBGQCOgEdAIaAQ0AhoBjYBGQCOgEdAIaAQ0AtWKAK3WjJU/X4xmZnUdZqSMKYyRYyijU0yDHckomcw8NomYdDJxyURikDRArwFPDaUk1S9nDz67GSE9xCMOMclu6pFdhJL38H6X59I38dlBDPa6k2UdNz1R+zYhFOz6KRUBbQBFIJiZzWoTSed0z2PTKaXToYvTEc00gFlXRHSBg0Dzu5DWCzCCHTCuHYzSHVZX+t+v20S7Akc2ygNoA1BQgGtmfzB5fDJxFvPImQDsk6iZP4raO6EQtGwsaFFyhkGeQwuyNUfIU47jbrl545h3yyZAhSakDWCYgssQZhhN9scoYzMpoTNR454OoIxhWGP7CjJ7hJHtaCE2eibdSNqs32UIOlb6OQgBbQD74UAfvsE5M0nZRR4jF6KGP3w/qRq+MPJnFPbDrkdXt6xPb9VjiL5CHfUGkJnlTDVT3mXo1lwMMI6qBl2X5oGRNz2DPEh7jVXNG9IvSfmrmGFUGkDmLJamE5wmg7AFqOk/VcXlK80axg6/YYze6+1NP5zZQh1pgCpjGFUGcP25H0yqHZe8ghC2EBk/tMrKsqTswBDeJYzetdftveu2R8Zy9+uoeEaFAbTOtqeQJLmOEnYpStWKrGQZfPmUvcaY0WFQ9jqUqgPzAW9T4r3XS+gu0mu8R3p7O0lPruf97vHdb2yD3x/PUWeQmnGpvSlSk6ghyWS9kXInmR6Z7BJjEmHscMMkUxihx2BcOwVKOgWtVhrBonpsj9H7vR76vcxj6deiSiQu8Va1Adx4XvZDVj1djBr/SwA8GSrojH1AqLENSrnddekOwzB37GiveXkNoW6o6QyK7ELCzOkNPVM9z52OLtyp1DROh8fnEzDucYNYS/rJ3aoYKN/n5sjyzCPWf5UUWYwDV6UBXD9z3yH1ltmMQrwcg9vCbGtpxQCFRy38K7gVN2NG9imvve75uLgVuds22dQ1DTPGZzKDngvX7YywDALG1WMwcm9vl7sss2nMO6WBGL/QVWUAl5/GkkcfbS/CzGhLGAoAA3oFk19rDfjRc7vTv8UgEbVi/B8M8hPGOOcMtHyz0H1qhMRTS5YaFYDn0VbvT9admRdovutWcpwxiKBqDKB1btcsatLbQyjsDqzfWd1D2OrWtXXPxqCMShYhM6vzo0bSmE9NMh8FPqWUCHmlAMO6urm97tFS4olL2Io3gMx5+w5N1Jt3AtD5xYLKm3nMmq4jhnFv89rU5uqdJGJ06TznHCzSW4A8N6Dwa4rFDHitybreops21P+56DhiELCiDWDZPPtSw2C3AceJRWK5k3l0ZbY7t2q0rZvh65vG1SQvMxi7CtgdUQx+aA32YFx0bUu79X+KCR+HMBVpALzWN+sT96GfP6soEBl9ATXgbe7L6Z9XU3+2GCwyp7Aa4wTnC9Qg1wDPacXEgYm0f7Fd99JKbA0qzgB4Xx9r66H8wSeyGGF/QI2faVlnranebk4xKszDoHvUYF8AI8gYlJ4cNBa0Blh5yv6h0sYGFWMAvKZKnmh/HzX3osCFQ8jr1KNLcutQ4+sVkUL4MnCp0gbnYpOwZXAhHytkHoaIbTp39b5sXV0pLWtFGEBmTteRZoI+DGHh2gv0dMI3frP3fvoHo3GdSyCkBjEvmslSh9Q638QY4UaQ6geRhT9RST3t9JCmFY/W8p1ssX5ibwDLG+2/w3KAh1AbHRYESTTJ/2Rn2bdueqJuZ5BwmvdgBOBCPdxM0Vux8+2SgyniXzCCd4hH5zevs7aIOUeWGmsDaG3oWoC++t1Y+xJk91UH84yvNK9LbxpZaKsr9aUNzqcN6t0DhZmimjNUQjnisYXN6+vuUQ1Tbr6Y7nJidNnc7M2odX6qrPwY4XoeuSPVaU3Tyh++Gi1pT//S7bWmYbPQD1C7K+0s42WHycmfLG/M3soH2eFLVXqMsROK9z0Ps+z7kTX1iS1s8HAZ/eKSdRYmsfQTNQJLG+2zsRDvASjPUcppYeIst8e6JG5jsVgZwPfOY3VObXYdNegMVWDRzLbtzvYuuP2JcbtVw2i+0hH4zvl7J9TV1PAW+gLV2FBWT6a7rDlxOr0iNgbw7Rm7x9WPST8GQM9UAZT3L+Fyu27xuto7VPg1TzQILG/IXoUu0W2qXVXwbuv8wJl5668mvh+NRMFijYUB8J1a9eMTT0CpT1MSHxu8CaUXLW6zfqPEr5kiRSDTYH8S8wZrYARqBwl45Nk9bu68OOw8G3EDyMxkY5O19pOqyg++Z1yXzc5sqHsr0lLVkQdCgM/VJJN0g2o5Yhj97L5O5+yRbglG1ADyff46+wnVbg+26j2GE9Dmx6kPGUhLqpyZl6ddbz8I1+Jslazy7lC60/r0SJbniBkA9/Ycmso+GmDAe/dzbdZVUW85VCk4zeOPAN+y+ZFGm4/LFvpzHaCgxXjS3WOdP1LeoRGaB2CUuzpVlR9HnC1f3FZ7pVb+A4oT12+8jFBWizwXa4kUHrT+5yQm2A+M1DzBiBjAsrn2TcBGyc/PXPKdlra6ZgUsNUuMEGhZX7cEtfu3lESi5MLWBhuTZeV/yt4F4ssb+AyvUlYZ+fri9lq+20s/FYrAsnnZhTi0d6WK+MxlXy33somyGgBf2MYY26ziM+Y1f/P62hGpFVQKS/OoI9DakL0OZf5dWQi0GDmsmPh0ORfQlc0AuJssYdJnVFZ18j6/7vbI1KWy6Mvmdi3F6RotMqnhGXrHtclpmY21b8h4w6CXZQzAN7Pw9fwqyo9M3a2VP4yijVccfEwAiX4kkwo18qGmRR7mOiPjDYNeFgPgO7mQMelmFu7n567OMDKm44gfArk26+tYRvqITDLoyseTU+0fyPjCoEduAHwPL5o16TZG9P+e4ZNc2tUZRrHGMw6+HdXqtC7GeGC7TEIsnr4SDpPPyfhKpUc6Bug7vcF8njdrQkGxtifnsr/SyxuEKFUN8YbPdB1h1dJnYAjCtUOoFN91u73pmcfrcSlgNE+kLUDf0SVi5c+P/LGwTSt/NAUcx1j5NlWX0AvzZS8QEAZyiJky7xOwlEyKzAD4oVUq5/bklzTrVZ0lF2SlRZBpt7aiZ3CNTG5K2Wdb59lflvEVS4+kC3TDnM7DahPGixBKeGIbaoC25vbapmKF1+EqHwHMEfBl1MJNNdCTPegKnRxFVyiSFsAyDT57K1R+nC35Jt/JVflFqHNQCgJdPT2Xw0ki9PnDQCaYKUNpNjmoLKEbQP6UZkouEgqCDex8D6/exihEaVQQb3ls/B6P0EtgBMKN9ryViMIrFKoB8PP5+48oFxYeThb4od7ALoRoVBGXtFm/RjdHurUVa8huD3uCLFQD4JdToOSmSkqvw8pauLZIPxqBAwh4OasZ3eLXDrwZ9tvxxvF2qBOloQ2C+bVEtVbiFXh+hHdV4dCqz+hze4Yt3FH/srXJmUGZ90shELipJtflnRDWdU2htQD8Ti6p8uO4Qq38wuId1cTmtelfYbXwA0IQKB2brDOli+qEcQwghmIA/DZG9OEuHxDvcF87+VmdwxH0O41AAQG3m30burSv8Hu4T4+SBZnZ9tHD0YK+C8UA8leRSm5j5Kc064NqgxbP6OPP+/o9skKUc/TbaxJJEsouwZLHAPwSappkL0HgpJ/QcHG9/o5tfXjlRtrtxyN6j400OFyVyVqYg6Pov9bU7Tauzzyefvlgov4VZwTyx2Om7RexfP5YPznRSuSIY5zUvDH9qh+PyvvSWwDcwI6EfJWfC4FbWVqKVX6VTAzLg74ifMeNibT3dGaWI/NMDRuFfjkyCHBdwZWswhoeZZsgFuO6V9JTkgHwi9Yw8L1UJAG/lshbl/5nEU/EtPFGyrsl4jR09CEj4K1P/8JjjC+n8X8Y+yL3PvozyCklGcCEmuQVSMISJcPv5Brpa4nQz1M+bFeUF00rHwJcZzDxtUSUIlqBdK1lXCnikdGKNgDcRp6Gy0qcOG5j7LuQTiZGtHQANSbaFHTsUSDQ3GatxRmwz4vipoxeyXVRxCOiFW0AdILThJr1UFHkGPzehhte8BGHJ54XNMQBmfjKAN3xuA4JHkomJ8Y7Fwo4hKSiDQAXJMhWcu7k9/AKU9dEjYAEgdzL6Qfh8XlLxMaoVBd9gyd8KQIC96pQ6n1KwMI9Pysr5arM1s85J5AkBsqUniubzRblWdPECORdl4S8ijU/P8bZP1gyL+8dcB1qPT57JzGJryMDXdy/zTR1n5RZm/qjWIKh1KIMwEx5lw2N6sAb9Hl6st25VQfelPYN9wB8Bc7Ur4piwVyBcDmtX9h+5X8aIE5AGn5s+n0ICABjrm8nwr9/x7IG56SWdvI1lWiznblVdWMTSxEu5cdPXZfr5LV+dL/3RXSBGPJBvuAXYf49I+tu3jgGN4eH+fDaQvRXZFqo+fuUv8jwOlhRCBiUfRVXsH5UJfDNm8fuQuG3i3gNSi7O4JJvEc9wtMABMg3OmbDEvxgusv3vDOPe/d9j/gVdnhkxF7FqxTOSRgDsqVCnUIkdmWh0PhkUrMAGkKBMdqpzR/Pa1OaggowYP2aMRyztUZ4wNrwrY9/cnv61fL+AVDeHIB7IAHgTg4GMcAOz55JfqAxuhkiiX2gEhAhQBm/PaiELI038gg4hzyBiIAMgjfZfo6kRHmbUm2APDUpD/9QIhIIAJl7FBkDJYafMtT8eJLFABoCbAD8rihytwyuta+ueFfFomkagWARa2uufg47xlce+j4lzhHyJwxC4W0r5oYTOFDEzj6wV0SuRBhdsoEqiEvMYlczLmxzs82VLw4wf4wboGL3BP868jirvGFMuXL7yE66o0/0TJgTnv28U0SuXJnK/apqfexq1degTKzlmCHUMXfTT+Jm0qrqmbABjE4mz4f/35WeEvp/bnf6tasKar/oRgDJCZcJ9XmhPb0OMe31jRZrUMs/2pQ8i+Cr0ID4+hXfm4HcDf8PYf4WrLnMD3+nvoxuBKFqA/PH5jPxShGzCFOvqwLDKBoDDrIQGQFz25MCI9XeNQBQtQB+qYl2T6uqAolEyAH4DOBoz4bS1mWBbB8Srv2oEMP4NfwzAYc31eEJdg+F9BHsE6lWKQMkL1F3vnIbOnD8vNqD3ttX9h0qC1cvD6PIGexFGfXyX3HEoBH+8KgAEKC/vzgZauTk4W/kWIPRhMFJ5rP5FzEnxccD4wWn2/zbN8Q532Gzxoe9/rdQCMI99ZH+I4b5QY1sGW9iGI42Wdysa7JVoJX+IQj+x0pWflxnPQz4vRn7l5t1xKkeua7hPjg+GBY9EZ/tDKhkA0DhVkBJI3nYxvbqpy+Z2nsrvtKrWXAZZuVk2DKhE5wwm0dk+SRUNgE0XZcx16Q4Rvdpp1AiyqrEy0Qi2cjP6PGJhkFjnGBXqbEFCBQPI76WdVggw3KdhmGJhhgtUTe9Y9a8oDbJysxxFa7iGTOdOwQYn6TyE1AAys7oOQyx1vplipHtHe40+ec0XIE2IAoEdG1J/Qry2X9wYv9Rm5mSP8KMX3ksNwEgZUwrMw31iiepr+m7f4ZDR76Jyg3Jk+ybE6GsilI0EFeouDys1AOKJI2HM6BAJoWkagagQgNuxQxi3RHd5WBVf9TGiROAheF1E1zT4yFy2rGV9baYULDDHgKt18c/nea7NSqyR3LPlEzT/OpqVm5A3inmA/ozIdA+1+zGiPHOatAUwTPYXokjQzHWI6JpWQKDUVaOFeIb/5CM+v1WZau+HjzfOb1EbdIjkwz0CQt3lYaUGAJ5JokTgjtopomtaOAjAnxFhXQrriWDZQhRxDkQT7neh7uHwNqHu8rjkBsDI5IGJDv5uEm/X4Hf6t0agHAiwhCvTPaHuchmlBoCTVoRW5BrkvXJkVqehERiMAHWpUPfQZAp1l8cnNQDiim9897pNmRUOllv/LgIBjCB8B8BFRDckCPzmoccfRZwDBfccQ6x7VKy7PC65ARgkPTDRId97ezuHvNMvQkdAjwGGQrovKdY9VBpi3UWUUgNAtVAzNOkBb3pyPQN+6a8agbIhMCY3RqJ7TKy7kFRqAOBJiXL0fvf4oi6+E8WpaRoBFQTQ/5HoHhXqLk9DxQCEVvTGNiKxQpWsaB6NQHAEVm6U6p5Qd3mKKgYQXDIdInQE9CA4dEjzEaoYgLCGP+oMyRghGrlHXax6EDy0yBfNlOqeUHd5jCoGIOxnjUvtlfazhoqu32gESkcATn6J7jGh7nIJpAaAyQSxFdUkpP2s0rOqY9AIDEVgX2KfRPeoWHcRpdQAcEufMzTpAW+SSaXjJwaE0F+LQECPAYaCNqZXrHvoNop1F1HKDcAku4cmfeCNkXKl080HuPW3YhHQY4ChyBlpT6x7TKy7PEbpfgAcdrJLNElueuLFckPFHn1vqEH/rrXRbi4l51gMKqysEk3O4lZmF79ilLGzROVcjOz5pRDFSyRNkplssmjbLyZxxUslkILUAACKcMGRSwyxFUqzUf0MUISzsOAYfxE+OIa8pMU8JQUePl98OXQE0e5PjObMScQUWphQd3lEwlqlPyWxFTEmvDFmv7T6y6hDIOrFcIYh1j2PULHuokSkBuC59E1RyRkmmSKia9roRSDqDTHonQh1z2BEqLu8ZKQGAJ4Ozuj3YJXuMX60UfPezJ+jWdXZpaYR+Oj7qFsA7JET6p500zxKTG4AhmzTuye0wqrWiv7M4ezUV6s9n66Hg3Jj91Cx7kl1V8EAnCzrEOab0SlBr6YUxleBRKvLegS1kbS5rcCsFUTeyfak1xd+xOEzw71ilB0rksXLySpvBQO46YnatzHO7vJLCM1cenpDz1Q/+mh4f90m2uUxNhd93reqML87c5TNwe0/sdr4ZM7pPgFYWwK87cyG2p0Cep4kd4PCzCjJvgDuv/aLzPNcfhDpH/zoo+F9y7q67bhIZGq2zplnGuQ45noK2MYXGd7n590eXvPHTfk5ap7pTRfdiI3K6D/6joMRY6xYSPwkXuZrADh+4lQkI77EWCxHVVB5S4CM/LwqMhNCJqKcBzAYdA7dD78HE4fP+9EGvpcPgsGNQZ7wJF7UFqcPjFR/1whwBKL0AjEq1jnp8en9RaRkAJjKf05UpBgjfCI/KBExaZpGIDQEoP6UnSGOTqyzhbBKBpDqTG9Hc+brB0ZzMy7Z1DWtEKn+1AhwBHgXKAokMud34iRI3/vBeJKuuzf97yppKxlAvm/LyO9FEWLGWHyNqiiwplUlAlF1gcyEIdQ1GN5zqgN3xUEw/KWUPAVz9u3rM4Oei1L8cbWVJD81mfWvsqQe2+cxb3PL+nqlAVYUWGTO3zfNTJrnokDGFhN/KXn45hnMmnCYPRtL3I6nJhE5YfKiYez4KcE4tRjx82HQ/+G65vtwXfUlDiIoGwD6P08hx18fFH7/TxwsNgN3syaq7rb4gass0V4a+LeiIXvXje3WIhU3236ASv7C6IpG+4eohJAuf4rsXfTnYXlj9u7FbdZC1TxkZnV+NJG2NyDhDymn7e+kyeegmP/lJ12p/WlR2JyrbgBKXSCemOO4WwC571WofBxgjHMkAxOR2JVDw8TIla3z7KvKKfGyefaVB5Q/lJSvWD7P9q3QBqbAa/5E2uhX/oGU8n8/tdH+BFL1ux+Y2yYabPfXqpIpG8DNG8e8i8i3iyNms8T06qFSI38hdtkyhGb9yrATgyHzS72lT77bk6/5payRM2DOSahjKJdnMpvGvKMqiLIB8AjRp9soihhLoxtF9DjSRN4tkbyojY8X0UOnUXJcNHHCDGQP+vwylmLoxawwxfhDqGMuE+voYDkDGYBnUqEBIPKpvK84OJGY/y5qlSO0BtgpKE9YmWcKu/cCpsXzkMEgQBbMSISfNk8z6ArTFU2d0yHtSSJ54Y2U6ehBwQMZAGmzfoca8+2DYhj0Axcqzx/0KtY/cdrCT2ItYPUKF3iFKWZ3hbqFVvmdF9ZbTweBLJABZAj1EGCtKAG4xyBkGWtGkTAKtMXrrB96jGojUMAqRJYiVpjiQl4iNgA0ZQ8HvbJX2Q1ayLzr0dW4OM93QAYhpiyd55yzZB3ZXAgT70/KWtrJ19B1uwet14yBN6LD39wcb9kPSOcRthwneKASPPgpRx7QK/hX+F62HJzy0F+lrDBd2uicBd0SjoNQkT00NFXxm8AG0LI+vRVXdr6JvpjvDXymwRYg2QoxgD6AMo/X85nug2a74SuPjQGgTeXNKv4b/vHaapfwFnowtbUxeyMCBWrpB8cBBRc36VD+5nV1LYPDhfnbZNAp39znU9rptaf/NWiaRQBDGfpBD4oSQjXUcM3sDyaLeDQtGALFngxXbLiB0kW1pGFgGqLv15/7AT96R+j98Rh5cLgKQBQvpwVuAXgg2musIgnvWv59uAeGWjOuJnkZaLcMR6+WdzjsChPk2XJlR1z/FSmF2Wj3tsrywMSHchWZtHIwa0ziy6j9hQfhUmKuUo5wAGMRLQAhzRvSL6FZ/M2AeIZ8xYaFqzKnyK+oGRKwgl7wrkW5/oqFhXedRGFV5BeFj5p2+WksCZDFs+6MbG1uT/2hGFmKMgCeEFxS90oSPMI4wfmChEeTNQJCBI462rlYNN7kgXEAlkwXfdMo2gC8vemH0Qq86xszCJiWvqaSXKKivFQqLYwxwMjlnWH4waBDgoeR9/a8nV4j4BCSijYArPp04Bu4SxQ7hJ+2tMG+QMQTaxpjH8Ravn7h0Mfp8hsAQoUizwN6A5GksXSe3QgL4Acu+D6ex+6+fRu1fRkkhKINgMe71+3lBiBMHEaQyUhONpbIOGJkNK0V4crFEYD+cjLmTwsJ2d5E+GlwnTEpXSoSET0Qx7M9YSUsCs9pJRnAbY+MfQ+TD/eLEjEoPZk2oB9XgQ91jesh9t44i47Z0fd7DfPbfjK63VHngf60dW3ds37pF/uezrPn40SeU0ThKaUPBFn5OVxccAKU9mTOd441a7yX0FT5u1QZee3PjnXyyo20u5jU4G7EUoX85JpvcO7N8CWCgM0foKNHHPBpneOcyEzvVngizkXQ+oDBI2Pn3R5e83Plz6xN/VGUEM+DkfBuQZgZYeQB8XjA+zX4l36ca7fu8Ot+iWQS0bj30DzRfhFp+M78ovbPua7x4cyG9J9Ecclo/korC9lPzzyWfq21wb5PqKCUHHtIrfNNBClqXgBA4D+xgiuKG5iNu3wRaB4PGKeuXBCl689DQ1h5yKCwi6lMePoqj3GC/Q2R8ufjoOz+UpWfx1OyAfBInC7Wmq4nX4TQvpeWYV7gRqy3+b9YciBcTcrji+sTROl0HopD4IY5nYehN7FYFBrW10Mdo1XEo0oTdhtUI1mxqfa/ofw/lfDXmyl6q4RHk0c5ArUJegsMYIwYBvqzxY9b/ynmUaOGYgA8qVyn28oHZKJkMWi5pLXJ4f3Qcj+dUTbZ5c5MtaaHrvQ5KKdLhfmDa9rOuUuFPAGIoRkAH41jv6a0WaKed09mNqsNIGPJrFgoFbkrsGQhR3kEfOM9fBSyXgSB13HFTRvq/xwWXKEZABeo9yVrJUbnrwiFw4DYSNhSQxHGEYDIWyXPML8TIIhmHQEEJhxpL0M32tfrw0VC3/9V7xXrjjDFC9UAMi/QHpzZyL09wgd9vG8sbbTPFjKVSARYOLOfrHep8QmZm7DEpHTwEhFY1mB/Cg7qq2XRuIRdzXVMxheEDqML/1nekH0IjssLRTFDQd/o6u6Zfstj4/eI+PpojGbQOZTzHeCoBo/NgdxU77fMWXvGJyamdiCHHxLlEjt91ra01Ya+rCYUN+hgwbOut8gy+fZCMmEwrfAb2nxUXU0N7/MJDaWPn7JMvgUshNaf1YKAOSF1D/IiVH7Q98LV3n8iXrg5D7ULVBCND1LQ97628NvvEwZyAVoL8Vpvv8D6fcUjsGxediF04CJZRjyXXXfTE3XS645k8QxHD9StGC4C0Tv07R7HmGCmiAe03hyj52Tara0SPk2uIgQyc7N/kzDJFmQpKc4WfWJxWxo6FHwZizjePmokLUAhYcd1vyTbMwDepEnYmhs+03VEIZz+rG4EsCLgcCj/w7zshTnFWv+c414alfLztCM1gD5/LfsHYSZBRDN4eF09fQSXzNXJeDW9shHgc0BmKn/QrrTCw+2UX4566UykBsCLqrm97lE0XtI122gpTrPr7QfjtOCsslUtftLzssUc0D+jwvuYTDqMIX+caavbIOMrlR65AXABe1+2robb82mZsBBmdgJn4Mv4NL0yETDm2rdjWflcBel/946dls4nKcQjZSmLAfDJC6eHNMEIVI6tXtja2JWRSq4ZKgqB5U12C04Pl3r8+JjR7iQXFLt3JCgoZTEALtSKR2vfxDaK+cggztIRP7htZsmyuVmpG1Uci6bGBQG4uq/GMSJLFeRxMSL8PF9drMAbCkvZDIBL27zO2oLVTLiWR/6gtvhea0PXlXJOzRFnBFrndX0Nc/i3qcgIf/9Vze3Wkyq8YfGU1QC40M3r6/jM33dVMoDl0z/SLYEKUvHk4TU/Due9W0U63BVwW8v6OiVelfhUeSKdCPMXglEcsLtatl6oEB5nsy5tbqvLFH7rz/gjwPv8it0efvEc1vlYWBITzWSXCK2ytwB9wlCW22NdgvGAUnPHxwQrGrN3ahepqCjjQeNlhFs071BVfujAFm+39fcjofwcsRFqAfoKi098OfX2LyHEGSrFh/phQ2/OujjzCM2q8Gue8iLAJ7mSSfvn8PblDxGQpc5d4+5ua4bqpday+Iqhj1AL0Ccqv4G+8wNnJtrAZ1WEx0Gvc0zT/n962YQKWuXl4csbzIS9RVn5Kfm9u7v7syOp/ByhEW0BCkXE7xKYYCY2YWHG/yq8k3zuxAK6i/QCOglKZSLzhW2mQdZghvdIlSRRkf0+m3XPy1+9qxIgQp4RbQEK+eInzO3rdM5G7bGt8E7yeUSCsidb52UjWSMuSVuTByDAXdV8Vaey8vNuz67us+Og/DwbsWgBCnhmzmL15gR7PcA8p/BO+snIms6enq+o7SyTxqYZFBHgO7n4ZhaU1UWKQTAuJlvcPdbske72DJQ3VgbABYMRpBMT7AdUXaQ8DFqONzDL/L/zE238hX4iRYDv4cU+j39EIrKdXPvl4K5O7u2B8jv7X8bgS+wMoA8TRnFGzK2oXa5TxQhG4HkeuZ25Vov2EqmiFoyPH10y8XB7KSqna6A4yt1nPsm1ZJ2Fsiy/n1+Ww5gaQJ/Yyxu6vorNAj/CL1OWkf10HMTrMno5AN+8/53+UjIC+UOrcG4PFOa4AJG5fHnDSMzwqsoYawPgmWidZ59FDLYagh6qminOxxi73+1m34l6Q0UQmSqRl5/VaZn0ZixL+VIQ+dHffxc1/ufLvbYniIycN/YGwIXMzMweZVrkYQj7cf5b9UEh7MMcw4p3eqw7yrW8VlW2uPPljyifan8dF5wsRis8Noi8wP3fnC7SVM5VnUHkG8hbEQbABeYFkjjRvh1frxiYAZXvGB+8ylza4q1P/yIzzGXSKnGMFh6+lMFosC/CxpVW5Pn4oPnG0YU/eddJf6NSKpyKMYBCQSyf2zWbGfRnGCAfUnin/MnoCy5jSzA+aIvjgEw5H5Ew5h0PDajtl/K73QIngQ3s6Hhetri9bn3gsCMYoOIMgGOVn3ZPmfdRyj5bFHaUPg+P0fff+K/0gz/dTnuLiqNKAvF7eI/+kPN5Rtm1qFSmF5MtjLc22VlyaVRn9xQjk2qYijSAQuYwQP4yNdj38Xt84V2gT0bexPmhd9r7cj+7efPYXYHCVjjzNz/z/sSJtUl+A/tVUIKjiszOXij/t5rba1dVaota0QbAC62vNTBWovYq/txIRroRVZtL6b1L2tJbKrUwOR6yp9+rtgAe+SYof0rG70fHQLfNzrKFlVjrD8xTxRtAITN8bEBM+gP8DjxwK8TBP/mAGX3g1eherb5xbT0/tLXin2VzO0/Fnor5wOfzKPAgfvwheef45E9pLsORJUMSj+BF1RgAx6YU192w2DLyR+axtcykG59vs/7/GkKxaTv+z4WEmafMtT9umGwmCrgJyv/hUqXmLmX8Lefn84d9RHmpspUSvqoMoABE5rx9hybqzSWorS5DBn0v7ivwK36iv0s2YVP/k8zztrY8Uv9ifLpKjC6b3XmyaRpnwkN2DuQ8D13CCYr5krH14pCqVfxaojBvZpElWi56VRpAAbzls+y/JGmyGAO1S6EQYR8FvxeK8VusQNpODLrDdYwd5PHUnzIRzzNwPz2Z1X08rfFOpYxNJ4ZxGrpsfxOiwufhgxHlEO8DOdtozfyL1VHAtNo+q9oACoXVOtM5jlrsWzCES6Ao6cL7CD5tGMWrUMwOpPM6lKjDZWSnQYxdruG+l3CMXV3dvZ3j68b02K+S7kJXgnfdMKtR023uS9WlkvW5tDfJ9MzJHvEmYULqcPxNQd/rGHRlpkApeR/eikD2fJSQGas16T+6Lv1uGPfwRiVnWPGOCgMogHX9zH2HWDXGQsOgV8ADMrnwXn/mB/+70L272816P+IXHo4WTEaVARQKlS/rnXC4cyFutVwAQ/hk4f1o/ESN/xRalnt3vZ1+6PZt1B5tGIxKAxhYyJmm7pMMz12AbsbFeH/EQFq1fofSv40NKg8mE+aqG9akMJgfvc+oN4BC0fPBpdHg/C367vPRIYDrMNjy60I8cf2E0r+L8claTICtdtelfxP1YD2uOAyWSxvAYETwe6Af3aR0JvPIX6GrVFlY4Tg9uIGfRb9+Y6XNYwxTJJG9qqxCjQwGccR8XoFa5tmmifGCR87EZkC+aMwUhyo7FRvhyPOGR56Cx2ir43q/rka/fdioagMoAlF+egWd6HzM8Nh0LJmYzhidTg1yCqKKzD05SEwbXbUXPY/toIzuYJTuqHHT//btDXTfID79U4KANgAJQKpkPobo/Zx9RDJJpxgMPnuDTEEf5Ej47bm7dTJOSZ6E7shE1NJpLDiqQYcqBfDzs9ToqvTgew8+u9FHdzCxthtLMPjq1PewPn8XlP0t4pLXMTP1OnFYB9lovaX78Kolo/k0AhoBjYBGQCOgEdAIaAQ0AhoBjYBGQCOgEdAIaAQ0AhoBjYBGQCOgERitCPwPBFnTxbjahX4AAAAASUVORK5CYII=;" parent="0Fs1EqQwWm2RgDKxZV1P-2" vertex="1">
          <mxGeometry x="10" y="60" width="55" height="55" as="geometry" />
        </mxCell>
        <mxCell id="wKkd2Ftk299Nv-PwKDOf-42" value="" style="shape=image;verticalLabelPosition=bottom;labelBackgroundColor=default;verticalAlign=top;aspect=fixed;imageAspect=0;image=data:image/png,iVBORw0KGgoAAAANSUhEUgAAAMAAAADACAYAAABS3GwHAAABdWlDQ1BrQ0dDb2xvclNwYWNlRGlzcGxheVAzAAAokXWQvUvDUBTFT6tS0DqIDh0cMolD1NIKdnFoKxRFMFQFq1OafgltfCQpUnETVyn4H1jBWXCwiFRwcXAQRAcR3Zw6KbhoeN6XVNoi3sfl/Ticc7lcwBtQGSv2AijplpFMxKS11Lrke4OHnlOqZrKooiwK/v276/PR9d5PiFlNu3YQ2U9cl84ul3aeAlN//V3Vn8maGv3f1EGNGRbgkYmVbYsJ3iUeMWgp4qrgvMvHgtMunzuelWSc+JZY0gpqhrhJLKc79HwHl4plrbWD2N6f1VeXxRzqUcxhEyYYilBRgQQF4X/8044/ji1yV2BQLo8CLMpESRETssTz0KFhEjJxCEHqkLhz634PrfvJbW3vFZhtcM4v2tpCAzidoZPV29p4BBgaAG7qTDVUR+qh9uZywPsJMJgChu8os2HmwiF3e38M6Hvh/GMM8B0CdpXzryPO7RqFn4Er/QcXKWq8UwZBywAAADhlWElmTU0AKgAAAAgAAYdpAAQAAAABAAAAGgAAAAAAAqACAAQAAAABAAAAwKADAAQAAAABAAAAwAAAAABu8xvwAAAm50lEQVR4Ae19CXwcxZlvVfeMZlqSb3MuYTGHIWCcvIVswpLdcDgkNvEhCXDIbx8hG0wSsEnCkQSw5LFlcyQhEBxICM7jwW6WGGPJNocXJyZ+WRM/smsIZiEBAmh3ARPAB1iabknTXfuvkcaWJXVV9Uz3qGdUbcTM9PdV1Vf/+r46vroI0Y9GQCOgEdAIaAQ0AhoBjYBGQCOgEdAIaAQ0AhoBjYBGQCOgEdAIaAQ0AtWKAK3WjJU/X4xmZnUdZqSMKYyRYyijU0yDHckomcw8NomYdDJxyURikDRArwFPDaUk1S9nDz67GSE9xCMOMclu6pFdhJL38H6X59I38dlBDPa6k2UdNz1R+zYhFOz6KRUBbQBFIJiZzWoTSed0z2PTKaXToYvTEc00gFlXRHSBg0Dzu5DWCzCCHTCuHYzSHVZX+t+v20S7Akc2ygNoA1BQgGtmfzB5fDJxFvPImQDsk6iZP4raO6EQtGwsaFFyhkGeQwuyNUfIU47jbrl545h3yyZAhSakDWCYgssQZhhN9scoYzMpoTNR454OoIxhWGP7CjJ7hJHtaCE2eibdSNqs32UIOlb6OQgBbQD74UAfvsE5M0nZRR4jF6KGP3w/qRq+MPJnFPbDrkdXt6xPb9VjiL5CHfUGkJnlTDVT3mXo1lwMMI6qBl2X5oGRNz2DPEh7jVXNG9IvSfmrmGFUGkDmLJamE5wmg7AFqOk/VcXlK80axg6/YYze6+1NP5zZQh1pgCpjGFUGcP25H0yqHZe8ghC2EBk/tMrKsqTswBDeJYzetdftveu2R8Zy9+uoeEaFAbTOtqeQJLmOEnYpStWKrGQZfPmUvcaY0WFQ9jqUqgPzAW9T4r3XS+gu0mu8R3p7O0lPruf97vHdb2yD3x/PUWeQmnGpvSlSk6ghyWS9kXInmR6Z7BJjEmHscMMkUxihx2BcOwVKOgWtVhrBonpsj9H7vR76vcxj6deiSiQu8Va1Adx4XvZDVj1djBr/SwA8GSrojH1AqLENSrnddekOwzB37GiveXkNoW6o6QyK7ELCzOkNPVM9z52OLtyp1DROh8fnEzDucYNYS/rJ3aoYKN/n5sjyzCPWf5UUWYwDV6UBXD9z3yH1ltmMQrwcg9vCbGtpxQCFRy38K7gVN2NG9imvve75uLgVuds22dQ1DTPGZzKDngvX7YywDALG1WMwcm9vl7sss2nMO6WBGL/QVWUAl5/GkkcfbS/CzGhLGAoAA3oFk19rDfjRc7vTv8UgEbVi/B8M8hPGOOcMtHyz0H1qhMRTS5YaFYDn0VbvT9admRdovutWcpwxiKBqDKB1btcsatLbQyjsDqzfWd1D2OrWtXXPxqCMShYhM6vzo0bSmE9NMh8FPqWUCHmlAMO6urm97tFS4olL2Io3gMx5+w5N1Jt3AtD5xYLKm3nMmq4jhnFv89rU5uqdJGJ06TznHCzSW4A8N6Dwa4rFDHitybreops21P+56DhiELCiDWDZPPtSw2C3AceJRWK5k3l0ZbY7t2q0rZvh65vG1SQvMxi7CtgdUQx+aA32YFx0bUu79X+KCR+HMBVpALzWN+sT96GfP6soEBl9ATXgbe7L6Z9XU3+2GCwyp7Aa4wTnC9Qg1wDPacXEgYm0f7Fd99JKbA0qzgB4Xx9r66H8wSeyGGF/QI2faVlnranebk4xKszDoHvUYF8AI8gYlJ4cNBa0Blh5yv6h0sYGFWMAvKZKnmh/HzX3osCFQ8jr1KNLcutQ4+sVkUL4MnCp0gbnYpOwZXAhHytkHoaIbTp39b5sXV0pLWtFGEBmTteRZoI+DGHh2gv0dMI3frP3fvoHo3GdSyCkBjEvmslSh9Q638QY4UaQ6geRhT9RST3t9JCmFY/W8p1ssX5ibwDLG+2/w3KAh1AbHRYESTTJ/2Rn2bdueqJuZ5BwmvdgBOBCPdxM0Vux8+2SgyniXzCCd4hH5zevs7aIOUeWGmsDaG3oWoC++t1Y+xJk91UH84yvNK9LbxpZaKsr9aUNzqcN6t0DhZmimjNUQjnisYXN6+vuUQ1Tbr6Y7nJidNnc7M2odX6qrPwY4XoeuSPVaU3Tyh++Gi1pT//S7bWmYbPQD1C7K+0s42WHycmfLG/M3soH2eFLVXqMsROK9z0Ps+z7kTX1iS1s8HAZ/eKSdRYmsfQTNQJLG+2zsRDvASjPUcppYeIst8e6JG5jsVgZwPfOY3VObXYdNegMVWDRzLbtzvYuuP2JcbtVw2i+0hH4zvl7J9TV1PAW+gLV2FBWT6a7rDlxOr0iNgbw7Rm7x9WPST8GQM9UAZT3L+Fyu27xuto7VPg1TzQILG/IXoUu0W2qXVXwbuv8wJl5668mvh+NRMFijYUB8J1a9eMTT0CpT1MSHxu8CaUXLW6zfqPEr5kiRSDTYH8S8wZrYARqBwl45Nk9bu68OOw8G3EDyMxkY5O19pOqyg++Z1yXzc5sqHsr0lLVkQdCgM/VJJN0g2o5Yhj97L5O5+yRbglG1ADyff46+wnVbg+26j2GE9Dmx6kPGUhLqpyZl6ddbz8I1+Jslazy7lC60/r0SJbniBkA9/Ycmso+GmDAe/dzbdZVUW85VCk4zeOPAN+y+ZFGm4/LFvpzHaCgxXjS3WOdP1LeoRGaB2CUuzpVlR9HnC1f3FZ7pVb+A4oT12+8jFBWizwXa4kUHrT+5yQm2A+M1DzBiBjAsrn2TcBGyc/PXPKdlra6ZgUsNUuMEGhZX7cEtfu3lESi5MLWBhuTZeV/yt4F4ssb+AyvUlYZ+fri9lq+20s/FYrAsnnZhTi0d6WK+MxlXy33somyGgBf2MYY26ziM+Y1f/P62hGpFVQKS/OoI9DakL0OZf5dWQi0GDmsmPh0ORfQlc0AuJssYdJnVFZ18j6/7vbI1KWy6Mvmdi3F6RotMqnhGXrHtclpmY21b8h4w6CXZQzAN7Pw9fwqyo9M3a2VP4yijVccfEwAiX4kkwo18qGmRR7mOiPjDYNeFgPgO7mQMelmFu7n567OMDKm44gfArk26+tYRvqITDLoyseTU+0fyPjCoEduAHwPL5o16TZG9P+e4ZNc2tUZRrHGMw6+HdXqtC7GeGC7TEIsnr4SDpPPyfhKpUc6Bug7vcF8njdrQkGxtifnsr/SyxuEKFUN8YbPdB1h1dJnYAjCtUOoFN91u73pmcfrcSlgNE+kLUDf0SVi5c+P/LGwTSt/NAUcx1j5NlWX0AvzZS8QEAZyiJky7xOwlEyKzAD4oVUq5/bklzTrVZ0lF2SlRZBpt7aiZ3CNTG5K2Wdb59lflvEVS4+kC3TDnM7DahPGixBKeGIbaoC25vbapmKF1+EqHwHMEfBl1MJNNdCTPegKnRxFVyiSFsAyDT57K1R+nC35Jt/JVflFqHNQCgJdPT2Xw0ki9PnDQCaYKUNpNjmoLKEbQP6UZkouEgqCDex8D6/exihEaVQQb3ls/B6P0EtgBMKN9ryViMIrFKoB8PP5+48oFxYeThb4od7ALoRoVBGXtFm/RjdHurUVa8huD3uCLFQD4JdToOSmSkqvw8pauLZIPxqBAwh4OasZ3eLXDrwZ9tvxxvF2qBOloQ2C+bVEtVbiFXh+hHdV4dCqz+hze4Yt3FH/srXJmUGZ90shELipJtflnRDWdU2htQD8Ti6p8uO4Qq38wuId1cTmtelfYbXwA0IQKB2brDOli+qEcQwghmIA/DZG9OEuHxDvcF87+VmdwxH0O41AAQG3m30burSv8Hu4T4+SBZnZ9tHD0YK+C8UA8leRSm5j5Kc064NqgxbP6OPP+/o9skKUc/TbaxJJEsouwZLHAPwSappkL0HgpJ/QcHG9/o5tfXjlRtrtxyN6j400OFyVyVqYg6Pov9bU7Tauzzyefvlgov4VZwTyx2Om7RexfP5YPznRSuSIY5zUvDH9qh+PyvvSWwDcwI6EfJWfC4FbWVqKVX6VTAzLg74ifMeNibT3dGaWI/NMDRuFfjkyCHBdwZWswhoeZZsgFuO6V9JTkgHwi9Yw8L1UJAG/lshbl/5nEU/EtPFGyrsl4jR09CEj4K1P/8JjjC+n8X8Y+yL3PvozyCklGcCEmuQVSMISJcPv5Brpa4nQz1M+bFeUF00rHwJcZzDxtUSUIlqBdK1lXCnikdGKNgDcRp6Gy0qcOG5j7LuQTiZGtHQANSbaFHTsUSDQ3GatxRmwz4vipoxeyXVRxCOiFW0AdILThJr1UFHkGPzehhte8BGHJ54XNMQBmfjKAN3xuA4JHkomJ8Y7Fwo4hKSiDQAXJMhWcu7k9/AKU9dEjYAEgdzL6Qfh8XlLxMaoVBd9gyd8KQIC96pQ6n1KwMI9Pysr5arM1s85J5AkBsqUniubzRblWdPECORdl4S8ijU/P8bZP1gyL+8dcB1qPT57JzGJryMDXdy/zTR1n5RZm/qjWIKh1KIMwEx5lw2N6sAb9Hl6st25VQfelPYN9wB8Bc7Ur4piwVyBcDmtX9h+5X8aIE5AGn5s+n0ICABjrm8nwr9/x7IG56SWdvI1lWiznblVdWMTSxEu5cdPXZfr5LV+dL/3RXSBGPJBvuAXYf49I+tu3jgGN4eH+fDaQvRXZFqo+fuUv8jwOlhRCBiUfRVXsH5UJfDNm8fuQuG3i3gNSi7O4JJvEc9wtMABMg3OmbDEvxgusv3vDOPe/d9j/gVdnhkxF7FqxTOSRgDsqVCnUIkdmWh0PhkUrMAGkKBMdqpzR/Pa1OaggowYP2aMRyztUZ4wNrwrY9/cnv61fL+AVDeHIB7IAHgTg4GMcAOz55JfqAxuhkiiX2gEhAhQBm/PaiELI038gg4hzyBiIAMgjfZfo6kRHmbUm2APDUpD/9QIhIIAJl7FBkDJYafMtT8eJLFABoCbAD8rihytwyuta+ueFfFomkagWARa2uufg47xlce+j4lzhHyJwxC4W0r5oYTOFDEzj6wV0SuRBhdsoEqiEvMYlczLmxzs82VLw4wf4wboGL3BP868jirvGFMuXL7yE66o0/0TJgTnv28U0SuXJnK/apqfexq1degTKzlmCHUMXfTT+Jm0qrqmbABjE4mz4f/35WeEvp/bnf6tasKar/oRgDJCZcJ9XmhPb0OMe31jRZrUMs/2pQ8i+Cr0ID4+hXfm4HcDf8PYf4WrLnMD3+nvoxuBKFqA/PH5jPxShGzCFOvqwLDKBoDDrIQGQFz25MCI9XeNQBQtQB+qYl2T6uqAolEyAH4DOBoz4bS1mWBbB8Srv2oEMP4NfwzAYc31eEJdg+F9BHsE6lWKQMkL1F3vnIbOnD8vNqD3ttX9h0qC1cvD6PIGexFGfXyX3HEoBH+8KgAEKC/vzgZauTk4W/kWIPRhMFJ5rP5FzEnxccD4wWn2/zbN8Q532Gzxoe9/rdQCMI99ZH+I4b5QY1sGW9iGI42Wdysa7JVoJX+IQj+x0pWflxnPQz4vRn7l5t1xKkeua7hPjg+GBY9EZ/tDKhkA0DhVkBJI3nYxvbqpy+Z2nsrvtKrWXAZZuVk2DKhE5wwm0dk+SRUNgE0XZcx16Q4Rvdpp1AiyqrEy0Qi2cjP6PGJhkFjnGBXqbEFCBQPI76WdVggw3KdhmGJhhgtUTe9Y9a8oDbJysxxFa7iGTOdOwQYn6TyE1AAys7oOQyx1vplipHtHe40+ec0XIE2IAoEdG1J/Qry2X9wYv9Rm5mSP8KMX3ksNwEgZUwrMw31iiepr+m7f4ZDR76Jyg3Jk+ybE6GsilI0EFeouDys1AOKJI2HM6BAJoWkagagQgNuxQxi3RHd5WBVf9TGiROAheF1E1zT4yFy2rGV9baYULDDHgKt18c/nea7NSqyR3LPlEzT/OpqVm5A3inmA/ozIdA+1+zGiPHOatAUwTPYXokjQzHWI6JpWQKDUVaOFeIb/5CM+v1WZau+HjzfOb1EbdIjkwz0CQt3lYaUGAJ5JokTgjtopomtaOAjAnxFhXQrriWDZQhRxDkQT7neh7uHwNqHu8rjkBsDI5IGJDv5uEm/X4Hf6t0agHAiwhCvTPaHuchmlBoCTVoRW5BrkvXJkVqehERiMAHWpUPfQZAp1l8cnNQDiim9897pNmRUOllv/LgIBjCB8B8BFRDckCPzmoccfRZwDBfccQ6x7VKy7PC65ARgkPTDRId97ezuHvNMvQkdAjwGGQrovKdY9VBpi3UWUUgNAtVAzNOkBb3pyPQN+6a8agbIhMCY3RqJ7TKy7kFRqAOBJiXL0fvf4oi6+E8WpaRoBFQTQ/5HoHhXqLk9DxQCEVvTGNiKxQpWsaB6NQHAEVm6U6p5Qd3mKKgYQXDIdInQE9CA4dEjzEaoYgLCGP+oMyRghGrlHXax6EDy0yBfNlOqeUHd5jCoGIOxnjUvtlfazhoqu32gESkcATn6J7jGh7nIJpAaAyQSxFdUkpP2s0rOqY9AIDEVgX2KfRPeoWHcRpdQAcEufMzTpAW+SSaXjJwaE0F+LQECPAYaCNqZXrHvoNop1F1HKDcAku4cmfeCNkXKl080HuPW3YhHQY4ChyBlpT6x7TKy7PEbpfgAcdrJLNElueuLFckPFHn1vqEH/rrXRbi4l51gMKqysEk3O4lZmF79ilLGzROVcjOz5pRDFSyRNkplssmjbLyZxxUslkILUAACKcMGRSwyxFUqzUf0MUISzsOAYfxE+OIa8pMU8JQUePl98OXQE0e5PjObMScQUWphQd3lEwlqlPyWxFTEmvDFmv7T6y6hDIOrFcIYh1j2PULHuokSkBuC59E1RyRkmmSKia9roRSDqDTHonQh1z2BEqLu8ZKQGAJ4Ozuj3YJXuMX60UfPezJ+jWdXZpaYR+Oj7qFsA7JET6p500zxKTG4AhmzTuye0wqrWiv7M4ezUV6s9n66Hg3Jj91Cx7kl1V8EAnCzrEOab0SlBr6YUxleBRKvLegS1kbS5rcCsFUTeyfak1xd+xOEzw71ilB0rksXLySpvBQO46YnatzHO7vJLCM1cenpDz1Q/+mh4f90m2uUxNhd93reqML87c5TNwe0/sdr4ZM7pPgFYWwK87cyG2p0Cep4kd4PCzCjJvgDuv/aLzPNcfhDpH/zoo+F9y7q67bhIZGq2zplnGuQ45noK2MYXGd7n590eXvPHTfk5ap7pTRfdiI3K6D/6joMRY6xYSPwkXuZrADh+4lQkI77EWCxHVVB5S4CM/LwqMhNCJqKcBzAYdA7dD78HE4fP+9EGvpcPgsGNQZ7wJF7UFqcPjFR/1whwBKL0AjEq1jnp8en9RaRkAJjKf05UpBgjfCI/KBExaZpGIDQEoP6UnSGOTqyzhbBKBpDqTG9Hc+brB0ZzMy7Z1DWtEKn+1AhwBHgXKAokMud34iRI3/vBeJKuuzf97yppKxlAvm/LyO9FEWLGWHyNqiiwplUlAlF1gcyEIdQ1GN5zqgN3xUEw/KWUPAVz9u3rM4Oei1L8cbWVJD81mfWvsqQe2+cxb3PL+nqlAVYUWGTO3zfNTJrnokDGFhN/KXn45hnMmnCYPRtL3I6nJhE5YfKiYez4KcE4tRjx82HQ/+G65vtwXfUlDiIoGwD6P08hx18fFH7/TxwsNgN3syaq7rb4gass0V4a+LeiIXvXje3WIhU3236ASv7C6IpG+4eohJAuf4rsXfTnYXlj9u7FbdZC1TxkZnV+NJG2NyDhDymn7e+kyeegmP/lJ12p/WlR2JyrbgBKXSCemOO4WwC571WofBxgjHMkAxOR2JVDw8TIla3z7KvKKfGyefaVB5Q/lJSvWD7P9q3QBqbAa/5E2uhX/oGU8n8/tdH+BFL1ux+Y2yYabPfXqpIpG8DNG8e8i8i3iyNms8T06qFSI38hdtkyhGb9yrATgyHzS72lT77bk6/5payRM2DOSahjKJdnMpvGvKMqiLIB8AjRp9soihhLoxtF9DjSRN4tkbyojY8X0UOnUXJcNHHCDGQP+vwylmLoxawwxfhDqGMuE+voYDkDGYBnUqEBIPKpvK84OJGY/y5qlSO0BtgpKE9YmWcKu/cCpsXzkMEgQBbMSISfNk8z6ArTFU2d0yHtSSJ54Y2U6ehBwQMZAGmzfoca8+2DYhj0Axcqzx/0KtY/cdrCT2ItYPUKF3iFKWZ3hbqFVvmdF9ZbTweBLJABZAj1EGCtKAG4xyBkGWtGkTAKtMXrrB96jGojUMAqRJYiVpjiQl4iNgA0ZQ8HvbJX2Q1ayLzr0dW4OM93QAYhpiyd55yzZB3ZXAgT70/KWtrJ19B1uwet14yBN6LD39wcb9kPSOcRthwneKASPPgpRx7QK/hX+F62HJzy0F+lrDBd2uicBd0SjoNQkT00NFXxm8AG0LI+vRVXdr6JvpjvDXymwRYg2QoxgD6AMo/X85nug2a74SuPjQGgTeXNKv4b/vHaapfwFnowtbUxeyMCBWrpB8cBBRc36VD+5nV1LYPDhfnbZNAp39znU9rptaf/NWiaRQBDGfpBD4oSQjXUcM3sDyaLeDQtGALFngxXbLiB0kW1pGFgGqLv15/7AT96R+j98Rh5cLgKQBQvpwVuAXgg2musIgnvWv59uAeGWjOuJnkZaLcMR6+WdzjsChPk2XJlR1z/FSmF2Wj3tsrywMSHchWZtHIwa0ziy6j9hQfhUmKuUo5wAGMRLQAhzRvSL6FZ/M2AeIZ8xYaFqzKnyK+oGRKwgl7wrkW5/oqFhXedRGFV5BeFj5p2+WksCZDFs+6MbG1uT/2hGFmKMgCeEFxS90oSPMI4wfmChEeTNQJCBI462rlYNN7kgXEAlkwXfdMo2gC8vemH0Qq86xszCJiWvqaSXKKivFQqLYwxwMjlnWH4waBDgoeR9/a8nV4j4BCSijYArPp04Bu4SxQ7hJ+2tMG+QMQTaxpjH8Ravn7h0Mfp8hsAQoUizwN6A5GksXSe3QgL4Acu+D6ex+6+fRu1fRkkhKINgMe71+3lBiBMHEaQyUhONpbIOGJkNK0V4crFEYD+cjLmTwsJ2d5E+GlwnTEpXSoSET0Qx7M9YSUsCs9pJRnAbY+MfQ+TD/eLEjEoPZk2oB9XgQ91jesh9t44i47Z0fd7DfPbfjK63VHngf60dW3ds37pF/uezrPn40SeU0ThKaUPBFn5OVxccAKU9mTOd441a7yX0FT5u1QZee3PjnXyyo20u5jU4G7EUoX85JpvcO7N8CWCgM0foKNHHPBpneOcyEzvVngizkXQ+oDBI2Pn3R5e83Plz6xN/VGUEM+DkfBuQZgZYeQB8XjA+zX4l36ca7fu8Ot+iWQS0bj30DzRfhFp+M78ovbPua7x4cyG9J9Ecclo/korC9lPzzyWfq21wb5PqKCUHHtIrfNNBClqXgBA4D+xgiuKG5iNu3wRaB4PGKeuXBCl689DQ1h5yKCwi6lMePoqj3GC/Q2R8ufjoOz+UpWfx1OyAfBInC7Wmq4nX4TQvpeWYV7gRqy3+b9YciBcTcrji+sTROl0HopD4IY5nYehN7FYFBrW10Mdo1XEo0oTdhtUI1mxqfa/ofw/lfDXmyl6q4RHk0c5ArUJegsMYIwYBvqzxY9b/ynmUaOGYgA8qVyn28oHZKJkMWi5pLXJ4f3Qcj+dUTbZ5c5MtaaHrvQ5KKdLhfmDa9rOuUuFPAGIoRkAH41jv6a0WaKed09mNqsNIGPJrFgoFbkrsGQhR3kEfOM9fBSyXgSB13HFTRvq/xwWXKEZABeo9yVrJUbnrwiFw4DYSNhSQxHGEYDIWyXPML8TIIhmHQEEJhxpL0M32tfrw0VC3/9V7xXrjjDFC9UAMi/QHpzZyL09wgd9vG8sbbTPFjKVSARYOLOfrHep8QmZm7DEpHTwEhFY1mB/Cg7qq2XRuIRdzXVMxheEDqML/1nekH0IjssLRTFDQd/o6u6Zfstj4/eI+PpojGbQOZTzHeCoBo/NgdxU77fMWXvGJyamdiCHHxLlEjt91ra01Ya+rCYUN+hgwbOut8gy+fZCMmEwrfAb2nxUXU0N7/MJDaWPn7JMvgUshNaf1YKAOSF1D/IiVH7Q98LV3n8iXrg5D7ULVBCND1LQ97628NvvEwZyAVoL8Vpvv8D6fcUjsGxediF04CJZRjyXXXfTE3XS645k8QxHD9StGC4C0Tv07R7HmGCmiAe03hyj52Tara0SPk2uIgQyc7N/kzDJFmQpKc4WfWJxWxo6FHwZizjePmokLUAhYcd1vyTbMwDepEnYmhs+03VEIZz+rG4EsCLgcCj/w7zshTnFWv+c414alfLztCM1gD5/LfsHYSZBRDN4eF09fQSXzNXJeDW9shHgc0BmKn/QrrTCw+2UX4566UykBsCLqrm97lE0XtI122gpTrPr7QfjtOCsslUtftLzssUc0D+jwvuYTDqMIX+caavbIOMrlR65AXABe1+2robb82mZsBBmdgJn4Mv4NL0yETDm2rdjWflcBel/946dls4nKcQjZSmLAfDJC6eHNMEIVI6tXtja2JWRSq4ZKgqB5U12C04Pl3r8+JjR7iQXFLt3JCgoZTEALtSKR2vfxDaK+cggztIRP7htZsmyuVmpG1Uci6bGBQG4uq/GMSJLFeRxMSL8PF9drMAbCkvZDIBL27zO2oLVTLiWR/6gtvhea0PXlXJOzRFnBFrndX0Nc/i3qcgIf/9Vze3Wkyq8YfGU1QC40M3r6/jM33dVMoDl0z/SLYEKUvHk4TU/Due9W0U63BVwW8v6OiVelfhUeSKdCPMXglEcsLtatl6oEB5nsy5tbqvLFH7rz/gjwPv8it0efvEc1vlYWBITzWSXCK2ytwB9wlCW22NdgvGAUnPHxwQrGrN3ahepqCjjQeNlhFs071BVfujAFm+39fcjofwcsRFqAfoKi098OfX2LyHEGSrFh/phQ2/OujjzCM2q8Gue8iLAJ7mSSfvn8PblDxGQpc5d4+5ua4bqpday+Iqhj1AL0Ccqv4G+8wNnJtrAZ1WEx0Gvc0zT/n962YQKWuXl4csbzIS9RVn5Kfm9u7v7syOp/ByhEW0BCkXE7xKYYCY2YWHG/yq8k3zuxAK6i/QCOglKZSLzhW2mQdZghvdIlSRRkf0+m3XPy1+9qxIgQp4RbQEK+eInzO3rdM5G7bGt8E7yeUSCsidb52UjWSMuSVuTByDAXdV8Vaey8vNuz67us+Og/DwbsWgBCnhmzmL15gR7PcA8p/BO+snIms6enq+o7SyTxqYZFBHgO7n4ZhaU1UWKQTAuJlvcPdbske72DJQ3VgbABYMRpBMT7AdUXaQ8DFqONzDL/L/zE238hX4iRYDv4cU+j39EIrKdXPvl4K5O7u2B8jv7X8bgS+wMoA8TRnFGzK2oXa5TxQhG4HkeuZ25Vov2EqmiFoyPH10y8XB7KSqna6A4yt1nPsm1ZJ2Fsiy/n1+Ww5gaQJ/Yyxu6vorNAj/CL1OWkf10HMTrMno5AN+8/53+UjIC+UOrcG4PFOa4AJG5fHnDSMzwqsoYawPgmWidZ59FDLYagh6qminOxxi73+1m34l6Q0UQmSqRl5/VaZn0ZixL+VIQ+dHffxc1/ufLvbYniIycN/YGwIXMzMweZVrkYQj7cf5b9UEh7MMcw4p3eqw7yrW8VlW2uPPljyifan8dF5wsRis8Noi8wP3fnC7SVM5VnUHkG8hbEQbABeYFkjjRvh1frxiYAZXvGB+8ylza4q1P/yIzzGXSKnGMFh6+lMFosC/CxpVW5Pn4oPnG0YU/eddJf6NSKpyKMYBCQSyf2zWbGfRnGCAfUnin/MnoCy5jSzA+aIvjgEw5H5Ew5h0PDajtl/K73QIngQ3s6Hhetri9bn3gsCMYoOIMgGOVn3ZPmfdRyj5bFHaUPg+P0fff+K/0gz/dTnuLiqNKAvF7eI/+kPN5Rtm1qFSmF5MtjLc22VlyaVRn9xQjk2qYijSAQuYwQP4yNdj38Xt84V2gT0bexPmhd9r7cj+7efPYXYHCVjjzNz/z/sSJtUl+A/tVUIKjiszOXij/t5rba1dVaota0QbAC62vNTBWovYq/txIRroRVZtL6b1L2tJbKrUwOR6yp9+rtgAe+SYof0rG70fHQLfNzrKFlVjrD8xTxRtAITN8bEBM+gP8DjxwK8TBP/mAGX3g1eherb5xbT0/tLXin2VzO0/Fnor5wOfzKPAgfvwheef45E9pLsORJUMSj+BF1RgAx6YU192w2DLyR+axtcykG59vs/7/GkKxaTv+z4WEmafMtT9umGwmCrgJyv/hUqXmLmX8Lefn84d9RHmpspUSvqoMoABE5rx9hybqzSWorS5DBn0v7ivwK36iv0s2YVP/k8zztrY8Uv9ifLpKjC6b3XmyaRpnwkN2DuQ8D13CCYr5krH14pCqVfxaojBvZpElWi56VRpAAbzls+y/JGmyGAO1S6EQYR8FvxeK8VusQNpODLrDdYwd5PHUnzIRzzNwPz2Z1X08rfFOpYxNJ4ZxGrpsfxOiwufhgxHlEO8DOdtozfyL1VHAtNo+q9oACoXVOtM5jlrsWzCES6Ao6cL7CD5tGMWrUMwOpPM6lKjDZWSnQYxdruG+l3CMXV3dvZ3j68b02K+S7kJXgnfdMKtR023uS9WlkvW5tDfJ9MzJHvEmYULqcPxNQd/rGHRlpkApeR/eikD2fJSQGas16T+6Lv1uGPfwRiVnWPGOCgMogHX9zH2HWDXGQsOgV8ADMrnwXn/mB/+70L272816P+IXHo4WTEaVARQKlS/rnXC4cyFutVwAQ/hk4f1o/ESN/xRalnt3vZ1+6PZt1B5tGIxKAxhYyJmm7pMMz12AbsbFeH/EQFq1fofSv40NKg8mE+aqG9akMJgfvc+oN4BC0fPBpdHg/C367vPRIYDrMNjy60I8cf2E0r+L8claTICtdtelfxP1YD2uOAyWSxvAYETwe6Af3aR0JvPIX6GrVFlY4Tg9uIGfRb9+Y6XNYwxTJJG9qqxCjQwGccR8XoFa5tmmifGCR87EZkC+aMwUhyo7FRvhyPOGR56Cx2ir43q/rka/fdioagMoAlF+egWd6HzM8Nh0LJmYzhidTg1yCqKKzD05SEwbXbUXPY/toIzuYJTuqHHT//btDXTfID79U4KANgAJQKpkPobo/Zx9RDJJpxgMPnuDTEEf5Ej47bm7dTJOSZ6E7shE1NJpLDiqQYcqBfDzs9ToqvTgew8+u9FHdzCxthtLMPjq1PewPn8XlP0t4pLXMTP1OnFYB9lovaX78Kolo/k0AhoBjYBGQCOgEdAIaAQ0AhoBjYBGQCOgEdAIaAQ0AhoBjYBGQCOgERitCPwPBFnTxbjahX4AAAAASUVORK5CYII=;" parent="0Fs1EqQwWm2RgDKxZV1P-2" vertex="1">
          <mxGeometry x="65" y="60" width="55" height="55" as="geometry" />
        </mxCell>
        <mxCell id="wKkd2Ftk299Nv-PwKDOf-40" value="" style="shape=image;verticalLabelPosition=bottom;labelBackgroundColor=default;verticalAlign=top;aspect=fixed;imageAspect=0;image=data:image/png,iVBORw0KGgoAAAANSUhEUgAAAMAAAADACAYAAABS3GwHAAABdWlDQ1BrQ0dDb2xvclNwYWNlRGlzcGxheVAzAAAokXWQvUvDUBTFT6tS0DqIDh0cMolD1NIKdnFoKxRFMFQFq1OafgltfCQpUnETVyn4H1jBWXCwiFRwcXAQRAcR3Zw6KbhoeN6XVNoi3sfl/Ticc7lcwBtQGSv2AijplpFMxKS11Lrke4OHnlOqZrKooiwK/v276/PR9d5PiFlNu3YQ2U9cl84ul3aeAlN//V3Vn8maGv3f1EGNGRbgkYmVbYsJ3iUeMWgp4qrgvMvHgtMunzuelWSc+JZY0gpqhrhJLKc79HwHl4plrbWD2N6f1VeXxRzqUcxhEyYYilBRgQQF4X/8044/ji1yV2BQLo8CLMpESRETssTz0KFhEjJxCEHqkLhz634PrfvJbW3vFZhtcM4v2tpCAzidoZPV29p4BBgaAG7qTDVUR+qh9uZywPsJMJgChu8os2HmwiF3e38M6Hvh/GMM8B0CdpXzryPO7RqFn4Er/QcXKWq8UwZBywAAADhlWElmTU0AKgAAAAgAAYdpAAQAAAABAAAAGgAAAAAAAqACAAQAAAABAAAAwKADAAQAAAABAAAAwAAAAABu8xvwAAAm50lEQVR4Ae19CXwcxZlvVfeMZlqSb3MuYTGHIWCcvIVswpLdcDgkNvEhCXDIbx8hG0wSsEnCkQSw5LFlcyQhEBxICM7jwW6WGGPJNocXJyZ+WRM/smsIZiEBAmh3ARPAB1iabknTXfuvkcaWJXVV9Uz3qGdUbcTM9PdV1Vf/+r46vroI0Y9GQCOgEdAIaAQ0AhoBjYBGQCOgEdAIaAQ0AhoBjYBGQCOgEdAIaAQ0AtWKAK3WjJU/X4xmZnUdZqSMKYyRYyijU0yDHckomcw8NomYdDJxyURikDRArwFPDaUk1S9nDz67GSE9xCMOMclu6pFdhJL38H6X59I38dlBDPa6k2UdNz1R+zYhFOz6KRUBbQBFIJiZzWoTSed0z2PTKaXToYvTEc00gFlXRHSBg0Dzu5DWCzCCHTCuHYzSHVZX+t+v20S7Akc2ygNoA1BQgGtmfzB5fDJxFvPImQDsk6iZP4raO6EQtGwsaFFyhkGeQwuyNUfIU47jbrl545h3yyZAhSakDWCYgssQZhhN9scoYzMpoTNR454OoIxhWGP7CjJ7hJHtaCE2eibdSNqs32UIOlb6OQgBbQD74UAfvsE5M0nZRR4jF6KGP3w/qRq+MPJnFPbDrkdXt6xPb9VjiL5CHfUGkJnlTDVT3mXo1lwMMI6qBl2X5oGRNz2DPEh7jVXNG9IvSfmrmGFUGkDmLJamE5wmg7AFqOk/VcXlK80axg6/YYze6+1NP5zZQh1pgCpjGFUGcP25H0yqHZe8ghC2EBk/tMrKsqTswBDeJYzetdftveu2R8Zy9+uoeEaFAbTOtqeQJLmOEnYpStWKrGQZfPmUvcaY0WFQ9jqUqgPzAW9T4r3XS+gu0mu8R3p7O0lPruf97vHdb2yD3x/PUWeQmnGpvSlSk6ghyWS9kXInmR6Z7BJjEmHscMMkUxihx2BcOwVKOgWtVhrBonpsj9H7vR76vcxj6deiSiQu8Va1Adx4XvZDVj1djBr/SwA8GSrojH1AqLENSrnddekOwzB37GiveXkNoW6o6QyK7ELCzOkNPVM9z52OLtyp1DROh8fnEzDucYNYS/rJ3aoYKN/n5sjyzCPWf5UUWYwDV6UBXD9z3yH1ltmMQrwcg9vCbGtpxQCFRy38K7gVN2NG9imvve75uLgVuds22dQ1DTPGZzKDngvX7YywDALG1WMwcm9vl7sss2nMO6WBGL/QVWUAl5/GkkcfbS/CzGhLGAoAA3oFk19rDfjRc7vTv8UgEbVi/B8M8hPGOOcMtHyz0H1qhMRTS5YaFYDn0VbvT9admRdovutWcpwxiKBqDKB1btcsatLbQyjsDqzfWd1D2OrWtXXPxqCMShYhM6vzo0bSmE9NMh8FPqWUCHmlAMO6urm97tFS4olL2Io3gMx5+w5N1Jt3AtD5xYLKm3nMmq4jhnFv89rU5uqdJGJ06TznHCzSW4A8N6Dwa4rFDHitybreops21P+56DhiELCiDWDZPPtSw2C3AceJRWK5k3l0ZbY7t2q0rZvh65vG1SQvMxi7CtgdUQx+aA32YFx0bUu79X+KCR+HMBVpALzWN+sT96GfP6soEBl9ATXgbe7L6Z9XU3+2GCwyp7Aa4wTnC9Qg1wDPacXEgYm0f7Fd99JKbA0qzgB4Xx9r66H8wSeyGGF/QI2faVlnranebk4xKszDoHvUYF8AI8gYlJ4cNBa0Blh5yv6h0sYGFWMAvKZKnmh/HzX3osCFQ8jr1KNLcutQ4+sVkUL4MnCp0gbnYpOwZXAhHytkHoaIbTp39b5sXV0pLWtFGEBmTteRZoI+DGHh2gv0dMI3frP3fvoHo3GdSyCkBjEvmslSh9Q638QY4UaQ6geRhT9RST3t9JCmFY/W8p1ssX5ibwDLG+2/w3KAh1AbHRYESTTJ/2Rn2bdueqJuZ5BwmvdgBOBCPdxM0Vux8+2SgyniXzCCd4hH5zevs7aIOUeWGmsDaG3oWoC++t1Y+xJk91UH84yvNK9LbxpZaKsr9aUNzqcN6t0DhZmimjNUQjnisYXN6+vuUQ1Tbr6Y7nJidNnc7M2odX6qrPwY4XoeuSPVaU3Tyh++Gi1pT//S7bWmYbPQD1C7K+0s42WHycmfLG/M3soH2eFLVXqMsROK9z0Ps+z7kTX1iS1s8HAZ/eKSdRYmsfQTNQJLG+2zsRDvASjPUcppYeIst8e6JG5jsVgZwPfOY3VObXYdNegMVWDRzLbtzvYuuP2JcbtVw2i+0hH4zvl7J9TV1PAW+gLV2FBWT6a7rDlxOr0iNgbw7Rm7x9WPST8GQM9UAZT3L+Fyu27xuto7VPg1TzQILG/IXoUu0W2qXVXwbuv8wJl5668mvh+NRMFijYUB8J1a9eMTT0CpT1MSHxu8CaUXLW6zfqPEr5kiRSDTYH8S8wZrYARqBwl45Nk9bu68OOw8G3EDyMxkY5O19pOqyg++Z1yXzc5sqHsr0lLVkQdCgM/VJJN0g2o5Yhj97L5O5+yRbglG1ADyff46+wnVbg+26j2GE9Dmx6kPGUhLqpyZl6ddbz8I1+Jslazy7lC60/r0SJbniBkA9/Ycmso+GmDAe/dzbdZVUW85VCk4zeOPAN+y+ZFGm4/LFvpzHaCgxXjS3WOdP1LeoRGaB2CUuzpVlR9HnC1f3FZ7pVb+A4oT12+8jFBWizwXa4kUHrT+5yQm2A+M1DzBiBjAsrn2TcBGyc/PXPKdlra6ZgUsNUuMEGhZX7cEtfu3lESi5MLWBhuTZeV/yt4F4ssb+AyvUlYZ+fri9lq+20s/FYrAsnnZhTi0d6WK+MxlXy33somyGgBf2MYY26ziM+Y1f/P62hGpFVQKS/OoI9DakL0OZf5dWQi0GDmsmPh0ORfQlc0AuJssYdJnVFZ18j6/7vbI1KWy6Mvmdi3F6RotMqnhGXrHtclpmY21b8h4w6CXZQzAN7Pw9fwqyo9M3a2VP4yijVccfEwAiX4kkwo18qGmRR7mOiPjDYNeFgPgO7mQMelmFu7n567OMDKm44gfArk26+tYRvqITDLoyseTU+0fyPjCoEduAHwPL5o16TZG9P+e4ZNc2tUZRrHGMw6+HdXqtC7GeGC7TEIsnr4SDpPPyfhKpUc6Bug7vcF8njdrQkGxtifnsr/SyxuEKFUN8YbPdB1h1dJnYAjCtUOoFN91u73pmcfrcSlgNE+kLUDf0SVi5c+P/LGwTSt/NAUcx1j5NlWX0AvzZS8QEAZyiJky7xOwlEyKzAD4oVUq5/bklzTrVZ0lF2SlRZBpt7aiZ3CNTG5K2Wdb59lflvEVS4+kC3TDnM7DahPGixBKeGIbaoC25vbapmKF1+EqHwHMEfBl1MJNNdCTPegKnRxFVyiSFsAyDT57K1R+nC35Jt/JVflFqHNQCgJdPT2Xw0ki9PnDQCaYKUNpNjmoLKEbQP6UZkouEgqCDex8D6/exihEaVQQb3ls/B6P0EtgBMKN9ryViMIrFKoB8PP5+48oFxYeThb4od7ALoRoVBGXtFm/RjdHurUVa8huD3uCLFQD4JdToOSmSkqvw8pauLZIPxqBAwh4OasZ3eLXDrwZ9tvxxvF2qBOloQ2C+bVEtVbiFXh+hHdV4dCqz+hze4Yt3FH/srXJmUGZ90shELipJtflnRDWdU2htQD8Ti6p8uO4Qq38wuId1cTmtelfYbXwA0IQKB2brDOli+qEcQwghmIA/DZG9OEuHxDvcF87+VmdwxH0O41AAQG3m30burSv8Hu4T4+SBZnZ9tHD0YK+C8UA8leRSm5j5Kc064NqgxbP6OPP+/o9skKUc/TbaxJJEsouwZLHAPwSappkL0HgpJ/QcHG9/o5tfXjlRtrtxyN6j400OFyVyVqYg6Pov9bU7Tauzzyefvlgov4VZwTyx2Om7RexfP5YPznRSuSIY5zUvDH9qh+PyvvSWwDcwI6EfJWfC4FbWVqKVX6VTAzLg74ifMeNibT3dGaWI/NMDRuFfjkyCHBdwZWswhoeZZsgFuO6V9JTkgHwi9Yw8L1UJAG/lshbl/5nEU/EtPFGyrsl4jR09CEj4K1P/8JjjC+n8X8Y+yL3PvozyCklGcCEmuQVSMISJcPv5Brpa4nQz1M+bFeUF00rHwJcZzDxtUSUIlqBdK1lXCnikdGKNgDcRp6Gy0qcOG5j7LuQTiZGtHQANSbaFHTsUSDQ3GatxRmwz4vipoxeyXVRxCOiFW0AdILThJr1UFHkGPzehhte8BGHJ54XNMQBmfjKAN3xuA4JHkomJ8Y7Fwo4hKSiDQAXJMhWcu7k9/AKU9dEjYAEgdzL6Qfh8XlLxMaoVBd9gyd8KQIC96pQ6n1KwMI9Pysr5arM1s85J5AkBsqUniubzRblWdPECORdl4S8ijU/P8bZP1gyL+8dcB1qPT57JzGJryMDXdy/zTR1n5RZm/qjWIKh1KIMwEx5lw2N6sAb9Hl6st25VQfelPYN9wB8Bc7Ur4piwVyBcDmtX9h+5X8aIE5AGn5s+n0ICABjrm8nwr9/x7IG56SWdvI1lWiznblVdWMTSxEu5cdPXZfr5LV+dL/3RXSBGPJBvuAXYf49I+tu3jgGN4eH+fDaQvRXZFqo+fuUv8jwOlhRCBiUfRVXsH5UJfDNm8fuQuG3i3gNSi7O4JJvEc9wtMABMg3OmbDEvxgusv3vDOPe/d9j/gVdnhkxF7FqxTOSRgDsqVCnUIkdmWh0PhkUrMAGkKBMdqpzR/Pa1OaggowYP2aMRyztUZ4wNrwrY9/cnv61fL+AVDeHIB7IAHgTg4GMcAOz55JfqAxuhkiiX2gEhAhQBm/PaiELI038gg4hzyBiIAMgjfZfo6kRHmbUm2APDUpD/9QIhIIAJl7FBkDJYafMtT8eJLFABoCbAD8rihytwyuta+ueFfFomkagWARa2uufg47xlce+j4lzhHyJwxC4W0r5oYTOFDEzj6wV0SuRBhdsoEqiEvMYlczLmxzs82VLw4wf4wboGL3BP868jirvGFMuXL7yE66o0/0TJgTnv28U0SuXJnK/apqfexq1degTKzlmCHUMXfTT+Jm0qrqmbABjE4mz4f/35WeEvp/bnf6tasKar/oRgDJCZcJ9XmhPb0OMe31jRZrUMs/2pQ8i+Cr0ID4+hXfm4HcDf8PYf4WrLnMD3+nvoxuBKFqA/PH5jPxShGzCFOvqwLDKBoDDrIQGQFz25MCI9XeNQBQtQB+qYl2T6uqAolEyAH4DOBoz4bS1mWBbB8Srv2oEMP4NfwzAYc31eEJdg+F9BHsE6lWKQMkL1F3vnIbOnD8vNqD3ttX9h0qC1cvD6PIGexFGfXyX3HEoBH+8KgAEKC/vzgZauTk4W/kWIPRhMFJ5rP5FzEnxccD4wWn2/zbN8Q532Gzxoe9/rdQCMI99ZH+I4b5QY1sGW9iGI42Wdysa7JVoJX+IQj+x0pWflxnPQz4vRn7l5t1xKkeua7hPjg+GBY9EZ/tDKhkA0DhVkBJI3nYxvbqpy+Z2nsrvtKrWXAZZuVk2DKhE5wwm0dk+SRUNgE0XZcx16Q4Rvdpp1AiyqrEy0Qi2cjP6PGJhkFjnGBXqbEFCBQPI76WdVggw3KdhmGJhhgtUTe9Y9a8oDbJysxxFa7iGTOdOwQYn6TyE1AAys7oOQyx1vplipHtHe40+ec0XIE2IAoEdG1J/Qry2X9wYv9Rm5mSP8KMX3ksNwEgZUwrMw31iiepr+m7f4ZDR76Jyg3Jk+ybE6GsilI0EFeouDys1AOKJI2HM6BAJoWkagagQgNuxQxi3RHd5WBVf9TGiROAheF1E1zT4yFy2rGV9baYULDDHgKt18c/nea7NSqyR3LPlEzT/OpqVm5A3inmA/ozIdA+1+zGiPHOatAUwTPYXokjQzHWI6JpWQKDUVaOFeIb/5CM+v1WZau+HjzfOb1EbdIjkwz0CQt3lYaUGAJ5JokTgjtopomtaOAjAnxFhXQrriWDZQhRxDkQT7neh7uHwNqHu8rjkBsDI5IGJDv5uEm/X4Hf6t0agHAiwhCvTPaHuchmlBoCTVoRW5BrkvXJkVqehERiMAHWpUPfQZAp1l8cnNQDiim9897pNmRUOllv/LgIBjCB8B8BFRDckCPzmoccfRZwDBfccQ6x7VKy7PC65ARgkPTDRId97ezuHvNMvQkdAjwGGQrovKdY9VBpi3UWUUgNAtVAzNOkBb3pyPQN+6a8agbIhMCY3RqJ7TKy7kFRqAOBJiXL0fvf4oi6+E8WpaRoBFQTQ/5HoHhXqLk9DxQCEVvTGNiKxQpWsaB6NQHAEVm6U6p5Qd3mKKgYQXDIdInQE9CA4dEjzEaoYgLCGP+oMyRghGrlHXax6EDy0yBfNlOqeUHd5jCoGIOxnjUvtlfazhoqu32gESkcATn6J7jGh7nIJpAaAyQSxFdUkpP2s0rOqY9AIDEVgX2KfRPeoWHcRpdQAcEufMzTpAW+SSaXjJwaE0F+LQECPAYaCNqZXrHvoNop1F1HKDcAku4cmfeCNkXKl080HuPW3YhHQY4ChyBlpT6x7TKy7PEbpfgAcdrJLNElueuLFckPFHn1vqEH/rrXRbi4l51gMKqysEk3O4lZmF79ilLGzROVcjOz5pRDFSyRNkplssmjbLyZxxUslkILUAACKcMGRSwyxFUqzUf0MUISzsOAYfxE+OIa8pMU8JQUePl98OXQE0e5PjObMScQUWphQd3lEwlqlPyWxFTEmvDFmv7T6y6hDIOrFcIYh1j2PULHuokSkBuC59E1RyRkmmSKia9roRSDqDTHonQh1z2BEqLu8ZKQGAJ4Ozuj3YJXuMX60UfPezJ+jWdXZpaYR+Oj7qFsA7JET6p500zxKTG4AhmzTuye0wqrWiv7M4ezUV6s9n66Hg3Jj91Cx7kl1V8EAnCzrEOab0SlBr6YUxleBRKvLegS1kbS5rcCsFUTeyfak1xd+xOEzw71ilB0rksXLySpvBQO46YnatzHO7vJLCM1cenpDz1Q/+mh4f90m2uUxNhd93reqML87c5TNwe0/sdr4ZM7pPgFYWwK87cyG2p0Cep4kd4PCzCjJvgDuv/aLzPNcfhDpH/zoo+F9y7q67bhIZGq2zplnGuQ45noK2MYXGd7n590eXvPHTfk5ap7pTRfdiI3K6D/6joMRY6xYSPwkXuZrADh+4lQkI77EWCxHVVB5S4CM/LwqMhNCJqKcBzAYdA7dD78HE4fP+9EGvpcPgsGNQZ7wJF7UFqcPjFR/1whwBKL0AjEq1jnp8en9RaRkAJjKf05UpBgjfCI/KBExaZpGIDQEoP6UnSGOTqyzhbBKBpDqTG9Hc+brB0ZzMy7Z1DWtEKn+1AhwBHgXKAokMud34iRI3/vBeJKuuzf97yppKxlAvm/LyO9FEWLGWHyNqiiwplUlAlF1gcyEIdQ1GN5zqgN3xUEw/KWUPAVz9u3rM4Oei1L8cbWVJD81mfWvsqQe2+cxb3PL+nqlAVYUWGTO3zfNTJrnokDGFhN/KXn45hnMmnCYPRtL3I6nJhE5YfKiYez4KcE4tRjx82HQ/+G65vtwXfUlDiIoGwD6P08hx18fFH7/TxwsNgN3syaq7rb4gass0V4a+LeiIXvXje3WIhU3236ASv7C6IpG+4eohJAuf4rsXfTnYXlj9u7FbdZC1TxkZnV+NJG2NyDhDymn7e+kyeegmP/lJ12p/WlR2JyrbgBKXSCemOO4WwC571WofBxgjHMkAxOR2JVDw8TIla3z7KvKKfGyefaVB5Q/lJSvWD7P9q3QBqbAa/5E2uhX/oGU8n8/tdH+BFL1ux+Y2yYabPfXqpIpG8DNG8e8i8i3iyNms8T06qFSI38hdtkyhGb9yrATgyHzS72lT77bk6/5payRM2DOSahjKJdnMpvGvKMqiLIB8AjRp9soihhLoxtF9DjSRN4tkbyojY8X0UOnUXJcNHHCDGQP+vwylmLoxawwxfhDqGMuE+voYDkDGYBnUqEBIPKpvK84OJGY/y5qlSO0BtgpKE9YmWcKu/cCpsXzkMEgQBbMSISfNk8z6ArTFU2d0yHtSSJ54Y2U6ehBwQMZAGmzfoca8+2DYhj0Axcqzx/0KtY/cdrCT2ItYPUKF3iFKWZ3hbqFVvmdF9ZbTweBLJABZAj1EGCtKAG4xyBkGWtGkTAKtMXrrB96jGojUMAqRJYiVpjiQl4iNgA0ZQ8HvbJX2Q1ayLzr0dW4OM93QAYhpiyd55yzZB3ZXAgT70/KWtrJ19B1uwet14yBN6LD39wcb9kPSOcRthwneKASPPgpRx7QK/hX+F62HJzy0F+lrDBd2uicBd0SjoNQkT00NFXxm8AG0LI+vRVXdr6JvpjvDXymwRYg2QoxgD6AMo/X85nug2a74SuPjQGgTeXNKv4b/vHaapfwFnowtbUxeyMCBWrpB8cBBRc36VD+5nV1LYPDhfnbZNAp39znU9rptaf/NWiaRQBDGfpBD4oSQjXUcM3sDyaLeDQtGALFngxXbLiB0kW1pGFgGqLv15/7AT96R+j98Rh5cLgKQBQvpwVuAXgg2musIgnvWv59uAeGWjOuJnkZaLcMR6+WdzjsChPk2XJlR1z/FSmF2Wj3tsrywMSHchWZtHIwa0ziy6j9hQfhUmKuUo5wAGMRLQAhzRvSL6FZ/M2AeIZ8xYaFqzKnyK+oGRKwgl7wrkW5/oqFhXedRGFV5BeFj5p2+WksCZDFs+6MbG1uT/2hGFmKMgCeEFxS90oSPMI4wfmChEeTNQJCBI462rlYNN7kgXEAlkwXfdMo2gC8vemH0Qq86xszCJiWvqaSXKKivFQqLYwxwMjlnWH4waBDgoeR9/a8nV4j4BCSijYArPp04Bu4SxQ7hJ+2tMG+QMQTaxpjH8Ravn7h0Mfp8hsAQoUizwN6A5GksXSe3QgL4Acu+D6ex+6+fRu1fRkkhKINgMe71+3lBiBMHEaQyUhONpbIOGJkNK0V4crFEYD+cjLmTwsJ2d5E+GlwnTEpXSoSET0Qx7M9YSUsCs9pJRnAbY+MfQ+TD/eLEjEoPZk2oB9XgQ91jesh9t44i47Z0fd7DfPbfjK63VHngf60dW3ds37pF/uezrPn40SeU0ThKaUPBFn5OVxccAKU9mTOd441a7yX0FT5u1QZee3PjnXyyo20u5jU4G7EUoX85JpvcO7N8CWCgM0foKNHHPBpneOcyEzvVngizkXQ+oDBI2Pn3R5e83Plz6xN/VGUEM+DkfBuQZgZYeQB8XjA+zX4l36ca7fu8Ot+iWQS0bj30DzRfhFp+M78ovbPua7x4cyG9J9Ecclo/korC9lPzzyWfq21wb5PqKCUHHtIrfNNBClqXgBA4D+xgiuKG5iNu3wRaB4PGKeuXBCl689DQ1h5yKCwi6lMePoqj3GC/Q2R8ufjoOz+UpWfx1OyAfBInC7Wmq4nX4TQvpeWYV7gRqy3+b9YciBcTcrji+sTROl0HopD4IY5nYehN7FYFBrW10Mdo1XEo0oTdhtUI1mxqfa/ofw/lfDXmyl6q4RHk0c5ArUJegsMYIwYBvqzxY9b/ynmUaOGYgA8qVyn28oHZKJkMWi5pLXJ4f3Qcj+dUTbZ5c5MtaaHrvQ5KKdLhfmDa9rOuUuFPAGIoRkAH41jv6a0WaKed09mNqsNIGPJrFgoFbkrsGQhR3kEfOM9fBSyXgSB13HFTRvq/xwWXKEZABeo9yVrJUbnrwiFw4DYSNhSQxHGEYDIWyXPML8TIIhmHQEEJhxpL0M32tfrw0VC3/9V7xXrjjDFC9UAMi/QHpzZyL09wgd9vG8sbbTPFjKVSARYOLOfrHep8QmZm7DEpHTwEhFY1mB/Cg7qq2XRuIRdzXVMxheEDqML/1nekH0IjssLRTFDQd/o6u6Zfstj4/eI+PpojGbQOZTzHeCoBo/NgdxU77fMWXvGJyamdiCHHxLlEjt91ra01Ya+rCYUN+hgwbOut8gy+fZCMmEwrfAb2nxUXU0N7/MJDaWPn7JMvgUshNaf1YKAOSF1D/IiVH7Q98LV3n8iXrg5D7ULVBCND1LQ97628NvvEwZyAVoL8Vpvv8D6fcUjsGxediF04CJZRjyXXXfTE3XS645k8QxHD9StGC4C0Tv07R7HmGCmiAe03hyj52Tara0SPk2uIgQyc7N/kzDJFmQpKc4WfWJxWxo6FHwZizjePmokLUAhYcd1vyTbMwDepEnYmhs+03VEIZz+rG4EsCLgcCj/w7zshTnFWv+c414alfLztCM1gD5/LfsHYSZBRDN4eF09fQSXzNXJeDW9shHgc0BmKn/QrrTCw+2UX4566UykBsCLqrm97lE0XtI122gpTrPr7QfjtOCsslUtftLzssUc0D+jwvuYTDqMIX+caavbIOMrlR65AXABe1+2robb82mZsBBmdgJn4Mv4NL0yETDm2rdjWflcBel/946dls4nKcQjZSmLAfDJC6eHNMEIVI6tXtja2JWRSq4ZKgqB5U12C04Pl3r8+JjR7iQXFLt3JCgoZTEALtSKR2vfxDaK+cggztIRP7htZsmyuVmpG1Uci6bGBQG4uq/GMSJLFeRxMSL8PF9drMAbCkvZDIBL27zO2oLVTLiWR/6gtvhea0PXlXJOzRFnBFrndX0Nc/i3qcgIf/9Vze3Wkyq8YfGU1QC40M3r6/jM33dVMoDl0z/SLYEKUvHk4TU/Due9W0U63BVwW8v6OiVelfhUeSKdCPMXglEcsLtatl6oEB5nsy5tbqvLFH7rz/gjwPv8it0efvEc1vlYWBITzWSXCK2ytwB9wlCW22NdgvGAUnPHxwQrGrN3ahepqCjjQeNlhFs071BVfujAFm+39fcjofwcsRFqAfoKi098OfX2LyHEGSrFh/phQ2/OujjzCM2q8Gue8iLAJ7mSSfvn8PblDxGQpc5d4+5ua4bqpday+Iqhj1AL0Ccqv4G+8wNnJtrAZ1WEx0Gvc0zT/n962YQKWuXl4csbzIS9RVn5Kfm9u7v7syOp/ByhEW0BCkXE7xKYYCY2YWHG/yq8k3zuxAK6i/QCOglKZSLzhW2mQdZghvdIlSRRkf0+m3XPy1+9qxIgQp4RbQEK+eInzO3rdM5G7bGt8E7yeUSCsidb52UjWSMuSVuTByDAXdV8Vaey8vNuz67us+Og/DwbsWgBCnhmzmL15gR7PcA8p/BO+snIms6enq+o7SyTxqYZFBHgO7n4ZhaU1UWKQTAuJlvcPdbske72DJQ3VgbABYMRpBMT7AdUXaQ8DFqONzDL/L/zE238hX4iRYDv4cU+j39EIrKdXPvl4K5O7u2B8jv7X8bgS+wMoA8TRnFGzK2oXa5TxQhG4HkeuZ25Vov2EqmiFoyPH10y8XB7KSqna6A4yt1nPsm1ZJ2Fsiy/n1+Ww5gaQJ/Yyxu6vorNAj/CL1OWkf10HMTrMno5AN+8/53+UjIC+UOrcG4PFOa4AJG5fHnDSMzwqsoYawPgmWidZ59FDLYagh6qminOxxi73+1m34l6Q0UQmSqRl5/VaZn0ZixL+VIQ+dHffxc1/ufLvbYniIycN/YGwIXMzMweZVrkYQj7cf5b9UEh7MMcw4p3eqw7yrW8VlW2uPPljyifan8dF5wsRis8Noi8wP3fnC7SVM5VnUHkG8hbEQbABeYFkjjRvh1frxiYAZXvGB+8ylza4q1P/yIzzGXSKnGMFh6+lMFosC/CxpVW5Pn4oPnG0YU/eddJf6NSKpyKMYBCQSyf2zWbGfRnGCAfUnin/MnoCy5jSzA+aIvjgEw5H5Ew5h0PDajtl/K73QIngQ3s6Hhetri9bn3gsCMYoOIMgGOVn3ZPmfdRyj5bFHaUPg+P0fff+K/0gz/dTnuLiqNKAvF7eI/+kPN5Rtm1qFSmF5MtjLc22VlyaVRn9xQjk2qYijSAQuYwQP4yNdj38Xt84V2gT0bexPmhd9r7cj+7efPYXYHCVjjzNz/z/sSJtUl+A/tVUIKjiszOXij/t5rba1dVaota0QbAC62vNTBWovYq/txIRroRVZtL6b1L2tJbKrUwOR6yp9+rtgAe+SYof0rG70fHQLfNzrKFlVjrD8xTxRtAITN8bEBM+gP8DjxwK8TBP/mAGX3g1eherb5xbT0/tLXin2VzO0/Fnor5wOfzKPAgfvwheef45E9pLsORJUMSj+BF1RgAx6YU192w2DLyR+axtcykG59vs/7/GkKxaTv+z4WEmafMtT9umGwmCrgJyv/hUqXmLmX8Lefn84d9RHmpspUSvqoMoABE5rx9hybqzSWorS5DBn0v7ivwK36iv0s2YVP/k8zztrY8Uv9ifLpKjC6b3XmyaRpnwkN2DuQ8D13CCYr5krH14pCqVfxaojBvZpElWi56VRpAAbzls+y/JGmyGAO1S6EQYR8FvxeK8VusQNpODLrDdYwd5PHUnzIRzzNwPz2Z1X08rfFOpYxNJ4ZxGrpsfxOiwufhgxHlEO8DOdtozfyL1VHAtNo+q9oACoXVOtM5jlrsWzCES6Ao6cL7CD5tGMWrUMwOpPM6lKjDZWSnQYxdruG+l3CMXV3dvZ3j68b02K+S7kJXgnfdMKtR023uS9WlkvW5tDfJ9MzJHvEmYULqcPxNQd/rGHRlpkApeR/eikD2fJSQGas16T+6Lv1uGPfwRiVnWPGOCgMogHX9zH2HWDXGQsOgV8ADMrnwXn/mB/+70L272816P+IXHo4WTEaVARQKlS/rnXC4cyFutVwAQ/hk4f1o/ESN/xRalnt3vZ1+6PZt1B5tGIxKAxhYyJmm7pMMz12AbsbFeH/EQFq1fofSv40NKg8mE+aqG9akMJgfvc+oN4BC0fPBpdHg/C367vPRIYDrMNjy60I8cf2E0r+L8claTICtdtelfxP1YD2uOAyWSxvAYETwe6Af3aR0JvPIX6GrVFlY4Tg9uIGfRb9+Y6XNYwxTJJG9qqxCjQwGccR8XoFa5tmmifGCR87EZkC+aMwUhyo7FRvhyPOGR56Cx2ir43q/rka/fdioagMoAlF+egWd6HzM8Nh0LJmYzhidTg1yCqKKzD05SEwbXbUXPY/toIzuYJTuqHHT//btDXTfID79U4KANgAJQKpkPobo/Zx9RDJJpxgMPnuDTEEf5Ej47bm7dTJOSZ6E7shE1NJpLDiqQYcqBfDzs9ToqvTgew8+u9FHdzCxthtLMPjq1PewPn8XlP0t4pLXMTP1OnFYB9lovaX78Kolo/k0AhoBjYBGQCOgEdAIaAQ0AhoBjYBGQCOgEdAIaAQ0AhoBjYBGQCOgERitCPwPBFnTxbjahX4AAAAASUVORK5CYII=;" parent="0Fs1EqQwWm2RgDKxZV1P-2" vertex="1">
          <mxGeometry x="65" y="5" width="55" height="55" as="geometry" />
        </mxCell>
        <mxCell id="wKkd2Ftk299Nv-PwKDOf-25" value="" style="shape=image;verticalLabelPosition=bottom;labelBackgroundColor=default;verticalAlign=top;aspect=fixed;imageAspect=0;image=data:image/png,iVBORw0KGgoAAAANSUhEUgAAAMAAAADACAYAAABS3GwHAAABdWlDQ1BrQ0dDb2xvclNwYWNlRGlzcGxheVAzAAAokXWQvUvDUBTFT6tS0DqIDh0cMolD1NIKdnFoKxRFMFQFq1OafgltfCQpUnETVyn4H1jBWXCwiFRwcXAQRAcR3Zw6KbhoeN6XVNoi3sfl/Ticc7lcwBtQGSv2AijplpFMxKS11Lrke4OHnlOqZrKooiwK/v276/PR9d5PiFlNu3YQ2U9cl84ul3aeAlN//V3Vn8maGv3f1EGNGRbgkYmVbYsJ3iUeMWgp4qrgvMvHgtMunzuelWSc+JZY0gpqhrhJLKc79HwHl4plrbWD2N6f1VeXxRzqUcxhEyYYilBRgQQF4X/8044/ji1yV2BQLo8CLMpESRETssTz0KFhEjJxCEHqkLhz634PrfvJbW3vFZhtcM4v2tpCAzidoZPV29p4BBgaAG7qTDVUR+qh9uZywPsJMJgChu8os2HmwiF3e38M6Hvh/GMM8B0CdpXzryPO7RqFn4Er/QcXKWq8UwZBywAAADhlWElmTU0AKgAAAAgAAYdpAAQAAAABAAAAGgAAAAAAAqACAAQAAAABAAAAwKADAAQAAAABAAAAwAAAAABu8xvwAAAm50lEQVR4Ae19CXwcxZlvVfeMZlqSb3MuYTGHIWCcvIVswpLdcDgkNvEhCXDIbx8hG0wSsEnCkQSw5LFlcyQhEBxICM7jwW6WGGPJNocXJyZ+WRM/smsIZiEBAmh3ARPAB1iabknTXfuvkcaWJXVV9Uz3qGdUbcTM9PdV1Vf/+r46vroI0Y9GQCOgEdAIaAQ0AhoBjYBGQCOgEdAIaAQ0AhoBjYBGQCOgEdAIaAQ0AtWKAK3WjJU/X4xmZnUdZqSMKYyRYyijU0yDHckomcw8NomYdDJxyURikDRArwFPDaUk1S9nDz67GSE9xCMOMclu6pFdhJL38H6X59I38dlBDPa6k2UdNz1R+zYhFOz6KRUBbQBFIJiZzWoTSed0z2PTKaXToYvTEc00gFlXRHSBg0Dzu5DWCzCCHTCuHYzSHVZX+t+v20S7Akc2ygNoA1BQgGtmfzB5fDJxFvPImQDsk6iZP4raO6EQtGwsaFFyhkGeQwuyNUfIU47jbrl545h3yyZAhSakDWCYgssQZhhN9scoYzMpoTNR454OoIxhWGP7CjJ7hJHtaCE2eibdSNqs32UIOlb6OQgBbQD74UAfvsE5M0nZRR4jF6KGP3w/qRq+MPJnFPbDrkdXt6xPb9VjiL5CHfUGkJnlTDVT3mXo1lwMMI6qBl2X5oGRNz2DPEh7jVXNG9IvSfmrmGFUGkDmLJamE5wmg7AFqOk/VcXlK80axg6/YYze6+1NP5zZQh1pgCpjGFUGcP25H0yqHZe8ghC2EBk/tMrKsqTswBDeJYzetdftveu2R8Zy9+uoeEaFAbTOtqeQJLmOEnYpStWKrGQZfPmUvcaY0WFQ9jqUqgPzAW9T4r3XS+gu0mu8R3p7O0lPruf97vHdb2yD3x/PUWeQmnGpvSlSk6ghyWS9kXInmR6Z7BJjEmHscMMkUxihx2BcOwVKOgWtVhrBonpsj9H7vR76vcxj6deiSiQu8Va1Adx4XvZDVj1djBr/SwA8GSrojH1AqLENSrnddekOwzB37GiveXkNoW6o6QyK7ELCzOkNPVM9z52OLtyp1DROh8fnEzDucYNYS/rJ3aoYKN/n5sjyzCPWf5UUWYwDV6UBXD9z3yH1ltmMQrwcg9vCbGtpxQCFRy38K7gVN2NG9imvve75uLgVuds22dQ1DTPGZzKDngvX7YywDALG1WMwcm9vl7sss2nMO6WBGL/QVWUAl5/GkkcfbS/CzGhLGAoAA3oFk19rDfjRc7vTv8UgEbVi/B8M8hPGOOcMtHyz0H1qhMRTS5YaFYDn0VbvT9admRdovutWcpwxiKBqDKB1btcsatLbQyjsDqzfWd1D2OrWtXXPxqCMShYhM6vzo0bSmE9NMh8FPqWUCHmlAMO6urm97tFS4olL2Io3gMx5+w5N1Jt3AtD5xYLKm3nMmq4jhnFv89rU5uqdJGJ06TznHCzSW4A8N6Dwa4rFDHitybreops21P+56DhiELCiDWDZPPtSw2C3AceJRWK5k3l0ZbY7t2q0rZvh65vG1SQvMxi7CtgdUQx+aA32YFx0bUu79X+KCR+HMBVpALzWN+sT96GfP6soEBl9ATXgbe7L6Z9XU3+2GCwyp7Aa4wTnC9Qg1wDPacXEgYm0f7Fd99JKbA0qzgB4Xx9r66H8wSeyGGF/QI2faVlnranebk4xKszDoHvUYF8AI8gYlJ4cNBa0Blh5yv6h0sYGFWMAvKZKnmh/HzX3osCFQ8jr1KNLcutQ4+sVkUL4MnCp0gbnYpOwZXAhHytkHoaIbTp39b5sXV0pLWtFGEBmTteRZoI+DGHh2gv0dMI3frP3fvoHo3GdSyCkBjEvmslSh9Q638QY4UaQ6geRhT9RST3t9JCmFY/W8p1ssX5ibwDLG+2/w3KAh1AbHRYESTTJ/2Rn2bdueqJuZ5BwmvdgBOBCPdxM0Vux8+2SgyniXzCCd4hH5zevs7aIOUeWGmsDaG3oWoC++t1Y+xJk91UH84yvNK9LbxpZaKsr9aUNzqcN6t0DhZmimjNUQjnisYXN6+vuUQ1Tbr6Y7nJidNnc7M2odX6qrPwY4XoeuSPVaU3Tyh++Gi1pT//S7bWmYbPQD1C7K+0s42WHycmfLG/M3soH2eFLVXqMsROK9z0Ps+z7kTX1iS1s8HAZ/eKSdRYmsfQTNQJLG+2zsRDvASjPUcppYeIst8e6JG5jsVgZwPfOY3VObXYdNegMVWDRzLbtzvYuuP2JcbtVw2i+0hH4zvl7J9TV1PAW+gLV2FBWT6a7rDlxOr0iNgbw7Rm7x9WPST8GQM9UAZT3L+Fyu27xuto7VPg1TzQILG/IXoUu0W2qXVXwbuv8wJl5668mvh+NRMFijYUB8J1a9eMTT0CpT1MSHxu8CaUXLW6zfqPEr5kiRSDTYH8S8wZrYARqBwl45Nk9bu68OOw8G3EDyMxkY5O19pOqyg++Z1yXzc5sqHsr0lLVkQdCgM/VJJN0g2o5Yhj97L5O5+yRbglG1ADyff46+wnVbg+26j2GE9Dmx6kPGUhLqpyZl6ddbz8I1+Jslazy7lC60/r0SJbniBkA9/Ycmso+GmDAe/dzbdZVUW85VCk4zeOPAN+y+ZFGm4/LFvpzHaCgxXjS3WOdP1LeoRGaB2CUuzpVlR9HnC1f3FZ7pVb+A4oT12+8jFBWizwXa4kUHrT+5yQm2A+M1DzBiBjAsrn2TcBGyc/PXPKdlra6ZgUsNUuMEGhZX7cEtfu3lESi5MLWBhuTZeV/yt4F4ssb+AyvUlYZ+fri9lq+20s/FYrAsnnZhTi0d6WK+MxlXy33somyGgBf2MYY26ziM+Y1f/P62hGpFVQKS/OoI9DakL0OZf5dWQi0GDmsmPh0ORfQlc0AuJssYdJnVFZ18j6/7vbI1KWy6Mvmdi3F6RotMqnhGXrHtclpmY21b8h4w6CXZQzAN7Pw9fwqyo9M3a2VP4yijVccfEwAiX4kkwo18qGmRR7mOiPjDYNeFgPgO7mQMelmFu7n567OMDKm44gfArk26+tYRvqITDLoyseTU+0fyPjCoEduAHwPL5o16TZG9P+e4ZNc2tUZRrHGMw6+HdXqtC7GeGC7TEIsnr4SDpPPyfhKpUc6Bug7vcF8njdrQkGxtifnsr/SyxuEKFUN8YbPdB1h1dJnYAjCtUOoFN91u73pmcfrcSlgNE+kLUDf0SVi5c+P/LGwTSt/NAUcx1j5NlWX0AvzZS8QEAZyiJky7xOwlEyKzAD4oVUq5/bklzTrVZ0lF2SlRZBpt7aiZ3CNTG5K2Wdb59lflvEVS4+kC3TDnM7DahPGixBKeGIbaoC25vbapmKF1+EqHwHMEfBl1MJNNdCTPegKnRxFVyiSFsAyDT57K1R+nC35Jt/JVflFqHNQCgJdPT2Xw0ki9PnDQCaYKUNpNjmoLKEbQP6UZkouEgqCDex8D6/exihEaVQQb3ls/B6P0EtgBMKN9ryViMIrFKoB8PP5+48oFxYeThb4od7ALoRoVBGXtFm/RjdHurUVa8huD3uCLFQD4JdToOSmSkqvw8pauLZIPxqBAwh4OasZ3eLXDrwZ9tvxxvF2qBOloQ2C+bVEtVbiFXh+hHdV4dCqz+hze4Yt3FH/srXJmUGZ90shELipJtflnRDWdU2htQD8Ti6p8uO4Qq38wuId1cTmtelfYbXwA0IQKB2brDOli+qEcQwghmIA/DZG9OEuHxDvcF87+VmdwxH0O41AAQG3m30burSv8Hu4T4+SBZnZ9tHD0YK+C8UA8leRSm5j5Kc064NqgxbP6OPP+/o9skKUc/TbaxJJEsouwZLHAPwSappkL0HgpJ/QcHG9/o5tfXjlRtrtxyN6j400OFyVyVqYg6Pov9bU7Tauzzyefvlgov4VZwTyx2Om7RexfP5YPznRSuSIY5zUvDH9qh+PyvvSWwDcwI6EfJWfC4FbWVqKVX6VTAzLg74ifMeNibT3dGaWI/NMDRuFfjkyCHBdwZWswhoeZZsgFuO6V9JTkgHwi9Yw8L1UJAG/lshbl/5nEU/EtPFGyrsl4jR09CEj4K1P/8JjjC+n8X8Y+yL3PvozyCklGcCEmuQVSMISJcPv5Brpa4nQz1M+bFeUF00rHwJcZzDxtUSUIlqBdK1lXCnikdGKNgDcRp6Gy0qcOG5j7LuQTiZGtHQANSbaFHTsUSDQ3GatxRmwz4vipoxeyXVRxCOiFW0AdILThJr1UFHkGPzehhte8BGHJ54XNMQBmfjKAN3xuA4JHkomJ8Y7Fwo4hKSiDQAXJMhWcu7k9/AKU9dEjYAEgdzL6Qfh8XlLxMaoVBd9gyd8KQIC96pQ6n1KwMI9Pysr5arM1s85J5AkBsqUniubzRblWdPECORdl4S8ijU/P8bZP1gyL+8dcB1qPT57JzGJryMDXdy/zTR1n5RZm/qjWIKh1KIMwEx5lw2N6sAb9Hl6st25VQfelPYN9wB8Bc7Ur4piwVyBcDmtX9h+5X8aIE5AGn5s+n0ICABjrm8nwr9/x7IG56SWdvI1lWiznblVdWMTSxEu5cdPXZfr5LV+dL/3RXSBGPJBvuAXYf49I+tu3jgGN4eH+fDaQvRXZFqo+fuUv8jwOlhRCBiUfRVXsH5UJfDNm8fuQuG3i3gNSi7O4JJvEc9wtMABMg3OmbDEvxgusv3vDOPe/d9j/gVdnhkxF7FqxTOSRgDsqVCnUIkdmWh0PhkUrMAGkKBMdqpzR/Pa1OaggowYP2aMRyztUZ4wNrwrY9/cnv61fL+AVDeHIB7IAHgTg4GMcAOz55JfqAxuhkiiX2gEhAhQBm/PaiELI038gg4hzyBiIAMgjfZfo6kRHmbUm2APDUpD/9QIhIIAJl7FBkDJYafMtT8eJLFABoCbAD8rihytwyuta+ueFfFomkagWARa2uufg47xlce+j4lzhHyJwxC4W0r5oYTOFDEzj6wV0SuRBhdsoEqiEvMYlczLmxzs82VLw4wf4wboGL3BP868jirvGFMuXL7yE66o0/0TJgTnv28U0SuXJnK/apqfexq1degTKzlmCHUMXfTT+Jm0qrqmbABjE4mz4f/35WeEvp/bnf6tasKar/oRgDJCZcJ9XmhPb0OMe31jRZrUMs/2pQ8i+Cr0ID4+hXfm4HcDf8PYf4WrLnMD3+nvoxuBKFqA/PH5jPxShGzCFOvqwLDKBoDDrIQGQFz25MCI9XeNQBQtQB+qYl2T6uqAolEyAH4DOBoz4bS1mWBbB8Srv2oEMP4NfwzAYc31eEJdg+F9BHsE6lWKQMkL1F3vnIbOnD8vNqD3ttX9h0qC1cvD6PIGexFGfXyX3HEoBH+8KgAEKC/vzgZauTk4W/kWIPRhMFJ5rP5FzEnxccD4wWn2/zbN8Q532Gzxoe9/rdQCMI99ZH+I4b5QY1sGW9iGI42Wdysa7JVoJX+IQj+x0pWflxnPQz4vRn7l5t1xKkeua7hPjg+GBY9EZ/tDKhkA0DhVkBJI3nYxvbqpy+Z2nsrvtKrWXAZZuVk2DKhE5wwm0dk+SRUNgE0XZcx16Q4Rvdpp1AiyqrEy0Qi2cjP6PGJhkFjnGBXqbEFCBQPI76WdVggw3KdhmGJhhgtUTe9Y9a8oDbJysxxFa7iGTOdOwQYn6TyE1AAys7oOQyx1vplipHtHe40+ec0XIE2IAoEdG1J/Qry2X9wYv9Rm5mSP8KMX3ksNwEgZUwrMw31iiepr+m7f4ZDR76Jyg3Jk+ybE6GsilI0EFeouDys1AOKJI2HM6BAJoWkagagQgNuxQxi3RHd5WBVf9TGiROAheF1E1zT4yFy2rGV9baYULDDHgKt18c/nea7NSqyR3LPlEzT/OpqVm5A3inmA/ozIdA+1+zGiPHOatAUwTPYXokjQzHWI6JpWQKDUVaOFeIb/5CM+v1WZau+HjzfOb1EbdIjkwz0CQt3lYaUGAJ5JokTgjtopomtaOAjAnxFhXQrriWDZQhRxDkQT7neh7uHwNqHu8rjkBsDI5IGJDv5uEm/X4Hf6t0agHAiwhCvTPaHuchmlBoCTVoRW5BrkvXJkVqehERiMAHWpUPfQZAp1l8cnNQDiim9897pNmRUOllv/LgIBjCB8B8BFRDckCPzmoccfRZwDBfccQ6x7VKy7PC65ARgkPTDRId97ezuHvNMvQkdAjwGGQrovKdY9VBpi3UWUUgNAtVAzNOkBb3pyPQN+6a8agbIhMCY3RqJ7TKy7kFRqAOBJiXL0fvf4oi6+E8WpaRoBFQTQ/5HoHhXqLk9DxQCEVvTGNiKxQpWsaB6NQHAEVm6U6p5Qd3mKKgYQXDIdInQE9CA4dEjzEaoYgLCGP+oMyRghGrlHXax6EDy0yBfNlOqeUHd5jCoGIOxnjUvtlfazhoqu32gESkcATn6J7jGh7nIJpAaAyQSxFdUkpP2s0rOqY9AIDEVgX2KfRPeoWHcRpdQAcEufMzTpAW+SSaXjJwaE0F+LQECPAYaCNqZXrHvoNop1F1HKDcAku4cmfeCNkXKl080HuPW3YhHQY4ChyBlpT6x7TKy7PEbpfgAcdrJLNElueuLFckPFHn1vqEH/rrXRbi4l51gMKqysEk3O4lZmF79ilLGzROVcjOz5pRDFSyRNkplssmjbLyZxxUslkILUAACKcMGRSwyxFUqzUf0MUISzsOAYfxE+OIa8pMU8JQUePl98OXQE0e5PjObMScQUWphQd3lEwlqlPyWxFTEmvDFmv7T6y6hDIOrFcIYh1j2PULHuokSkBuC59E1RyRkmmSKia9roRSDqDTHonQh1z2BEqLu8ZKQGAJ4Ozuj3YJXuMX60UfPezJ+jWdXZpaYR+Oj7qFsA7JET6p500zxKTG4AhmzTuye0wqrWiv7M4ezUV6s9n66Hg3Jj91Cx7kl1V8EAnCzrEOab0SlBr6YUxleBRKvLegS1kbS5rcCsFUTeyfak1xd+xOEzw71ilB0rksXLySpvBQO46YnatzHO7vJLCM1cenpDz1Q/+mh4f90m2uUxNhd93reqML87c5TNwe0/sdr4ZM7pPgFYWwK87cyG2p0Cep4kd4PCzCjJvgDuv/aLzPNcfhDpH/zoo+F9y7q67bhIZGq2zplnGuQ45noK2MYXGd7n590eXvPHTfk5ap7pTRfdiI3K6D/6joMRY6xYSPwkXuZrADh+4lQkI77EWCxHVVB5S4CM/LwqMhNCJqKcBzAYdA7dD78HE4fP+9EGvpcPgsGNQZ7wJF7UFqcPjFR/1whwBKL0AjEq1jnp8en9RaRkAJjKf05UpBgjfCI/KBExaZpGIDQEoP6UnSGOTqyzhbBKBpDqTG9Hc+brB0ZzMy7Z1DWtEKn+1AhwBHgXKAokMud34iRI3/vBeJKuuzf97yppKxlAvm/LyO9FEWLGWHyNqiiwplUlAlF1gcyEIdQ1GN5zqgN3xUEw/KWUPAVz9u3rM4Oei1L8cbWVJD81mfWvsqQe2+cxb3PL+nqlAVYUWGTO3zfNTJrnokDGFhN/KXn45hnMmnCYPRtL3I6nJhE5YfKiYez4KcE4tRjx82HQ/+G65vtwXfUlDiIoGwD6P08hx18fFH7/TxwsNgN3syaq7rb4gass0V4a+LeiIXvXje3WIhU3236ASv7C6IpG+4eohJAuf4rsXfTnYXlj9u7FbdZC1TxkZnV+NJG2NyDhDymn7e+kyeegmP/lJ12p/WlR2JyrbgBKXSCemOO4WwC571WofBxgjHMkAxOR2JVDw8TIla3z7KvKKfGyefaVB5Q/lJSvWD7P9q3QBqbAa/5E2uhX/oGU8n8/tdH+BFL1ux+Y2yYabPfXqpIpG8DNG8e8i8i3iyNms8T06qFSI38hdtkyhGb9yrATgyHzS72lT77bk6/5payRM2DOSahjKJdnMpvGvKMqiLIB8AjRp9soihhLoxtF9DjSRN4tkbyojY8X0UOnUXJcNHHCDGQP+vwylmLoxawwxfhDqGMuE+voYDkDGYBnUqEBIPKpvK84OJGY/y5qlSO0BtgpKE9YmWcKu/cCpsXzkMEgQBbMSISfNk8z6ArTFU2d0yHtSSJ54Y2U6ehBwQMZAGmzfoca8+2DYhj0Axcqzx/0KtY/cdrCT2ItYPUKF3iFKWZ3hbqFVvmdF9ZbTweBLJABZAj1EGCtKAG4xyBkGWtGkTAKtMXrrB96jGojUMAqRJYiVpjiQl4iNgA0ZQ8HvbJX2Q1ayLzr0dW4OM93QAYhpiyd55yzZB3ZXAgT70/KWtrJ19B1uwet14yBN6LD39wcb9kPSOcRthwneKASPPgpRx7QK/hX+F62HJzy0F+lrDBd2uicBd0SjoNQkT00NFXxm8AG0LI+vRVXdr6JvpjvDXymwRYg2QoxgD6AMo/X85nug2a74SuPjQGgTeXNKv4b/vHaapfwFnowtbUxeyMCBWrpB8cBBRc36VD+5nV1LYPDhfnbZNAp39znU9rptaf/NWiaRQBDGfpBD4oSQjXUcM3sDyaLeDQtGALFngxXbLiB0kW1pGFgGqLv15/7AT96R+j98Rh5cLgKQBQvpwVuAXgg2musIgnvWv59uAeGWjOuJnkZaLcMR6+WdzjsChPk2XJlR1z/FSmF2Wj3tsrywMSHchWZtHIwa0ziy6j9hQfhUmKuUo5wAGMRLQAhzRvSL6FZ/M2AeIZ8xYaFqzKnyK+oGRKwgl7wrkW5/oqFhXedRGFV5BeFj5p2+WksCZDFs+6MbG1uT/2hGFmKMgCeEFxS90oSPMI4wfmChEeTNQJCBI462rlYNN7kgXEAlkwXfdMo2gC8vemH0Qq86xszCJiWvqaSXKKivFQqLYwxwMjlnWH4waBDgoeR9/a8nV4j4BCSijYArPp04Bu4SxQ7hJ+2tMG+QMQTaxpjH8Ravn7h0Mfp8hsAQoUizwN6A5GksXSe3QgL4Acu+D6ex+6+fRu1fRkkhKINgMe71+3lBiBMHEaQyUhONpbIOGJkNK0V4crFEYD+cjLmTwsJ2d5E+GlwnTEpXSoSET0Qx7M9YSUsCs9pJRnAbY+MfQ+TD/eLEjEoPZk2oB9XgQ91jesh9t44i47Z0fd7DfPbfjK63VHngf60dW3ds37pF/uezrPn40SeU0ThKaUPBFn5OVxccAKU9mTOd441a7yX0FT5u1QZee3PjnXyyo20u5jU4G7EUoX85JpvcO7N8CWCgM0foKNHHPBpneOcyEzvVngizkXQ+oDBI2Pn3R5e83Plz6xN/VGUEM+DkfBuQZgZYeQB8XjA+zX4l36ca7fu8Ot+iWQS0bj30DzRfhFp+M78ovbPua7x4cyG9J9Ecclo/korC9lPzzyWfq21wb5PqKCUHHtIrfNNBClqXgBA4D+xgiuKG5iNu3wRaB4PGKeuXBCl689DQ1h5yKCwi6lMePoqj3GC/Q2R8ufjoOz+UpWfx1OyAfBInC7Wmq4nX4TQvpeWYV7gRqy3+b9YciBcTcrji+sTROl0HopD4IY5nYehN7FYFBrW10Mdo1XEo0oTdhtUI1mxqfa/ofw/lfDXmyl6q4RHk0c5ArUJegsMYIwYBvqzxY9b/ynmUaOGYgA8qVyn28oHZKJkMWi5pLXJ4f3Qcj+dUTbZ5c5MtaaHrvQ5KKdLhfmDa9rOuUuFPAGIoRkAH41jv6a0WaKed09mNqsNIGPJrFgoFbkrsGQhR3kEfOM9fBSyXgSB13HFTRvq/xwWXKEZABeo9yVrJUbnrwiFw4DYSNhSQxHGEYDIWyXPML8TIIhmHQEEJhxpL0M32tfrw0VC3/9V7xXrjjDFC9UAMi/QHpzZyL09wgd9vG8sbbTPFjKVSARYOLOfrHep8QmZm7DEpHTwEhFY1mB/Cg7qq2XRuIRdzXVMxheEDqML/1nekH0IjssLRTFDQd/o6u6Zfstj4/eI+PpojGbQOZTzHeCoBo/NgdxU77fMWXvGJyamdiCHHxLlEjt91ra01Ya+rCYUN+hgwbOut8gy+fZCMmEwrfAb2nxUXU0N7/MJDaWPn7JMvgUshNaf1YKAOSF1D/IiVH7Q98LV3n8iXrg5D7ULVBCND1LQ97628NvvEwZyAVoL8Vpvv8D6fcUjsGxediF04CJZRjyXXXfTE3XS645k8QxHD9StGC4C0Tv07R7HmGCmiAe03hyj52Tara0SPk2uIgQyc7N/kzDJFmQpKc4WfWJxWxo6FHwZizjePmokLUAhYcd1vyTbMwDepEnYmhs+03VEIZz+rG4EsCLgcCj/w7zshTnFWv+c414alfLztCM1gD5/LfsHYSZBRDN4eF09fQSXzNXJeDW9shHgc0BmKn/QrrTCw+2UX4566UykBsCLqrm97lE0XtI122gpTrPr7QfjtOCsslUtftLzssUc0D+jwvuYTDqMIX+caavbIOMrlR65AXABe1+2robb82mZsBBmdgJn4Mv4NL0yETDm2rdjWflcBel/946dls4nKcQjZSmLAfDJC6eHNMEIVI6tXtja2JWRSq4ZKgqB5U12C04Pl3r8+JjR7iQXFLt3JCgoZTEALtSKR2vfxDaK+cggztIRP7htZsmyuVmpG1Uci6bGBQG4uq/GMSJLFeRxMSL8PF9drMAbCkvZDIBL27zO2oLVTLiWR/6gtvhea0PXlXJOzRFnBFrndX0Nc/i3qcgIf/9Vze3Wkyq8YfGU1QC40M3r6/jM33dVMoDl0z/SLYEKUvHk4TU/Due9W0U63BVwW8v6OiVelfhUeSKdCPMXglEcsLtatl6oEB5nsy5tbqvLFH7rz/gjwPv8it0efvEc1vlYWBITzWSXCK2ytwB9wlCW22NdgvGAUnPHxwQrGrN3ahepqCjjQeNlhFs071BVfujAFm+39fcjofwcsRFqAfoKi098OfX2LyHEGSrFh/phQ2/OujjzCM2q8Gue8iLAJ7mSSfvn8PblDxGQpc5d4+5ua4bqpday+Iqhj1AL0Ccqv4G+8wNnJtrAZ1WEx0Gvc0zT/n962YQKWuXl4csbzIS9RVn5Kfm9u7v7syOp/ByhEW0BCkXE7xKYYCY2YWHG/yq8k3zuxAK6i/QCOglKZSLzhW2mQdZghvdIlSRRkf0+m3XPy1+9qxIgQp4RbQEK+eInzO3rdM5G7bGt8E7yeUSCsidb52UjWSMuSVuTByDAXdV8Vaey8vNuz67us+Og/DwbsWgBCnhmzmL15gR7PcA8p/BO+snIms6enq+o7SyTxqYZFBHgO7n4ZhaU1UWKQTAuJlvcPdbske72DJQ3VgbABYMRpBMT7AdUXaQ8DFqONzDL/L/zE238hX4iRYDv4cU+j39EIrKdXPvl4K5O7u2B8jv7X8bgS+wMoA8TRnFGzK2oXa5TxQhG4HkeuZ25Vov2EqmiFoyPH10y8XB7KSqna6A4yt1nPsm1ZJ2Fsiy/n1+Ww5gaQJ/Yyxu6vorNAj/CL1OWkf10HMTrMno5AN+8/53+UjIC+UOrcG4PFOa4AJG5fHnDSMzwqsoYawPgmWidZ59FDLYagh6qminOxxi73+1m34l6Q0UQmSqRl5/VaZn0ZixL+VIQ+dHffxc1/ufLvbYniIycN/YGwIXMzMweZVrkYQj7cf5b9UEh7MMcw4p3eqw7yrW8VlW2uPPljyifan8dF5wsRis8Noi8wP3fnC7SVM5VnUHkG8hbEQbABeYFkjjRvh1frxiYAZXvGB+8ylza4q1P/yIzzGXSKnGMFh6+lMFosC/CxpVW5Pn4oPnG0YU/eddJf6NSKpyKMYBCQSyf2zWbGfRnGCAfUnin/MnoCy5jSzA+aIvjgEw5H5Ew5h0PDajtl/K73QIngQ3s6Hhetri9bn3gsCMYoOIMgGOVn3ZPmfdRyj5bFHaUPg+P0fff+K/0gz/dTnuLiqNKAvF7eI/+kPN5Rtm1qFSmF5MtjLc22VlyaVRn9xQjk2qYijSAQuYwQP4yNdj38Xt84V2gT0bexPmhd9r7cj+7efPYXYHCVjjzNz/z/sSJtUl+A/tVUIKjiszOXij/t5rba1dVaota0QbAC62vNTBWovYq/txIRroRVZtL6b1L2tJbKrUwOR6yp9+rtgAe+SYof0rG70fHQLfNzrKFlVjrD8xTxRtAITN8bEBM+gP8DjxwK8TBP/mAGX3g1eherb5xbT0/tLXin2VzO0/Fnor5wOfzKPAgfvwheef45E9pLsORJUMSj+BF1RgAx6YU192w2DLyR+axtcykG59vs/7/GkKxaTv+z4WEmafMtT9umGwmCrgJyv/hUqXmLmX8Lefn84d9RHmpspUSvqoMoABE5rx9hybqzSWorS5DBn0v7ivwK36iv0s2YVP/k8zztrY8Uv9ifLpKjC6b3XmyaRpnwkN2DuQ8D13CCYr5krH14pCqVfxaojBvZpElWi56VRpAAbzls+y/JGmyGAO1S6EQYR8FvxeK8VusQNpODLrDdYwd5PHUnzIRzzNwPz2Z1X08rfFOpYxNJ4ZxGrpsfxOiwufhgxHlEO8DOdtozfyL1VHAtNo+q9oACoXVOtM5jlrsWzCES6Ao6cL7CD5tGMWrUMwOpPM6lKjDZWSnQYxdruG+l3CMXV3dvZ3j68b02K+S7kJXgnfdMKtR023uS9WlkvW5tDfJ9MzJHvEmYULqcPxNQd/rGHRlpkApeR/eikD2fJSQGas16T+6Lv1uGPfwRiVnWPGOCgMogHX9zH2HWDXGQsOgV8ADMrnwXn/mB/+70L272816P+IXHo4WTEaVARQKlS/rnXC4cyFutVwAQ/hk4f1o/ESN/xRalnt3vZ1+6PZt1B5tGIxKAxhYyJmm7pMMz12AbsbFeH/EQFq1fofSv40NKg8mE+aqG9akMJgfvc+oN4BC0fPBpdHg/C367vPRIYDrMNjy60I8cf2E0r+L8claTICtdtelfxP1YD2uOAyWSxvAYETwe6Af3aR0JvPIX6GrVFlY4Tg9uIGfRb9+Y6XNYwxTJJG9qqxCjQwGccR8XoFa5tmmifGCR87EZkC+aMwUhyo7FRvhyPOGR56Cx2ir43q/rka/fdioagMoAlF+egWd6HzM8Nh0LJmYzhidTg1yCqKKzD05SEwbXbUXPY/toIzuYJTuqHHT//btDXTfID79U4KANgAJQKpkPobo/Zx9RDJJpxgMPnuDTEEf5Ej47bm7dTJOSZ6E7shE1NJpLDiqQYcqBfDzs9ToqvTgew8+u9FHdzCxthtLMPjq1PewPn8XlP0t4pLXMTP1OnFYB9lovaX78Kolo/k0AhoBjYBGQCOgEdAIaAQ0AhoBjYBGQCOgEdAIaAQ0AhoBjYBGQCOgERitCPwPBFnTxbjahX4AAAAASUVORK5CYII=;" parent="0Fs1EqQwWm2RgDKxZV1P-2" vertex="1">
          <mxGeometry x="10" y="5" width="55" height="55" as="geometry" />
        </mxCell>
        <mxCell id="0Fs1EqQwWm2RgDKxZV1P-12" value="&lt;font style=&quot;font-size: 12px;&quot;&gt;TCP 443 (agent activation/creation)&lt;/font&gt;" style="text;html=1;strokeColor=none;fillColor=none;align=center;verticalAlign=middle;whiteSpace=wrap;rounded=0;" vertex="1" parent="wKkd2Ftk299Nv-PwKDOf-33">
          <mxGeometry x="346.68" y="279" width="139" height="42" as="geometry" />
        </mxCell>
        <mxCell id="0Fs1EqQwWm2RgDKxZV1P-16" value="TCP 80 (automatic agent activation)" style="text;html=1;strokeColor=none;fillColor=none;align=left;verticalAlign=middle;whiteSpace=wrap;rounded=0;" vertex="1" parent="wKkd2Ftk299Nv-PwKDOf-33">
          <mxGeometry x="320" y="360" width="210" height="30" as="geometry" />
        </mxCell>
        <mxCell id="0Fs1EqQwWm2RgDKxZV1P-3" style="edgeStyle=orthogonalEdgeStyle;rounded=0;orthogonalLoop=1;jettySize=auto;html=1;exitX=1;exitY=0.5;exitDx=0;exitDy=0;entryX=0.5;entryY=0;entryDx=0;entryDy=0;" edge="1" parent="1" source="wKkd2Ftk299Nv-PwKDOf-52" target="wKkd2Ftk299Nv-PwKDOf-14">
          <mxGeometry relative="1" as="geometry" />
        </mxCell>
        <mxCell id="0Fs1EqQwWm2RgDKxZV1P-10" style="edgeStyle=orthogonalEdgeStyle;rounded=0;orthogonalLoop=1;jettySize=auto;html=1;exitX=1;exitY=0.5;exitDx=0;exitDy=0;entryX=0;entryY=0.5;entryDx=0;entryDy=0;startArrow=classic;startFill=1;" edge="1" parent="1" source="wKkd2Ftk299Nv-PwKDOf-15" target="wKkd2Ftk299Nv-PwKDOf-14">
          <mxGeometry relative="1" as="geometry" />
        </mxCell>
        <mxCell id="0Fs1EqQwWm2RgDKxZV1P-15" style="edgeStyle=orthogonalEdgeStyle;rounded=0;orthogonalLoop=1;jettySize=auto;html=1;" edge="1" parent="1" source="0Fs1EqQwWm2RgDKxZV1P-14">
          <mxGeometry relative="1" as="geometry">
            <mxPoint x="401" y="-450" as="targetPoint" />
          </mxGeometry>
        </mxCell>
        <mxCell id="0Fs1EqQwWm2RgDKxZV1P-14" value="" style="sketch=0;outlineConnect=0;fontColor=#232F3E;gradientColor=none;fillColor=#232F3D;strokeColor=none;dashed=0;verticalLabelPosition=bottom;verticalAlign=top;align=center;html=1;fontSize=12;fontStyle=0;aspect=fixed;pointerEvents=1;shape=mxgraph.aws4.user;" vertex="1" parent="1">
          <mxGeometry x="371.36" y="-310" width="60" height="60" as="geometry" />
        </mxCell>
        <mxCell id="0Fs1EqQwWm2RgDKxZV1P-17" value="AWS Management Console" style="text;html=1;strokeColor=none;fillColor=none;align=left;verticalAlign=middle;whiteSpace=wrap;rounded=0;" vertex="1" parent="1">
          <mxGeometry x="431.36" y="-295" width="210" height="30" as="geometry" />
        </mxCell>
      </root>
    </mxGraphModel>
  </diagram>
</mxfile>
